<?xml version="1.0" encoding="UTF-8" standalone="no"?>
<svg width="108px" height="110px" viewBox="0 0 108 110" version="1.1" xmlns="http://www.w3.org/2000/svg" xmlns:xlink="http://www.w3.org/1999/xlink">
    <!-- Generator: Sketch 39 (31667) - http://www.bohemiancoding.com/sketch -->
    <title>Group 3 Copy 3</title>
    <desc>Created with Sketch.</desc>
    <defs>
        <rect id="path-1" x="0" y="0" width="100" height="100" rx="50"></rect>
        <filter x="-50%" y="-50%" width="200%" height="200%" filterUnits="objectBoundingBox" id="filter-2">
            <feOffset dx="3" dy="6" in="SourceAlpha" result="shadowOffsetOuter1"></feOffset>
            <feGaussianBlur stdDeviation="2" in="shadowOffsetOuter1" result="shadowBlurOuter1"></feGaussianBlur>
            <feComposite in="shadowBlurOuter1" in2="SourceAlpha" operator="out" result="shadowBlurOuter1"></feComposite>
            <feColorMatrix values="0 0 0 0 0   0 0 0 0 0   0 0 0 0 0  0 0 0 0.5 0" type="matrix" in="shadowBlurOuter1"></feColorMatrix>
        </filter>
        <mask id="mask-3" maskContentUnits="userSpaceOnUse" maskUnits="objectBoundingBox" x="0" y="0" width="100" height="100" fill="white">
            <use xlink:href="#path-1"></use>
        </mask>
    </defs>
    <g id="Page-1" stroke="none" stroke-width="1" fill="none" fill-rule="evenodd">
        <g id="Desktop-HD-Copy-4" transform="translate(-334.000000, -280.000000)">
            <g id="Group-3-Copy-3" transform="translate(335.000000, 280.000000)">
                <g id="Rectangle-2">
                    <use fill="black" fill-opacity="1" filter="url(#filter-2)" xlink:href="#path-1"></use>
                    <use stroke="#FFFFFF" mask="url(#mask-3)" stroke-width="2" fill="#870476" fill-rule="evenodd" xlink:href="#path-1"></use>
                </g>
                <g id="owl-copy" transform="translate(3.000000, 24.000000)">
                    <g id="Capa_1">
                        <g id="Group">
                            <ellipse id="Oval" fill="#FFEBCA" cx="47.1154059" cy="30.1288421" rx="36.2373069" ry="29.4082105"></ellipse>
                            <path d="M47.1154059,0.750315789 C20.7030495,0.750315789 7.26051485,4.98126316 7.26051485,4.98126316 C35.3235644,10.2031579 47.1154059,29.2313684 47.1154059,29.2313684 C47.1154059,29.2313684 58.9066139,10.2025263 86.9696634,4.98126316 C86.9696634,4.98063158 73.5277624,0.750315789 47.1154059,0.750315789 L47.1154059,0.750315789 Z" id="Shape" fill="#F0B43C"></path>
                            <path d="M90.5270495,10.7147368 C95.9809901,2.52631579 93.7999208,0.278526316 93.7999208,0.278526316 C92.0503762,2.13221053 89.6506931,3.67010526 87.0894257,4.92505263 L72.4638416,5.73157895 L47.1154059,12.9814737 L21.701703,3.87284211 L7.2649505,4.96357895 C4.66059406,3.71305263 2.21085149,2.16568421 0.430891089,0.279157895 C0.430891089,0.279157895 -1.75081188,2.52694737 3.70312871,10.7153684 C9.15706931,18.9037895 0.249029703,31.9092632 3.70312871,39.2949474 C3.70312871,39.2949474 4.79366337,36.9334737 6.76245545,36.7402105 C6.76245545,36.7402105 3.4819802,43.1147368 6.65346535,47.4606316 C6.65346535,47.4606316 6.76245545,45.336 8.29338614,44.6602105 C8.29338614,44.6602105 8.84023762,48.5229474 12.2303366,48.6202105 C12.2303366,48.6202105 12.0117228,46.6882105 12.7771881,46.1090526 C12.7771881,46.1090526 15.5108119,49.0061053 21.7441584,45.1433684 C27.977505,41.2806316 35.9610297,34.5202105 39.5691089,33.1673684 C39.5691089,33.1673684 40.5531881,38.4176842 47.1147723,42.1844211 L47.1147723,42.1844211 C53.6757228,38.4176842 54.6604356,33.1673684 54.6604356,33.1673684 C58.2691485,34.5202105 66.2526733,41.2806316 72.4853861,45.1433684 C78.7187327,49.0061053 81.4529901,46.1090526 81.4529901,46.1090526 C82.2184554,46.6882105 81.9998416,48.6202105 81.9998416,48.6202105 C85.3899406,48.5235789 85.9367921,44.6602105 85.9367921,44.6602105 C87.4677228,45.336 87.5773465,47.4606316 87.5773465,47.4606316 C90.748198,43.1147368 87.4677228,36.7402105 87.4677228,36.7402105 C89.4358812,36.9334737 90.5270495,39.2949474 90.5270495,39.2949474 C93.9811485,31.9086316 85.0731089,18.9037895 90.5270495,10.7147368 L90.5270495,10.7147368 Z" id="Shape" fill="#AB4734"></path>
                            <path d="M47.1154059,30.0581053 C45.4064158,30.0581053 41.5505743,33.3738947 41.5505743,33.3738947 C41.5505743,36.3404211 47.1154059,40.5795789 47.1154059,40.5795789 C47.1154059,40.5795789 52.6802376,36.3404211 52.6802376,33.3738947 C52.6802376,33.3738947 48.824396,30.0581053 47.1154059,30.0581053 L47.1154059,30.0581053 Z" id="Shape" fill="#FFC54F"></path>
                            <g transform="translate(27.247525, 41.052632)" id="Shape" fill="#E6D4B6">
                                <g>
                                    <path d="M11.9489901,1.01431579 L11.7088317,1.53726316 L11.4078416,2.028 C11.3102574,2.19031579 11.1778218,2.33810526 11.0656634,2.49221053 C10.9566733,2.64884211 10.8286733,2.79473684 10.7019406,2.94126316 C10.5745743,3.08715789 10.4548119,3.23684211 10.3147723,3.37389474 C10.0492673,3.65684211 9.78122772,3.93789474 9.49607921,4.20505263 C9.35984158,4.34336842 9.2090297,4.47031579 9.06518812,4.60231579 C8.9219802,4.73557895 8.78194059,4.87073684 8.63239604,4.99894737 C8.34217822,5.26105263 8.04055446,5.51368421 7.73829703,5.76442105 L6.82518812,6.51157895 C6.63128713,6.66315789 6.43421782,6.81473684 6.23778218,6.96252632 C6.04134653,6.81473684 5.84427723,6.66315789 5.6510099,6.51157895 L4.73726733,5.76568421 C4.43564356,5.51494737 4.1340198,5.26231579 3.84380198,4.99957895 C3.69425743,4.872 3.55421782,4.73621053 3.41037624,4.60421053 C3.26716832,4.47157895 3.11572277,4.34463158 2.97948515,4.20631579 C2.69433663,3.93789474 2.42693069,3.65684211 2.16079208,3.37515789 C2.02011881,3.23747368 1.90035644,3.08905263 1.77362376,2.94252632 C1.64625743,2.79663158 1.51889109,2.64947368 1.40926733,2.49347368 C1.29774257,2.33873684 1.16530693,2.19094737 1.06772277,2.02863158 L0.766732673,1.53789474 L0.527841584,1.02252632 L0.372594059,0.451578947 L0.356118812,1.04084211 L0.469544554,1.64463158 C0.526574257,1.83915789 0.601980198,2.02610526 0.671049505,2.21873684 C0.740118812,2.412 0.842772277,2.58568421 0.928316832,2.77136842 C1.01449505,2.95831579 1.12538614,3.12757895 1.23247525,3.30063158 C1.34083168,3.47242105 1.44411881,3.65052632 1.56514851,3.81221053 C1.79453465,4.14947368 2.05180198,4.464 2.31223762,4.776 C2.83184158,5.40126316 3.41227723,5.97284211 4.00221782,6.53052632 C4.60546535,7.08 5.22645545,7.59031579 5.88990099,8.09431579 L6.23588119,8.35705263 L6.58312871,8.09431579 C7.24784158,7.59157895 7.86756436,7.08 8.47271287,6.53115789 C9.0620198,5.97284211 9.64435644,5.40252632 10.1626931,4.77726316 C10.4231287,4.46526316 10.680396,4.15010526 10.9104158,3.81347368 C11.0314455,3.65115789 11.1347327,3.47368421 11.2430891,3.30126316 C11.3508119,3.12884211 11.4610693,2.95894737 11.5472475,2.77263158 C11.6327921,2.58631579 11.7354455,2.41263158 11.8045149,2.21936842 C11.8729505,2.02610526 11.9489901,1.83852632 12.0053861,1.64526316 L12.1169109,1.04968421 L12.1029703,0.451578947 L11.9489901,1.01431579 L11.9489901,1.01431579 Z"></path>
                                    <path d="M25.5790891,1.01431579 L25.3389307,1.53726316 L25.0379406,2.028 C24.9403564,2.19031579 24.8079208,2.33810526 24.6957624,2.49221053 C24.5867723,2.64884211 24.4587723,2.79473684 24.3320396,2.94126316 C24.2053069,3.08715789 24.0849109,3.23684211 23.9448713,3.37389474 C23.6793663,3.65684211 23.4113267,3.93789474 23.1268119,4.20505263 C22.9905743,4.34336842 22.8391287,4.47031579 22.6959208,4.60231579 C22.5533465,4.73557895 22.4120396,4.87073684 22.2631287,4.99894737 C21.9729109,5.26105263 21.6712871,5.51368421 21.3690297,5.76442105 L20.4559208,6.51157895 C20.2626535,6.66315789 20.0655842,6.81473684 19.8685149,6.96252632 C19.6714455,6.81473684 19.4750099,6.66315789 19.2817426,6.51157895 L18.3673663,5.76568421 C18.0657426,5.51494737 17.7641188,5.26231579 17.473901,4.99957895 C17.3243564,4.872 17.1843168,4.73621053 17.0404752,4.60421053 C16.8966337,4.47157895 16.7458218,4.34463158 16.6095842,4.20631579 C16.3244356,3.93789474 16.0576634,3.65684211 15.7908911,3.37515789 C15.6502178,3.23747368 15.5304554,3.08905263 15.4037228,2.94252632 C15.2769901,2.79663158 15.1489901,2.64947368 15.04,2.49347368 C14.9278416,2.33873684 14.7954059,2.19094737 14.6978218,2.02863158 L14.3974653,1.53789474 L14.1585743,1.02252632 L14.0033267,0.451578947 L13.9868515,1.04084211 L14.1002772,1.64463158 C14.1573069,1.83915789 14.2333465,2.02610526 14.3017822,2.21873684 C14.3714851,2.412 14.473505,2.58568421 14.5596832,2.77136842 C14.6458614,2.95831579 14.7567525,3.12757895 14.8638416,3.30063158 C14.9715644,3.47242105 15.0748515,3.65052632 15.1965149,3.81221053 C15.425901,4.14947368 15.6831683,4.464 15.943604,4.776 C16.4632079,5.40126316 17.0436436,5.97284211 17.6335842,6.53052632 C18.2368317,7.08 18.8578218,7.59031579 19.521901,8.09431579 L19.8678812,8.35705263 L20.2151287,8.09431579 C20.8798416,7.59157895 21.4995644,7.08 22.1040792,6.53115789 C22.6940198,5.97284211 23.2757228,5.40252632 23.7946931,4.77726316 C24.0551287,4.46526316 24.312396,4.15010526 24.5417822,3.81347368 C24.6634455,3.65115789 24.766099,3.47368421 24.8744554,3.30126316 C24.9815446,3.12884211 25.0924356,2.95894737 25.1786139,2.77263158 C25.2641584,2.58631579 25.3661782,2.41263158 25.4358812,2.21936842 C25.5043168,2.02610526 25.5803564,1.83852632 25.6367525,1.64526316 L25.7489109,1.04968421 L25.7330693,0.452210526 L25.5790891,1.01431579 L25.5790891,1.01431579 Z"></path>
                                    <path d="M39.3631683,0.451578947 L39.2091881,1.01494737 L38.9690297,1.53789474 L38.6680396,2.02863158 C38.5704554,2.19094737 38.4380198,2.33873684 38.3258614,2.49284211 C38.2168713,2.64947368 38.0888713,2.79536842 37.961505,2.94189474 C37.8347723,3.08778947 37.7150099,3.23747368 37.5743366,3.37452632 C37.308198,3.65747368 37.0407921,3.93852632 36.7556436,4.20568421 C36.6194059,4.344 36.4679604,4.47094737 36.3247525,4.60294737 C36.1815446,4.73621053 36.041505,4.87136842 35.8919604,4.99957895 C35.6017426,5.26168421 35.3001188,5.51431579 34.9978614,5.76505263 L34.0847525,6.51221053 C33.8908515,6.66378947 33.6937822,6.81536842 33.4973465,6.96315789 C33.3009109,6.81536842 33.1038416,6.66378947 32.9105743,6.51221053 L31.9968317,5.76631579 C31.6952079,5.51557895 31.3935842,5.26294737 31.1027327,5.00021053 C30.9538218,4.87263158 30.8137822,4.73684211 30.6693069,4.60484211 C30.5254653,4.47221053 30.3746535,4.34526316 30.2384158,4.20694737 C29.9532673,3.93852632 29.6858614,3.65747368 29.4197228,3.37578947 C29.2790495,3.23810526 29.1592871,3.08968421 29.0325545,2.94315789 C28.9058218,2.79726316 28.7784554,2.65010526 28.6688317,2.49410526 C28.5573069,2.33936842 28.4248713,2.19157895 28.3266535,2.02926316 L28.026297,1.53852632 L27.7874059,1.02315789 L27.6327921,0.452210526 L27.6163168,1.04147368 L27.7297426,1.64526316 C27.7867723,1.83978947 27.8621782,2.02673684 27.9312475,2.21936842 C28.0003168,2.41263158 28.1029703,2.58631579 28.1885149,2.772 C28.2746931,2.95894737 28.3855842,3.12821053 28.4926733,3.30126316 C28.6010297,3.47305263 28.7043168,3.65115789 28.8253465,3.81284211 C29.054099,4.15010526 29.312,4.46463158 29.5724356,4.77663158 C30.0914059,5.40189474 30.6724752,5.97347368 31.2630495,6.53115789 C31.866297,7.08063158 32.4872871,7.59094737 33.1507327,8.09494737 L33.4967129,8.35768421 L33.8439604,8.09494737 C34.5086733,7.59221053 35.128396,7.08063158 35.7329109,6.53178947 C36.3228515,5.97347368 36.9045545,5.40315789 37.4235248,4.77789474 C37.6839604,4.46589474 37.9412277,4.15073684 38.1712475,3.81410526 C38.2922772,3.65178947 38.3955644,3.47431579 38.5039208,3.30189474 C38.6110099,3.12947368 38.721901,2.95957895 38.8080792,2.77326316 C38.8936238,2.58694737 38.9956436,2.41326316 39.0653465,2.22 C39.1337822,2.02673684 39.2098218,1.83915789 39.2662178,1.64589474 L39.3783762,1.05031579 L39.3631683,0.451578947 L39.3631683,0.451578947 Z"></path>
                                </g>
                                <g transform="translate(8.237624, 8.210526)">
                                    <path d="M9.15136634,0.556421053 L8.97077228,1.01557895 L8.74455446,1.44631579 C8.6710495,1.58905263 8.57156436,1.71852632 8.48728713,1.85431579 C8.40554455,1.99136842 8.30922772,2.12021053 8.21354455,2.24778947 C8.11786139,2.376 8.02788119,2.50673684 7.92205941,2.62736842 C7.72245545,2.87557895 7.5209505,3.12126316 7.30677228,3.35621053 C7.20411881,3.47747368 7.09069307,3.58926316 6.9829703,3.70547368 C6.87588119,3.82231579 6.77005941,3.94042105 6.65790099,4.05284211 C6.43928713,4.28273684 6.21243564,4.50442105 5.98558416,4.72421053 L5.29869307,5.37915789 C5.15358416,5.51242105 5.00530693,5.64505263 4.8570297,5.77452632 C4.70938614,5.64505263 4.56110891,5.51242105 4.416,5.37915789 L3.72910891,4.72547368 C3.50225743,4.50442105 3.27540594,4.28336842 3.05679208,4.05284211 C2.94463366,3.94042105 2.83944554,3.82168421 2.73108911,3.70610526 C2.62336634,3.58926316 2.50930693,3.47810526 2.40728713,3.35684211 C2.19310891,3.12189474 1.99223762,2.87494737 1.79136634,2.628 C1.68554455,2.508 1.59556436,2.37663158 1.50051485,2.24842105 C1.40483168,2.12021053 1.30914851,1.99136842 1.22677228,1.85431579 C1.14249505,1.71852632 1.04364356,1.58905263 0.970138614,1.44694737 L0.743920792,1.01621053 L0.564594059,0.564 L0.448,0.0625263158 L0.435326733,0.579157895 L0.520871287,1.10842105 C0.563960396,1.27957895 0.620356436,1.44315789 0.672316832,1.61242105 C0.724910891,1.78231579 0.801584158,1.93452632 0.866217822,2.09747368 C0.930851485,2.26168421 1.01449505,2.41010526 1.0949703,2.56105263 C1.17607921,2.712 1.2540198,2.868 1.34526733,3.01010526 C1.51762376,3.30568421 1.71152475,3.58168421 1.90732673,3.85578947 C2.29766337,4.404 2.73425743,4.90547368 3.17782178,5.39431579 C3.63152475,5.87621053 4.09853465,6.324 4.59722772,6.76610526 L4.8570297,6.99663158 L5.11809901,6.76610526 C5.61805941,6.32526316 6.08380198,5.87621053 6.53877228,5.39494737 C6.98170297,4.90547368 7.41956436,4.40526316 7.80990099,3.85578947 C8.00570297,3.58231579 8.1989703,3.30568421 8.3719604,3.01073684 C8.46320792,2.868 8.54051485,2.712 8.62225743,2.56168421 C8.70273267,2.41010526 8.78574257,2.26105263 8.8510099,2.09747368 C8.91564356,1.93452632 8.99231683,1.78231579 9.04427723,1.61242105 C9.09560396,1.44315789 9.15263366,1.27894737 9.19572277,1.10842105 L9.27936634,0.586105263 L9.26732673,0.0618947368 L9.15136634,0.556421053 L9.15136634,0.556421053 Z"></path>
                                    <path d="M22.6965545,0.556421053 L22.5159604,1.01557895 L22.2897426,1.44631579 C22.2162376,1.58905263 22.1167525,1.71852632 22.0324752,1.85431579 C21.9507327,1.99136842 21.8544158,2.12021053 21.7587327,2.24778947 C21.6630495,2.376 21.5730693,2.50673684 21.4672475,2.62736842 C21.2676436,2.87557895 21.0661386,3.12126316 20.8519604,3.35621053 C20.7493069,3.47747368 20.6358812,3.58926316 20.5281584,3.70547368 C20.4204356,3.82231579 20.3152475,3.94042105 20.2024554,4.05284211 C19.9838416,4.28273684 19.7576238,4.50442105 19.5301386,4.72421053 L18.8432475,5.37915789 C18.697505,5.51242105 18.5498614,5.64505263 18.4015842,5.77452632 C18.2539406,5.64505263 18.106297,5.51242105 17.9605545,5.37915789 L17.2736634,4.72547368 C17.0468119,4.50442105 16.8199604,4.28336842 16.6019802,4.05284211 C16.4898218,3.94042105 16.3846337,3.82168421 16.2762772,3.70610526 C16.1685545,3.58926316 16.054495,3.47810526 15.9524752,3.35684211 C15.738297,3.12189474 15.5374257,2.87494737 15.3371881,2.628 C15.2313663,2.508 15.1413861,2.37663158 15.0463366,2.24842105 C14.9506535,2.12021053 14.8549703,1.99136842 14.7725941,1.85431579 C14.6889505,1.71852632 14.5888317,1.58905263 14.5159604,1.44694737 L14.2903762,1.01621053 L14.1110495,0.564 L13.9944554,0.0625263158 L13.9817822,0.579157895 L14.0666931,1.10842105 C14.1097822,1.27957895 14.1668119,1.44315789 14.2181386,1.61242105 C14.270099,1.78231579 14.3474059,1.93452632 14.4120396,2.09747368 C14.4766733,2.26168421 14.5596832,2.41010526 14.6407921,2.56105263 C14.721901,2.712 14.7998416,2.868 14.8910891,3.01010526 C15.0634455,3.30568421 15.2567129,3.58168421 15.4525149,3.85578947 C15.8428515,4.404 16.2794455,4.90547368 16.7230099,5.39431579 C17.1767129,5.87621053 17.6437228,6.324 18.1424158,6.76610526 L18.4028515,6.99663158 L18.6639208,6.76610526 C19.1638812,6.32526316 19.6289901,5.87621053 20.0839604,5.39494737 C20.5275248,4.90547368 20.9647525,4.40526316 21.3550891,3.85578947 C21.5508911,3.58231579 21.7441584,3.30568421 21.9171485,3.01073684 C22.008396,2.868 22.0863366,2.712 22.1674455,2.56168421 C22.2485545,2.41010526 22.3309307,2.26105263 22.396198,2.09747368 C22.4608317,1.93452632 22.537505,1.78231579 22.590099,1.61242105 C22.6414257,1.44315789 22.6984554,1.27894737 22.7409109,1.10842105 L22.8251881,0.586105263 L22.8131485,0.0618947368 L22.6965545,0.556421053 L22.6965545,0.556421053 Z"></path>
                                </g>
                            </g>
                            <g transform="translate(9.504950, 6.947368)">
                                <g>
                                    <ellipse id="Oval" fill="#5C281E" cx="14.8372277" cy="14.9842105" rx="14.7694257" ry="14.8648421"></ellipse>
                                    <ellipse id="Oval" fill="#8C3E2E" cx="14.8372277" cy="14.9842105" rx="13.0781782" ry="13.1621053"></ellipse>
                                    <ellipse id="Oval" fill="#FFD580" cx="14.8372277" cy="14.9842105" rx="9.61013861" ry="9.672"></ellipse>
                                    <g opacity="0.2" transform="translate(1.900990, 1.894737)" id="Shape" fill="#FFFFFF">
                                        <path d="M13.9722772,24.84 C13.9722772,25.4153684 13.5090693,25.8821053 12.9368713,25.8821053 L12.9368713,25.8821053 C12.3646733,25.8821053 11.9014653,25.4153684 11.9014653,24.84 L11.9014653,1.33957895 C11.9014653,0.763578947 12.3646733,0.297473684 12.9368713,0.297473684 L12.9368713,0.297473684 C13.5090693,0.297473684 13.9722772,0.764210526 13.9722772,1.33957895 L13.9722772,24.84 L13.9722772,24.84 Z"></path>
                                        <path d="M24.6114851,12.0473684 C25.1830495,12.0473684 25.6468911,12.5141053 25.6468911,13.0894737 L25.6468911,13.0894737 C25.6468911,13.6654737 25.1830495,14.1315789 24.6114851,14.1315789 L1.26162376,14.1315789 C0.690059406,14.1315789 0.226217822,13.6648421 0.226217822,13.0894737 L0.226217822,13.0894737 C0.226217822,12.5134737 0.690059406,12.0473684 1.26162376,12.0473684 L24.6114851,12.0473684 L24.6114851,12.0473684 Z"></path>
                                        <path d="M21.9241188,20.6614737 C22.328396,21.0688421 22.328396,21.7282105 21.9241188,22.1355789 L21.9241188,22.1355789 C21.5198416,22.5429474 20.864,22.5429474 20.4590891,22.1355789 L3.9489901,5.51810526 C3.54471287,5.11073684 3.54471287,4.45136842 3.9489901,4.044 L3.9489901,4.044 C4.35326733,3.63726316 5.00910891,3.63726316 5.41338614,4.044 L21.9241188,20.6614737 L21.9241188,20.6614737 Z"></path>
                                        <path d="M20.4590891,4.044 C20.8633663,3.63726316 21.5192079,3.63726316 21.9241188,4.044 L21.9241188,4.044 C22.328396,4.45136842 22.328396,5.11073684 21.9241188,5.51810526 L5.41338614,22.1355789 C5.00910891,22.5429474 4.35326733,22.5429474 3.9489901,22.1355789 L3.9489901,22.1355789 C3.54471287,21.7282105 3.54471287,21.0688421 3.9489901,20.6614737 L20.4590891,4.044 L20.4590891,4.044 Z"></path>
                                    </g>
                                    <ellipse id="Oval" fill="#383838" cx="14.8372277" cy="14.9842105" rx="4.33425743" ry="4.36231579"></ellipse>
                                    <ellipse id="Oval" fill="#FFFFFF" cx="10.9617426" cy="11.2218947" rx="2.70954455" ry="2.72652632"></ellipse>
                                </g>
                                <g transform="translate(44.990099, 0.000000)">
                                    <ellipse id="Oval" fill="#5C281E" cx="15.3929505" cy="14.9842105" rx="14.7694257" ry="14.8648421"></ellipse>
                                    <ellipse id="Oval" fill="#8C3E2E" cx="15.3929505" cy="14.9842105" rx="13.0781782" ry="13.1621053"></ellipse>
                                    <ellipse id="Oval" fill="#FFD580" cx="15.3929505" cy="14.9842105" rx="9.60950495" ry="9.672"></ellipse>
                                    <g opacity="0.2" transform="translate(2.534653, 1.894737)" id="Shape" fill="#FFFFFF">
                                        <path d="M13.8943366,24.84 C13.8943366,25.4153684 13.430495,25.8821053 12.858297,25.8821053 L12.858297,25.8821053 C12.2867327,25.8821053 11.8228911,25.4153684 11.8228911,24.84 L11.8228911,1.33957895 C11.8228911,0.763578947 12.2867327,0.297473684 12.858297,0.297473684 L12.858297,0.297473684 C13.430495,0.297473684 13.8943366,0.764210526 13.8943366,1.33957895 L13.8943366,24.84 L13.8943366,24.84 Z"></path>
                                        <path d="M24.5329109,12.0473684 C25.1051089,12.0473684 25.5683168,12.5141053 25.5683168,13.0894737 L25.5683168,13.0894737 C25.5683168,13.6654737 25.1051089,14.1315789 24.5329109,14.1315789 L1.18368317,14.1315789 C0.611485149,14.1315789 0.147643564,13.6648421 0.147643564,13.0894737 L0.147643564,13.0894737 C0.147643564,12.5134737 0.611485149,12.0473684 1.18368317,12.0473684 L24.5329109,12.0473684 L24.5329109,12.0473684 Z"></path>
                                        <path d="M21.8455446,20.6614737 C22.2498218,21.0688421 22.2498218,21.7282105 21.8455446,22.1355789 L21.8455446,22.1355789 C21.4412673,22.5429474 20.7854257,22.5429474 20.3811485,22.1355789 L3.8710495,5.51810526 C3.46613861,5.11073684 3.46613861,4.45136842 3.8710495,4.044 L3.8710495,4.044 C4.27532673,3.63726316 4.93116832,3.63726316 5.33544554,4.044 L21.8455446,20.6614737 L21.8455446,20.6614737 Z"></path>
                                        <path d="M20.3811485,4.044 C20.7860594,3.63726316 21.4412673,3.63726316 21.8455446,4.044 L21.8455446,4.044 C22.2498218,4.45136842 22.2498218,5.11073684 21.8455446,5.51810526 L5.33544554,22.1355789 C4.93116832,22.5429474 4.27532673,22.5429474 3.8710495,22.1355789 L3.8710495,22.1355789 C3.46613861,21.7282105 3.46613861,21.0688421 3.8710495,20.6614737 L20.3811485,4.044 L20.3811485,4.044 Z"></path>
                                    </g>
                                    <ellipse id="Oval" fill="#383838" cx="15.3929505" cy="14.9842105" rx="4.33425743" ry="4.36231579"></ellipse>
                                    <ellipse id="Oval" fill="#FFFFFF" cx="11.5174653" cy="11.2218947" rx="2.70954455" ry="2.72652632"></ellipse>
                                </g>
                            </g>
                            <path d="M47.1154059,0.750315789 C20.7030495,0.750315789 7.26051485,4.98126316 7.26051485,4.98126316 C35.3235644,10.2031579 47.1154059,26.4555789 47.1154059,26.4555789 C47.1154059,26.4555789 58.9066139,10.2031579 86.9696634,4.98126316 C86.9696634,4.98063158 73.5277624,0.750315789 47.1154059,0.750315789 L47.1154059,0.750315789 Z" id="Shape" fill="#F5B83D"></path>
                            <path d="M47.1154059,0.721263158 C46.5013861,0.721263158 45.8911683,0.734526316 45.2847525,0.759157895 C21.1466139,0.940421053 8.36942574,4.64589474 7.33718812,4.95789474 L7.2649505,4.96294737 C4.66059406,3.71305263 2.21085149,2.16568421 0.430891089,0.279157895 C0.430891089,0.279157895 -1.75081188,2.52694737 3.70312871,10.7153684 C9.15706931,18.9037895 0.249029703,31.9092632 3.70312871,39.2949474 C3.70312871,39.2949474 4.79366337,36.9334737 6.76245545,36.7402105 C6.76245545,36.7402105 3.4819802,43.1147368 6.65346535,47.4606316 C6.65346535,47.4606316 6.76245545,45.336 8.29338614,44.6602105 C8.29338614,44.6602105 8.84023762,48.5229474 12.2303366,48.6202105 C12.2303366,48.6202105 12.0117228,46.6882105 12.7771881,46.1090526 C12.7771881,46.1090526 14.2301782,47.6444211 17.4289109,46.9850526 C23.9822574,54.5728421 34.8305743,59.5376842 47.1154059,59.5376842 L47.1154059,0.721263158 L47.1154059,0.721263158 Z" id="Shape" fill="#FFFFFF" opacity="0.2"></path>
                        </g>
                    </g>
                </g>
            </g>
        </g>
    </g>
</svg>