<?xml version="1.0" encoding="UTF-8" standalone="no"?>
<svg width="108px" height="110px" viewBox="0 0 108 110" version="1.1" xmlns="http://www.w3.org/2000/svg" xmlns:xlink="http://www.w3.org/1999/xlink">
    <!-- Generator: Sketch 39 (31667) - http://www.bohemiancoding.com/sketch -->
    <title>Group 3 Copy 3</title>
    <desc>Created with Sketch.</desc>
    <defs>
        <rect id="path-1" x="0" y="0" width="100" height="100" rx="50"></rect>
        <filter x="-50%" y="-50%" width="200%" height="200%" filterUnits="objectBoundingBox" id="filter-2">
            <feOffset dx="3" dy="6" in="SourceAlpha" result="shadowOffsetOuter1"></feOffset>
            <feGaussianBlur stdDeviation="2" in="shadowOffsetOuter1" result="shadowBlurOuter1"></feGaussianBlur>
            <feComposite in="shadowBlurOuter1" in2="SourceAlpha" operator="out" result="shadowBlurOuter1"></feComposite>
            <feColorMatrix values="0 0 0 0 0   0 0 0 0 0   0 0 0 0 0  0 0 0 0.5 0" type="matrix" in="shadowBlurOuter1"></feColorMatrix>
        </filter>
        <mask id="mask-3" maskContentUnits="userSpaceOnUse" maskUnits="objectBoundingBox" x="0" y="0" width="100" height="100" fill="white">
            <use xlink:href="#path-1"></use>
        </mask>
    </defs>
    <g id="Page-1" stroke="none" stroke-width="1" fill="none" fill-rule="evenodd">
        <g id="Desktop-HD-Copy-4" transform="translate(-334.000000, -222.000000)">
            <g id="Group-3-Copy-3" transform="translate(335.000000, 222.000000)">
                <g id="Rectangle-2">
                    <use fill="black" fill-opacity="1" filter="url(#filter-2)" xlink:href="#path-1"></use>
                    <use stroke="#FFFFFF" mask="url(#mask-3)" stroke-width="2" fill="#FF7642" fill-rule="evenodd" xlink:href="#path-1"></use>
                </g>
                <g id="wolf" transform="translate(10.909091, 12.121212)">
                    <g id="Capa_1">
                        <g id="Group">
                            <g>
                                <g transform="translate(6.775758, 55.647011)" id="Shape" fill="#676C70">
                                    <path d="M56.0365576,0.809742015 C56.0365576,0.809742015 64.3827273,6.54398444 64.0752121,21.0699345 C64.0752121,21.0699345 55.3902545,5.25058149 37.6226545,8.39593776 C37.6226545,8.39645782 41.4384485,-1.96584767 56.0365576,0.809742015 L56.0365576,0.809742015 Z"></path>
                                    <path d="M8.37952727,0.809742015 C8.37952727,0.809742015 0.0328363636,6.54398444 0.340872727,21.0699345 C0.340872727,21.0699345 9.0258303,5.25058149 26.7934303,8.39593776 C26.7934303,8.39645782 22.9771152,-1.96584767 8.37952727,0.809742015 L8.37952727,0.809742015 Z"></path>
                                </g>
                                <g transform="translate(2.084848, 49.926290)" id="Shape" fill="#62686B">
                                    <path d="M64.3040242,0.805581491 C64.3040242,0.805581491 73.9031879,6.53982391 73.5492848,21.066294 C73.5492848,21.066294 63.5602545,5.24642097 43.1261333,8.3922973 C43.1261333,8.3922973 47.5152606,-1.97000819 64.3040242,0.805581491 L64.3040242,0.805581491 Z"></path>
                                    <path d="M9.49387879,0.805581491 C9.49387879,0.805581491 -0.105806061,6.53982391 0.248618182,21.066294 C0.248618182,21.066294 10.2371273,5.24642097 30.6717697,8.3922973 C30.6717697,8.3922973 26.2826424,-1.97000819 9.49387879,0.805581491 L9.49387879,0.805581491 Z"></path>
                                </g>
                                <path d="M69.6532242,44.410475 C74.8012364,45.7345618 77.1018667,49.4868346 77.1018667,49.4868346 C76.3346424,35.8023505 65.1624606,29.8429197 65.1624606,29.8429197 L58.4810424,7.21902948 C54.3191636,10.1984848 43.5848,14.613321 38.9840606,14.613321 C34.3838424,14.613321 23.6494788,10.1990049 19.4870788,7.21902948 L12.8056606,29.8429197 C12.8056606,29.8429197 1.63295758,35.8023505 0.866254545,49.4868346 C0.866254545,49.4868346 3.16636364,45.7345618 8.31437576,44.410475 C8.31437576,44.410475 -1.54330909,50.0386241 0.209006061,59.9713554 C4.91867879,54.0119247 18.2820364,50.2596519 24.6350909,53.3498812 C30.9876242,56.4401106 30.330897,62.1790336 31.0970788,66.7036036 C31.5328121,69.2753276 32.0576727,72.0774406 33.7901818,73.4795373 C35.1057212,74.5446314 37.4704606,74.5389107 38.9835394,74.5389107 C40.4966182,74.5389107 42.8613576,74.5446314 44.1774182,73.4795373 C45.9099273,72.0769206 46.4342667,69.2753276 46.87,66.7036036 C47.6372242,62.1790336 46.9799758,56.4401106 53.3325091,53.3498812 C59.6855636,50.2596519 73.0484,54.0124447 77.7585939,59.9713554 C79.5114303,50.0391441 69.6532242,44.410475 69.6532242,44.410475 L69.6532242,44.410475 Z" id="Shape" fill="#676C70"></path>
                                <g transform="translate(11.987879, 0.000000)" id="Shape">
                                    <g>
                                        <path d="M4.6137697,0.0847706798 C5.54830303,-0.39004914 9.41830303,2.83903767 12.1499758,6.98239967 C14.4453939,10.4642383 16.0069455,17.06543 15.7598909,19.978837 C15.3773212,24.4800041 7.22973333,31.1144799 1.68664242,32.1343284 C-1.7069697,22.9562121 0.873030303,1.98404996 4.6137697,0.0847706798 L4.6137697,0.0847706798 Z" fill="#B8B8B8"></path>
                                        <path d="M5.52276364,4.45124079 C6.20242424,4.10591728 9.01644848,6.4540131 11.0027879,9.4662326 C12.6717091,11.9984316 13.8074303,16.7981163 13.6270909,18.9163432 C13.3492848,22.1891155 7.42518788,27.0132432 3.39413333,27.7548567 C0.926715152,21.0813759 2.80307879,5.83253481 5.52276364,4.45124079 L5.52276364,4.45124079 Z" fill="#787D82"></path>
                                    </g>
                                    <g transform="translate(38.048485, 0.000000)">
                                        <path d="M11.3295879,0.0847706798 C10.3945333,-0.39004914 6.52505455,2.83903767 3.79338182,6.98239967 C1.49744242,10.4642383 -0.0641090909,17.06543 0.183466667,19.978837 C0.565515152,24.4800041 8.71362424,31.1144799 14.2567152,32.1343284 C17.6503273,22.9562121 15.0703273,1.98404996 11.3295879,0.0847706798 L11.3295879,0.0847706798 Z" fill="#B8B8B8"></path>
                                        <path d="M10.4205939,4.45124079 C9.74041212,4.10591728 6.92690909,6.4540131 4.9405697,9.4662326 C3.27112727,11.9984316 2.13540606,16.7981163 2.31574545,18.9163432 C2.59407273,22.1891155 8.5181697,27.0132432 12.548703,27.7548567 C15.0166424,21.0813759 13.1402788,5.83253481 10.4205939,4.45124079 L10.4205939,4.45124079 Z" fill="#787D82"></path>
                                    </g>
                                </g>
                                <path d="M52.6648364,45.8463759 L52.6648364,50.9945045 L38.9882303,50.9945045 L38.9788485,50.9945045 L25.3022424,50.9945045 L25.3022424,45.8463759 C21.0293455,43.4707166 13.7933576,45.251941 13.7933576,48.4201802 C13.7933576,51.5884193 23.3628121,56.7063841 28.7458909,69.2108395 C31.4264848,75.438104 37.3943636,75.7506634 38.9142182,75.7641851 L38.9142182,75.7647052 L38.9840606,75.7647052 L39.0544242,75.7647052 L39.0544242,75.7641851 C40.5737576,75.7506634 46.5411152,75.438104 49.2222303,69.2108395 C54.6053091,56.7063841 64.1747636,51.5884193 64.1747636,48.4201802 C64.1742424,45.251941 56.9382545,43.4707166 52.6648364,45.8463759 L52.6648364,45.8463759 Z" id="Shape" fill="#B8B8B8"></path>
                                <path d="M38.9835394,69.1567527 L33.6041091,73.3864455 C33.6041091,73.3864455 34.476097,76.1453931 38.9835394,76.1453931 C43.4909818,76.1453931 44.3634909,73.3864455 44.3634909,73.3864455 L38.9835394,69.1567527 L38.9835394,69.1567527 Z" id="Shape" fill="#525759"></path>
                                <path d="M24.6350909,50.1597993 C30.9876242,53.7149672 30.330897,60.3177191 31.0970788,65.5235749 C31.5328121,68.4827477 32.0576727,71.7061138 33.7901818,73.3198771 C35.1057212,74.5451515 37.4704606,74.5389107 38.9835394,74.5389107 C40.4966182,74.5389107 42.8613576,74.5451515 44.1774182,73.3198771 C45.9099273,71.7066339 46.4342667,68.4827477 46.87,65.5235749 C47.6372242,60.3177191 46.9799758,53.7149672 53.3325091,50.1597993 C59.6855636,46.6051515 18.2815152,46.6051515 24.6350909,50.1597993 L24.6350909,50.1597993 Z" id="Shape" fill="#676C70"></path>
                                <g transform="translate(19.806061, 36.404586)" id="Shape" fill="#838C8F">
                                    <path d="M38.1454303,17.4102334 C38.1454303,17.4102334 39.0841333,6.76761261 35.5633455,2.62841114 C32.0420364,-1.51027027 26.7605939,0.736412776 26.2909818,3.92961507 C25.8218909,7.1222973 26.5661818,13.6668018 28.8730667,14.9269206 C31.1794303,16.1875594 38.1454303,17.4102334 38.1454303,17.4102334 L38.1454303,17.4102334 Z"></path>
                                    <path d="M0.210048485,17.4102334 C0.210048485,17.4102334 -0.729175758,6.76761261 2.79213333,2.62841114 C6.31344242,-1.51027027 11.5948848,0.736412776 12.0639758,3.92961507 C12.5335879,7.1222973 11.7887758,13.6668018 9.48189091,14.9269206 C7.17552727,16.1875594 0.210048485,17.4102334 0.210048485,17.4102334 L0.210048485,17.4102334 Z"></path>
                                </g>
                                <g transform="translate(23.454545, 39.004914)">
                                    <g transform="translate(21.369697, 0.000000)">
                                        <path d="M0.386739394,7.20290745 C0.386739394,7.20290745 6.45364848,6.1554955 9.49179394,1.82282965 C9.49179394,1.82282965 6.59333333,-1.35477068 2.98185455,1.32408681 C0.557175758,3.12299345 0.386739394,7.20290745 0.386739394,7.20290745 L0.386739394,7.20290745 Z" id="Shape" fill="#263138"></path>
                                        <g transform="translate(2.606061, 1.040131)" id="Oval">
                                            <ellipse fill="#08AFC9" cx="2.11507879" cy="1.88575758" rx="1.78410909" ry="1.79734644"></ellipse>
                                            <ellipse fill="#FFFFFF" cx="1.66370909" cy="1.61324324" rx="0.671321212" ry="0.676085176"></ellipse>
                                        </g>
                                    </g>
                                    <g>
                                        <path d="M9.30207273,7.20290745 C9.30207273,7.20290745 3.23516364,6.1554955 0.197018182,1.82282965 C0.197018182,1.82282965 3.09495758,-1.35477068 6.70643636,1.32408681 C9.13163636,3.12299345 9.30207273,7.20290745 9.30207273,7.20290745 L9.30207273,7.20290745 Z" id="Shape" fill="#263138"></path>
                                        <g transform="translate(3.127273, 1.040131)" id="Oval">
                                            <ellipse fill="#08AFC9" cx="1.8404" cy="1.88575758" rx="1.78410909" ry="1.79734644"></ellipse>
                                            <ellipse fill="#FFFFFF" cx="1.3890303" cy="1.61324324" rx="0.671321212" ry="0.676085176"></ellipse>
                                        </g>
                                    </g>
                                </g>
                                <path d="M38.9835394,68.0609746 C36.6636242,68.0609746 34.8513697,68.5586773 33.9684364,69.6955405 C33.9684364,69.6955405 36.6516364,73.7333292 38.9835394,73.7333292 C41.3154424,73.7333292 43.9991636,69.6955405 43.9991636,69.6955405 C43.1162303,68.5586773 41.3034545,68.0609746 38.9835394,68.0609746 L38.9835394,68.0609746 Z" id="Shape" fill="#263138"></path>
                                <path d="M38.9835394,68.9123219 C41.0782909,68.9123219 42.8186182,69.1614333 43.9887394,69.7111425 C43.9955152,69.7012613 43.9996848,69.6950205 43.9996848,69.6950205 C43.1167515,68.5581572 41.3039758,68.0604545 38.9840606,68.0604545 C36.6641455,68.0604545 34.8518909,68.5581572 33.9689576,69.6950205 C33.9689576,69.6950205 33.9731273,69.7012613 33.979903,69.7111425 C35.1484606,69.1614333 36.8893091,68.9123219 38.9835394,68.9123219 L38.9835394,68.9123219 Z" id="Shape" fill="#3C454A" opacity="0.8"></path>
                            </g>
                            <path d="M38.9835394,14.613321 C36.0407758,14.613321 30.5909818,12.8071335 25.9548,10.7258313 C25.431503,9.32321458 24.8175152,8.01472973 24.1378545,6.98239967 C21.4056606,2.83903767 17.5361818,-0.389529075 16.6016485,0.0847706798 C13.1892727,1.81710893 10.7453091,19.4166462 12.9182424,29.4611916 L12.8051394,29.8429197 C12.8051394,29.8429197 1.63295758,35.8023505 0.866254545,49.4868346 C0.866254545,49.4868346 3.16636364,45.7345618 8.31437576,44.410475 C8.31437576,44.410475 -1.54330909,50.0386241 0.209006061,59.9713554 C1.77003636,57.9961466 4.28436364,56.2658886 7.1765697,54.9444021 C4.70498182,58.1667281 2.14791515,63.3663432 2.33346667,70.9925839 C2.33346667,70.9925839 4.76127273,67.1565807 9.66066667,63.6378174 C8.17469091,66.8024161 6.99831515,71.0997174 7.11715152,76.7169451 C7.11715152,76.7169451 13.3117576,65.4356839 25.9386424,63.8214005 C26.942497,65.4481654 27.8963152,67.2366708 28.7458909,69.2097993 C30.2688727,72.747285 32.852,74.3750901 35.0775758,75.1239844 C35.8937939,75.6747338 37.1269818,76.144353 38.9835394,76.144353 L38.9835394,14.613321 L38.9835394,14.613321 Z" id="Shape" fill="#FFFFFF" opacity="0.12"></path>
                        </g>
                    </g>
                </g>
            </g>
        </g>
    </g>
</svg>