<?xml version="1.0" encoding="UTF-8" standalone="no"?>
<svg width="108px" height="110px" viewBox="0 0 108 110" version="1.1" xmlns="http://www.w3.org/2000/svg" xmlns:xlink="http://www.w3.org/1999/xlink">
    <!-- Generator: Sketch 39 (31667) - http://www.bohemiancoding.com/sketch -->
    <title>Group 3 Copy 3</title>
    <desc>Created with Sketch.</desc>
    <defs>
        <rect id="path-1" x="0" y="0" width="100" height="100" rx="50"></rect>
        <filter x="-50%" y="-50%" width="200%" height="200%" filterUnits="objectBoundingBox" id="filter-2">
            <feOffset dx="3" dy="6" in="SourceAlpha" result="shadowOffsetOuter1"></feOffset>
            <feGaussianBlur stdDeviation="2" in="shadowOffsetOuter1" result="shadowBlurOuter1"></feGaussianBlur>
            <feComposite in="shadowBlurOuter1" in2="SourceAlpha" operator="out" result="shadowBlurOuter1"></feComposite>
            <feColorMatrix values="0 0 0 0 0   0 0 0 0 0   0 0 0 0 0  0 0 0 0.5 0" type="matrix" in="shadowBlurOuter1"></feColorMatrix>
        </filter>
        <mask id="mask-3" maskContentUnits="userSpaceOnUse" maskUnits="objectBoundingBox" x="0" y="0" width="100" height="100" fill="white">
            <use xlink:href="#path-1"></use>
        </mask>
    </defs>
    <g id="Page-1" stroke="none" stroke-width="1" fill="none" fill-rule="evenodd">
        <g id="Desktop-HD-Copy-4" transform="translate(-334.000000, -280.000000)">
            <g id="Group-3-Copy-3" transform="translate(335.000000, 280.000000)">
                <g id="Rectangle-2">
                    <use fill="black" fill-opacity="1" filter="url(#filter-2)" xlink:href="#path-1"></use>
                    <use stroke="#FFFFFF" mask="url(#mask-3)" stroke-width="2" fill="#13D1BA" fill-rule="evenodd" xlink:href="#path-1"></use>
                </g>
                <g id="bear" transform="translate(7.000000, 15.000000)">
                    <g id="Capa_1" transform="translate(0.000000, 0.000000)">
                        <g id="Group">
                            <g>
                                <ellipse id="Oval" fill="#BF9A65" cx="43.4672172" cy="76.5319615" rx="12.1376348" ry="6.35298792"></ellipse>
                                <g id="Oval">
                                    <g transform="translate(62.452898, 0.000000)">
                                        <ellipse fill="#8C593C" cx="12.2464977" cy="12.7094458" rx="12.2356114" ry="12.4705943"></ellipse>
                                        <ellipse fill="#9C6443" cx="12.2464977" cy="12.7094458" rx="7.23193103" ry="7.37085399"></ellipse>
                                    </g>
                                    <g>
                                        <ellipse fill="#8C593C" cx="12.2356114" cy="12.7094458" rx="12.2356114" ry="12.4705943"></ellipse>
                                        <ellipse fill="#9C6443" cx="12.2356114" cy="12.7094458" rx="7.23193103" ry="7.37085399"></ellipse>
                                    </g>
                                </g>
                                <path d="M80.6496102,20.4006963 C76.1426882,14.12347 63.1857171,1.7581323 43.4677902,1.7581323 C23.7498632,1.7581323 10.7928922,14.12347 6.28597015,20.4006963 C1.77904816,26.6779226 3.48189232,50.4508786 10.5373509,56.1833152 C19.854865,63.7525374 43.4677902,78.7498685 43.4677902,78.7498685 C43.4677902,78.7498685 67.0807153,63.7531157 76.3982294,56.1833152 C83.453688,50.4508786 85.1565321,26.6779226 80.6496102,20.4006963 L80.6496102,20.4006963 Z" id="Shape" fill="#89583A"></path>
                                <path d="M53.9598771,40.748186 C51.8233004,37.4349162 46.5526195,32.6526807 43.4672172,32.6526807 C40.3818148,32.6526807 35.111134,37.4343379 32.9751303,40.7476076 C30.8391266,44.0608773 26.0617663,65.9519378 26.5436277,70.9273365 C27.0077272,75.725187 34.8498632,80.9313406 43.4677902,80.9313406 C52.0851442,80.9313406 59.9278531,75.725187 60.3919526,70.9273365 C60.872668,65.9525161 56.0958808,44.0614557 53.9598771,40.748186 L53.9598771,40.748186 Z" id="Shape" fill="#DDB275"></path>
                                <g transform="translate(32.085893, 66.508294)" id="Shape">
                                    <path d="M11.3813245,0.518764694 C6.22752799,0.518764694 2.20189439,1.41575916 0.240071233,3.46421462 C0.240071233,3.46421462 6.20174469,10.7408003 11.3813245,10.7408003 C16.5614773,10.7408003 22.5231507,3.46421462 22.5231507,3.46421462 C20.5613276,1.41575916 16.535121,0.518764694 11.3813245,0.518764694 L11.3813245,0.518764694 Z" fill="#263138"></path>
                                    <path d="M11.3813245,2.05366046 C16.0337789,2.05366046 19.9012749,2.50244686 22.4990863,3.49313127 C22.5134104,3.47578128 22.5231507,3.46479296 22.5231507,3.46479296 C20.5607546,1.4163375 16.535121,0.519343027 11.3813245,0.519343027 C6.22752799,0.519343027 2.20189439,1.4163375 0.240071233,3.46479296 C0.240071233,3.46479296 0.249238631,3.47635962 0.264135652,3.49313127 C2.86137407,2.50244686 6.72944303,2.05366046 11.3813245,2.05366046 L11.3813245,2.05366046 Z" fill="#3C454A" opacity="0.8"></path>
                                </g>
                                <g transform="translate(15.469984, 21.976654)" id="Shape" fill="#C9A474">
                                    <path d="M43.530816,37.3926979 C36.6970938,33.3813803 32.034899,16.5212386 34.1903835,9.62635265 C35.156398,6.53689781 42.6255355,-0.493896375 46.5199607,0.124919926 C54.2383368,1.35098587 57.6417332,12.8771624 54.6394104,18.2776359 C54.112858,19.222632 44.1181024,23.9291059 43.530816,37.3926979 L43.530816,37.3926979 Z"></path>
                                    <path d="M12.4642234,37.3926979 C19.2979456,33.3813803 23.9595674,16.5218169 21.8046559,9.62635265 C20.8386414,6.53689781 13.3695039,-0.493896375 9.4750787,0.124919926 C1.75670262,1.35098587 -1.64669385,12.8771624 1.35562897,18.2776359 C1.88160842,19.222632 11.876937,23.9291059 12.4642234,37.3926979 L12.4642234,37.3926979 Z"></path>
                                </g>
                                <g transform="translate(21.772570, 29.494983)">
                                    <path d="M32.5752025,9.50374606 L43.1417746,2.7170084 C43.1417746,2.7170084 39.9784493,-1.01613107 35.9001032,0.935164448 C31.8211841,2.88645996 32.5752025,9.50374606 32.5752025,9.50374606 L32.5752025,9.50374606 Z" id="Shape" fill="#263138"></path>
                                    <g>
                                        <g transform="translate(34.377742, 1.156666)" id="Oval">
                                            <ellipse fill="#9E4924" cx="2.47347855" cy="2.4804702" rx="2.14574407" ry="2.18725538"></ellipse>
                                            <ellipse fill="#FFFFFF" cx="1.95437464" cy="1.95129552" rx="0.874340576" ry="0.891211141"></ellipse>
                                        </g>
                                        <g>
                                            <path d="M10.8146647,9.50374606 L0.248092706,2.7170084 C0.248092706,2.7170084 3.41141795,-1.01613107 7.48976409,0.935164448 C11.5681102,2.88645996 10.8146647,9.50374606 10.8146647,9.50374606 L10.8146647,9.50374606 Z" id="Shape" fill="#263138"></path>
                                            <g transform="translate(4.010737, 1.156666)" id="Oval">
                                                <ellipse fill="#9E4924" cx="2.52733701" cy="2.4804702" rx="2.14574407" ry="2.18725538"></ellipse>
                                                <ellipse fill="#FFFFFF" cx="2.0082331" cy="1.95129552" rx="0.874340576" ry="0.891211141"></ellipse>
                                            </g>
                                        </g>
                                    </g>
                                </g>
                            </g>
                            <path d="M43.4672172,1.75871063 C35.4675166,1.75871063 28.5810819,3.79444276 22.9196407,6.63290109 C20.8271821,2.81821667 16.8279048,0.238273193 12.2356114,0.238273193 C5.47809321,0.238273193 0,5.8214999 0,12.7094458 C0,16.883275 2.01338977,20.5753529 5.10280286,22.8389482 C2.18527848,31.3491182 4.20153305,51.0361516 10.5373509,56.1838935 C14.3693233,59.2964817 20.6186238,63.6657874 26.6496257,67.7314684 C26.5172714,69.0888159 26.4725804,70.1940103 26.5436277,70.9279148 C26.7630723,73.1949802 28.6309296,75.5522654 31.4481856,77.409871 C32.2646569,80.5027958 37.3330821,82.8849494 43.4677902,82.8849494 L43.4677902,82.8849494 L43.4677902,1.75871063 L43.4672172,1.75871063 Z" id="Shape" fill="#FFFFFF" opacity="0.12"></path>
                        </g>
                    </g>
                </g>
            </g>
        </g>
    </g>
</svg>