<?xml version="1.0" encoding="UTF-8" standalone="no"?>
<svg width="99px" height="95px" viewBox="0 0 99 95" version="1.1" xmlns="http://www.w3.org/2000/svg" xmlns:xlink="http://www.w3.org/1999/xlink">
    <!-- Generator: Sketch 39 (31667) - http://www.bohemiancoding.com/sketch -->
    <title>bear</title>
    <desc>Created with Sketch.</desc>
    <defs></defs>
    <g id="Page-1" stroke="none" stroke-width="1" fill="none" fill-rule="evenodd">
        <g id="Desktop-HD-Copy-3" transform="translate(-913.000000, -425.000000)">
            <g id="bear" transform="translate(913.022178, 425.250000)">
                <g id="Capa_1" transform="translate(0.000000, 0.000000)">
                    <g id="Group">
                        <g>
                            <ellipse id="Oval" fill="#BF9A65" cx="49.2461818" cy="86.892918" rx="13.7513329" ry="7.21306037"></ellipse>
                            <g id="Oval">
                                <g transform="translate(70.756008, 0.000000)">
                                    <ellipse fill="#8C593C" cx="13.874669" cy="14.4300605" rx="13.8623354" ry="14.1588731"></ellipse>
                                    <ellipse fill="#9C6443" cx="13.874669" cy="14.4300605" rx="8.19341594" ry="8.36872594"></ellipse>
                                </g>
                                <g>
                                    <ellipse fill="#8C593C" cx="13.8623354" cy="14.4300605" rx="13.8623354" ry="14.1588731"></ellipse>
                                    <ellipse fill="#9C6443" cx="13.8623354" cy="14.4300605" rx="8.19341594" ry="8.36872594"></ellipse>
                                </g>
                            </g>
                            <path d="M91.3719723,23.1625584 C86.2658552,16.0355164 71.5862555,1.99614961 49.246831,1.99614961 C26.9074065,1.99614961 12.2278067,16.0355164 7.12168961,23.1625584 C2.01557253,30.2896005 3.94480975,57.2809578 11.9382913,63.7894561 C22.4945684,72.3834055 49.246831,89.411087 49.246831,89.411087 C49.246831,89.411087 75.9990935,72.3840622 86.5553706,63.7894561 C94.5488522,57.2809578 96.4780894,30.2896005 91.3719723,23.1625584 L91.3719723,23.1625584 Z" id="Shape" fill="#89583A"></path>
                            <path d="M61.1338404,46.2647071 C58.7132059,42.5028844 52.7417883,37.0732261 49.2461818,37.0732261 C45.7505754,37.0732261 39.7791577,42.5022277 37.3591724,46.2640505 C34.9391871,50.0258732 29.526677,74.8805624 30.0726018,80.5295345 C30.5984034,85.9769218 39.4831509,91.8878885 49.246831,91.8878885 C59.0098618,91.8878885 67.8952586,85.9769218 68.4210601,80.5295345 C68.9656866,74.8812191 63.5538257,50.0265298 61.1338404,46.2647071 L61.1338404,46.2647071 Z" id="Shape" fill="#DDB275"></path>
                            <g transform="translate(36.351711, 75.512239)" id="Shape">
                                <path d="M12.8944711,0.588995462 C7.05547757,0.588995462 2.49463615,1.60742574 0.271988693,3.9332027 C0.271988693,3.9332027 7.02626637,12.1948982 12.8944711,12.1948982 C18.763325,12.1948982 25.5176027,3.9332027 25.5176027,3.9332027 C23.2949552,1.60742574 18.7334646,0.588995462 12.8944711,0.588995462 L12.8944711,0.588995462 Z" fill="#263138"></path>
                                <path d="M12.8944711,2.33168661 C18.1654692,2.33168661 22.5471486,2.84123006 25.4903389,3.9660341 C25.5065673,3.94633526 25.5176027,3.93385932 25.5176027,3.93385932 C23.2943061,1.60808237 18.7334646,0.58965209 12.8944711,0.58965209 C7.05547757,0.58965209 2.49463615,1.60808237 0.271988693,3.93385932 C0.271988693,3.93385932 0.282374896,3.94699189 0.299252476,3.9660341 C3.24179363,2.84123006 7.62412219,2.33168661 12.8944711,2.33168661 L12.8944711,2.33168661 Z" fill="#3C454A" opacity="0.8"></path>
                            </g>
                            <g transform="translate(17.526718, 24.951870)" id="Shape" fill="#C9A474">
                                <path d="M49.3182361,42.4549505 C41.5759709,37.9005776 36.2939375,18.7578967 38.7359935,10.9295758 C39.8304396,7.42186812 48.2925986,-0.560760451 52.7047874,0.141831683 C61.4493213,1.53388339 65.3051992,14.6204827 61.9037177,20.7520765 C61.3071601,21.8250069 49.9836022,27.1686469 49.3182361,42.4549505 L49.3182361,42.4549505 Z"></path>
                                <path d="M14.1213413,42.4549505 C21.8636066,37.9005776 27.1449908,18.7585534 24.703584,10.9295758 C23.6091378,7.42186812 15.1469789,-0.560760451 10.73479,0.141831683 C1.99025616,1.53388339 -1.86562173,14.6204827 1.53585978,20.7520765 C2.13176818,21.8250069 13.4559752,27.1686469 14.1213413,42.4549505 L14.1213413,42.4549505 Z"></path>
                            </g>
                            <g transform="translate(24.667232, 33.488036)">
                                <path d="M36.9060743,10.7903706 L48.8774716,3.08483911 C48.8774716,3.08483911 45.2935824,-1.15369568 40.6730203,1.06176774 C36.0518091,3.27723116 36.9060743,10.7903706 36.9060743,10.7903706 L36.9060743,10.7903706 Z" id="Shape" fill="#263138"></path>
                                <g>
                                    <g transform="translate(38.948261, 1.313256)" id="Oval">
                                        <ellipse fill="#9E4924" cx="2.80232741" cy="2.81627819" rx="2.43102065" ry="2.48336771"></ellipse>
                                        <ellipse fill="#FFFFFF" cx="2.21420867" cy="2.21546342" rx="0.990584117" ry="1.011864"></ellipse>
                                    </g>
                                    <g>
                                        <path d="M12.2524739,10.7903706 L0.28107662,3.08483911 C0.28107662,3.08483911 3.86496582,-1.15369568 8.4855279,1.06176774 C13.10609,3.27723116 12.2524739,10.7903706 12.2524739,10.7903706 L12.2524739,10.7903706 Z" id="Shape" fill="#263138"></path>
                                        <g transform="translate(4.543964, 1.313256)" id="Oval">
                                            <ellipse fill="#9E4924" cx="2.86334636" cy="2.81627819" rx="2.43102065" ry="2.48336771"></ellipse>
                                            <ellipse fill="#FFFFFF" cx="2.27522761" cy="2.21546342" rx="0.990584117" ry="1.011864"></ellipse>
                                        </g>
                                    </g>
                                </g>
                            </g>
                        </g>
                        <path d="M49.2461818,1.99680624 C40.1829214,1.99680624 32.3809355,4.30813738 25.9668059,7.5308684 C23.5961551,3.19974904 19.065174,0.270530803 13.8623354,0.270530803 C6.20640547,0.270530803 0,6.60961909 0,14.4300605 C0,19.168946 2.28106985,23.3608601 5.78122028,25.9309028 C2.47581116,35.5931862 4.76012669,57.9454655 11.9382913,63.7901128 C16.2797242,67.3240855 23.359869,72.2849113 30.1926923,76.9010073 C30.0427415,78.4421136 29.9921088,79.69693 30.0726018,80.5301911 C30.3212216,83.1041735 32.4374104,85.7805899 35.6292205,87.8896796 C36.5542417,91.401327 42.2965137,94.1059784 49.246831,94.1059784 L49.246831,94.1059784 L49.246831,1.99680624 L49.2461818,1.99680624 Z" id="Shape" fill="#FFFFFF" opacity="0.12"></path>
                    </g>
                </g>
            </g>
        </g>
    </g>
</svg>