<?xml version="1.0" encoding="UTF-8" standalone="no"?>
<svg width="740px" height="697px" viewBox="0 0 740 697" version="1.1" xmlns="http://www.w3.org/2000/svg" xmlns:xlink="http://www.w3.org/1999/xlink">
    <!-- Generator: Sketch 39 (31667) - http://www.bohemiancoding.com/sketch -->
    <title>15</title>
    <desc>Created with Sketch.</desc>
    <defs></defs>
    <g id="Page-1" stroke="none" stroke-width="1" fill="none" fill-rule="evenodd">
        <g id="Desktop-HD" transform="translate(-375.000000, -199.000000)">
            <g id="15" transform="translate(375.000000, 199.000000)">
                <g id="Layer_1">
                    <g id="Group">
                        <polygon id="Shape" fill="#21333B" points="191.918532 207.055709 177.50743 194.669558 63.7323499 392.432045 154.871424 392.432045 198.122597 205.394093"></polygon>
                        <polygon id="Shape" fill="#2F4954" points="277.878048 211.771067 269.604358 217.291452 256.005439 231.92013 222.516959 198.872751 198.122597 205.394093 154.871424 392.432045 381.820349 392.432045"></polygon>
                        <g transform="translate(10.994023, 497.668868)" id="Shape">
                            <polygon fill="#DBCF63" points="276.066095 4.88791304 213.895584 4.88791304 244.982557 35.9897518"></polygon>
                            <polygon fill="#DBCF63" points="342.467244 4.88791304 280.300168 4.88791304 311.383706 35.9897518"></polygon>
                            <polygon fill="#DBCF63" points="143.259675 4.88791304 81.0925989 4.88791304 112.176137 35.9897518"></polygon>
                            <polygon fill="#DBCF63" points="76.8585259 4.88791304 14.69145 4.88791304 45.774988 35.9897518"></polygon>
                            <polygon fill="#DBCF63" points="209.660824 4.88791304 147.493748 4.88791304 178.581409 35.9897518"></polygon>
                            <polygon fill="#DBCF63" points="643.393574 35.9897518 674.477799 4.88791304 612.310723 4.88791304 624.793748 17.3799338"></polygon>
                            <polygon fill="#DBCF63" points="576.992425 35.9897518 608.075963 4.88791304 545.908887 4.88791304 547.729772 6.71039651"></polygon>
                            <polygon fill="#DBCF63" points="408.868393 4.88791304 346.701317 4.88791304 377.784855 35.9897518"></polygon>
                            <polygon fill="#DBCF63" points="475.270229 4.88791304 413.103153 4.88791304 444.190127 35.9897518"></polygon>
                            <polygon fill="#DBCF63" points="541.674814 4.88791304 479.504302 4.88791304 510.591276 35.9897518"></polygon>
                            <polygon fill="#4D3523" points="610.190938 5.25158477 608.498545 6.9503236 578.788573 36.6744721 611.464183 42.8500168 599.470391 68.7456439 616.461653 76.6233647 644.036724 75.3701066 626.029202 21.0957102"></polygon>
                            <path d="M577.283079,38.1779694 L576.992425,38.4728941 L576.561596,38.0411629 L576.561596,38.0411629 L576.561596,38.0411629 L575.19765,37.784049 L575.748726,37.229948 L547.228857,8.69099812 L543.790476,5.2508973 L510.591963,38.4722067 L477.389327,5.2508973 L444.191501,38.4722067 L410.988865,5.2508973 L377.786229,38.4722067 L344.584281,5.2508973 L311.385768,38.4722067 L278.183132,5.2508973 L244.984619,38.4722067 L211.781983,5.2508973 L178.584157,38.4722067 L145.381521,5.2508973 L112.178885,38.4722067 L78.9762495,5.2508973 L45.7777365,38.4722067 L12.2143593,4.88722557 L10.3852287,4.88722557 C7.57763018,4.88722557 4.85660955,4.33587448 2.26889144,3.24417182 L2.26889144,26.8642725 L17.398041,44.3858252 L26.4433732,64.7466298 L72.0671934,51.2529649 L94.5781421,36.1822435 L112.954651,47.8547998 L128.888426,117.205417 C132.019661,118.373429 143.050788,124.251299 150.234008,128.138256 L183.449012,79.5691745 L212.682806,91.7793325 L210.174107,157.49392 L232.45693,182.735763 L270.960059,129.231333 L270.955936,129.224459 L307.655358,79.2955614 L332.472303,105.091505 L312.449439,119.545566 L327.416427,157.85003 L310.836067,192.124544 L371.539563,158.575998 L371.950465,158.77674 L447.71165,196.249365 L442.622791,148.28732 L433.084102,99.3896275 L450.593458,88.1783637 L471.81467,94.6426458 L469.036618,144.025692 L491.547567,125.67505 L546.564405,142.878304 L519.789837,52.5357843 L544.291391,47.4031319 L580.463787,123.859441 L577.212992,75.1301795 L597.675617,68.4520941 L608.925938,44.1555227 L577.283079,38.1779694 L577.283079,38.1779694 Z" fill="#755336"></path>
                            <path d="M676.956951,4.88791304 L643.392886,38.4728941 L628.795573,23.8634652 L645.595127,74.4887698 L686.901731,28.9046841 L686.901731,3.24554676 C684.313326,4.33724942 681.589557,4.88860051 678.785394,4.88860051 L676.956951,4.88860051 L676.956951,4.88791304 Z" fill="#755336"></path>
                            <path d="M94.6001301,38.2776526 L73.5823071,52.3501673 L113.07215,127.932015 C120.34607,122.04177 125.053573,118.506798 127.131443,117.390347 L111.405181,48.9540646 L94.6001301,38.2776526 L94.6001301,38.2776526 Z" fill="#4D3523"></path>
                            <polygon fill="#4D3523" points="310.317973 118.920656 329.801443 104.855015 307.834011 82.0179433 273.042739 129.348891 308.779497 192.347284 325.500719 157.775783"></polygon>
                            <polygon fill="#4D3523" points="184.09285 81.7436427 151.562223 129.300768 177.607063 169.455902 208.424683 157.207245 210.879786 92.93222"></polygon>
                            <polygon fill="#4D3523" points="450.855253 90.1005303 435.032793 100.226966 444.19425 147.213491 467.210923 145.15933 469.981417 95.9213404"></polygon>
                            <polygon fill="#4D3523" points="522.007881 53.8646642 548.422395 142.980737 580.472033 127.989762 543.292309 49.4077949"></polygon>
                            <path d="M688.656652,0.457167675 L687.38272,1.08964025 C684.670632,2.4467064 681.780578,3.13555153 678.786081,3.13555153 L678.711872,3.13555153 L676.231345,3.13555153 L612.31141,3.13555153 L610.556489,3.13555153 L610.191625,2.77256727 L609.830883,3.13555153 L608.07665,3.13555153 L545.909574,3.13555153 L544.15534,3.13555153 L543.790476,2.77256727 L543.425612,3.13555153 L541.675501,3.13555153 L479.504302,3.13555153 L477.753504,3.13555153 L477.38864,2.77256727 L477.023776,3.13555153 L475.270229,3.13555153 L413.103153,3.13555153 L411.348232,3.13555153 L410.987491,2.77256727 L410.622627,3.13555153 L408.868393,3.13555153 L346.701317,3.13555153 L344.947084,3.13555153 L344.582219,2.77256727 L344.221478,3.13555153 L342.467244,3.13555153 L280.300168,3.13555153 L278.545935,3.13555153 L278.18107,2.77256727 L277.820329,3.13555153 L276.066095,3.13555153 L213.895584,3.13555153 L212.145473,3.13555153 L211.780609,2.77256727 L211.419867,3.13555153 L209.661511,3.13555153 L147.494435,3.13555153 L145.740201,3.13555153 L145.37946,2.77256727 L145.014596,3.13555153 L143.259675,3.13555153 L81.0925989,3.13555153 L79.3383652,3.13555153 L78.973501,2.77256727 L78.6127597,3.13555153 L76.8585259,3.13555153 L12.9372163,3.13555153 L10.457377,3.13555153 L10.3831674,3.13555153 C7.38867041,3.13555153 4.4938068,2.4467064 1.78171881,1.08964025 L0.512596311,0.457167675 L0.512596311,27.5201191 L15.8451353,45.2197266 L25.4621567,66.8661004 L71.9984807,53.107072 L112.512829,130.650959 L113.346313,129.968301 C119.787436,124.732529 127.08197,119.136521 128.118844,118.769412 C129.640829,119.149583 142.145156,125.756859 149.895942,129.955927 L176.91925,171.618683 L209.034852,158.853736 L232.595729,185.544079 L271.911042,130.910136 L307.851189,194.263951 L306.847298,196.335986 L308.502585,195.421651 L308.900431,196.121495 L309.509913,194.864112 L371.581478,160.557975 L449.788833,199.237798 L444.447799,148.954166 L467.112664,146.929566 L467.058381,147.902336 L468.390032,146.817508 L468.879266,146.772135 L468.89988,146.398839 L491.917241,127.637778 L547.161518,144.904966 L547.31887,145.435693 L547.933161,145.149018 L549.177547,145.535376 L548.924685,144.682913 L581.223749,129.575069 L582.824067,132.962922 L582.554713,128.952908 L582.811011,128.831913 L582.504553,128.189129 L579.054491,76.376563 L598.251429,70.1137095 L616.11328,78.3977253 L644.613223,77.0990941 L644.875018,77.8979345 L645.641851,77.055096 L646.434108,77.0179726 L646.225909,76.4033743 L688.656652,29.5825297 L688.656652,0.457167675 L688.656652,0.457167675 Z M674.477799,4.88791304 L643.393574,35.9890643 L624.794436,17.3799338 L612.31141,4.88791304 L674.477799,4.88791304 L674.477799,4.88791304 Z M608.075963,4.88791304 L576.992425,35.9890643 L547.729772,6.70970904 L545.909574,4.88791304 L608.075963,4.88791304 L608.075963,4.88791304 Z M541.674814,4.88791304 L510.591276,35.9890643 L479.504302,4.88791304 L541.674814,4.88791304 L541.674814,4.88791304 Z M475.270229,4.88791304 L444.190814,35.9890643 L413.10384,4.88791304 L475.270229,4.88791304 L475.270229,4.88791304 Z M408.868393,4.88791304 L377.784855,35.9890643 L346.702004,4.88791304 L408.868393,4.88791304 L408.868393,4.88791304 Z M342.467244,4.88791304 L311.383706,35.9890643 L280.300168,4.88791304 L342.467244,4.88791304 L342.467244,4.88791304 Z M276.066095,4.88791304 L244.982557,35.9890643 L213.895584,4.88791304 L276.066095,4.88791304 L276.066095,4.88791304 Z M209.660824,4.88791304 L178.582096,35.9890643 L147.494435,4.88791304 L209.660824,4.88791304 L209.660824,4.88791304 Z M143.259675,4.88791304 L112.176137,35.9890643 L81.0925989,4.88791304 L143.259675,4.88791304 L143.259675,4.88791304 Z M76.8585259,4.88791304 L45.774988,35.9890643 L14.69145,4.88791304 L76.8585259,4.88791304 L76.8585259,4.88791304 Z M113.07215,127.932015 L73.5823071,52.3501673 L94.6001301,38.2776526 L111.404494,48.9540646 L127.130756,117.390347 C125.053573,118.506798 120.34607,122.041083 113.07215,127.932015 L113.07215,127.932015 Z M208.424683,157.207245 L177.606376,169.455902 L151.562223,129.300768 L184.09285,81.7436427 L210.879786,92.9315325 L208.424683,157.207245 L208.424683,157.207245 Z M308.779497,192.347284 L273.042739,129.348891 L307.834011,82.0172558 L329.801443,104.855015 L310.317973,118.920656 L325.500719,157.775783 L308.779497,192.347284 L308.779497,192.347284 Z M467.210923,145.15933 L444.19425,147.212804 L435.032793,100.226279 L450.854566,90.0998428 L469.981417,95.9213404 L467.210923,145.15933 L467.210923,145.15933 Z M548.422395,142.980737 L522.008568,53.8639767 L543.292996,49.4077949 L580.47272,127.989762 L548.422395,142.980737 L548.422395,142.980737 Z M597.671494,68.4555314 L577.208869,75.1336169 L580.459665,123.862879 L544.287268,47.4065692 L519.785714,52.5392217 L546.560283,142.881741 L491.543444,125.678487 L469.032496,144.029129 L471.810548,94.6460832 L450.589335,88.181801 L433.07998,99.3930648 L442.618669,148.290757 L447.707527,196.252802 L371.946342,158.780177 L371.53544,158.579436 L310.831944,192.127981 L327.412304,157.853467 L312.445317,119.549003 L332.468181,105.094943 L307.651236,79.2989987 L270.951813,129.227896 L270.955936,129.234771 L232.452807,182.739201 L210.169984,157.497358 L212.678683,91.7827699 L183.444889,79.5726119 L150.229885,128.141693 C143.046666,124.254737 132.014851,118.376867 128.884303,117.208855 L112.950528,47.8582371 L94.5740193,36.1856808 L72.0630706,51.2564023 L26.4392505,64.7500671 L17.3939182,44.3892626 L2.26476869,26.8677099 L2.26476869,3.24760917 C4.85248679,4.33931183 7.57350742,4.89066292 10.381106,4.89066292 L12.2102365,4.89066292 L45.7736137,38.475644 L78.9721268,5.25433465 L112.174763,38.475644 L145.377398,5.25433465 L178.580034,38.475644 L211.77786,5.25433465 L244.980496,38.475644 L278.179009,5.25433465 L311.381645,38.475644 L344.580158,5.25433465 L377.782107,38.475644 L410.984743,5.25433465 L444.187378,38.475644 L477.385204,5.25433465 L510.58784,38.475644 L543.786353,5.25433465 L547.224734,8.69443547 L575.744603,37.2333854 L575.193528,37.7874864 L576.557474,38.0446002 L576.557474,38.0446002 L576.557474,38.0446002 L576.988302,38.4763315 L577.278956,38.1814068 L608.917692,44.1623974 L597.671494,68.4555314 L597.671494,68.4555314 Z M616.461653,76.6233647 L599.469704,68.7456439 L611.463496,42.8500168 L578.787886,36.6744721 L608.497858,6.95101107 L610.190251,5.25158477 L626.028515,21.0957102 L644.036037,75.3701066 L616.461653,76.6233647 L616.461653,76.6233647 Z M686.902419,28.9046841 L645.595814,74.4887698 L628.79626,23.8634652 L643.393574,38.4728941 L676.957638,4.88791304 L678.786768,4.88791304 C681.590244,4.88791304 684.3147,4.33656195 686.903106,3.24485929 L686.903106,28.9046841 L686.902419,28.9046841 Z" fill="#000000"></path>
                        </g>
                        <polygon id="Shape" fill="#7F79B7" points="513.286873 194.091396 510.616012 194.091396 462.906763 194.091396 460.235903 194.091396 346.124818 392.432045 627.39727 392.432045"></polygon>
                        <polygon id="Shape" fill="#645F8F" points="369.067282 369.962769 458.937234 213.750293 470.662359 213.750293 470.662359 369.962769"></polygon>
                        <path d="M486.760357,171.86136 C475.081957,171.86136 465.577624,180.78266 464.73452,192.338347 L508.782759,192.338347 C507.941029,180.781973 498.438758,171.86136 486.760357,171.86136 L486.760357,171.86136 Z" id="Shape" fill="#FF7642"></path>
                        <path d="M514.555995,192.776265 L514.303133,192.338347 L510.517066,192.338347 C509.667091,179.80714 499.406919,170.108998 486.761044,170.108998 C474.116544,170.108998 463.852249,179.807828 463.006397,192.338347 L459.22033,192.338347 L343.089094,394.189219 L630.429559,394.189219 L514.555995,192.776265 L514.555995,192.776265 Z M486.760357,171.86136 C498.438758,171.86136 507.940342,180.78266 508.783446,192.338347 L464.735207,192.338347 C465.577624,180.781973 475.081957,171.86136 486.760357,171.86136 L486.760357,171.86136 Z M460.235903,194.091396 L462.906763,194.091396 L510.616699,194.091396 L513.28756,194.091396 L627.397958,392.432045 L346.124818,392.432045 L460.235903,194.091396 L460.235903,194.091396 Z" id="Shape" fill="#000000"></path>
                        <g transform="translate(60.467125, 112.057641)" id="Shape">
                            <polygon fill="#FFFFFF" points="162.567927 84.8592576 195.480596 117.342224 208.075623 103.829997 216.536211 98.1886171 162.306819 3.92889212 117.931508 81.0644222 131.895291 93.0621519"></polygon>
                            <path d="M218.875189,98.7365308 L162.306819,0.414544523 L115.683917,81.4480305 L0.228813098,282.131578 L324.384138,282.131578 L218.875189,98.7365308 L218.875189,98.7365308 Z M162.306819,3.92889212 L216.536211,98.1886171 L208.075623,103.829997 L195.480596,117.342224 L162.567927,84.8592576 L131.895291,93.0621519 L117.931508,81.0644222 L162.306819,3.92889212 L162.306819,3.92889212 Z M117.040305,82.6119176 L131.452094,94.9980679 L162.050521,86.8151103 L195.539001,119.86249 L209.13792,105.233812 L217.41161,99.713426 L321.353911,280.374404 L3.26522476,280.374404 L117.040305,82.6119176 L117.040305,82.6119176 Z" fill="#000000"></path>
                        </g>
                        <g transform="translate(129.866894, 0.000000)" id="Shape">
                            <g transform="translate(366.925509, 65.997138)">
                                <path d="M87.1798519,19.3302867 C85.1679457,18.6311296 83.0241113,18.2351467 80.7806435,18.2351467 C77.9441857,18.2351467 75.2032384,18.8325583 72.6354469,20.0150071 C72.5103899,20.0686297 72.369529,20.0727546 72.2492819,20.0253191 C72.124912,19.9716964 72.0294014,19.8720133 71.9799283,19.7455187 C71.4529023,18.2825822 70.8015065,16.8883926 70.0546001,15.5629501 C67.0319309,10.1958704 62.3244278,6.02773861 56.7676365,3.61746813 C53.3292558,2.11947059 49.5713614,1.28763166 45.677416,1.28763166 C30.2541764,1.28763166 17.7086221,13.8415248 17.7086221,29.2704182 C17.7086221,29.4759718 17.7168677,29.6815254 17.7251132,29.8863915 L17.7326716,30.1125692 C17.7374815,30.255563 17.6749529,30.3923695 17.5677612,30.4879279 C17.4550725,30.5814238 17.3107759,30.6185472 17.1692279,30.5937983 C16.3735355,30.4549293 15.577156,30.3820575 14.7972675,30.3820575 C7.39073179,30.3820575 1.36875583,36.4070462 1.36875583,43.8159124 C1.36875583,46.4172996 2.11978501,48.8385696 3.4095213,50.9002927 C5.78148171,54.7054402 9.99081817,57.2552671 14.7972675,57.2552671 L80.7792693,57.2552671 C91.5327978,57.2552671 100.27923,48.5003343 100.27923,37.7434883 C100.279917,29.22917 94.7938998,21.9880465 87.1798519,19.3302867 L87.1798519,19.3302867 Z" fill="#FFFFFF"></path>
                                <path d="M80.7806435,58.1311042 L14.7986417,58.1311042 C9.84308599,58.1311042 5.30599023,55.5998389 2.66398914,51.3629602 C1.24232457,49.0894962 0.491295392,46.4757346 0.491295392,43.8159124 C0.491295392,35.9237547 6.91111755,29.5048455 14.7986417,29.5048455 C15.474087,29.5048455 16.1591521,29.5550309 16.8442171,29.6519642 C16.8352845,29.5151576 16.8311617,29.3927879 16.8311617,29.2704182 C16.8311617,13.3582332 29.7745621,0.411794643 45.6787903,0.411794643 C49.6064049,0.411794643 53.4591227,1.21888464 57.1208194,2.80831572 C62.8858101,5.31620696 67.7541008,9.6898923 70.8186847,15.1360311 C71.5408545,16.4119758 72.1627039,17.7353559 72.6691161,19.0690481 C77.0646638,17.0588852 82.4895269,16.7687728 87.4698192,18.5005102 C95.6569306,21.3617612 101.160126,29.0916759 101.160126,37.7428008 C101.160126,48.9836258 92.0199704,58.1311042 80.7806435,58.1311042 L80.7806435,58.1311042 Z M14.7979546,31.2599569 C7.87653017,31.2599569 2.24415489,36.8924002 2.24415489,43.8159124 C2.24415489,46.1478113 2.90310913,48.4357121 4.15093071,50.4355629 C6.46998239,54.1554641 10.4511929,56.3773677 14.7972675,56.3773677 L80.7792693,56.3773677 C91.0476865,56.3773677 99.4045181,48.0163553 99.4045181,37.7428008 C99.4045181,29.8382686 94.3740655,22.77245 86.8878232,20.1580009 C82.2469713,18.5417584 77.3120293,18.8256836 72.9982497,20.8138474 C72.6416311,20.9712781 72.2726442,20.9733405 71.9283938,20.8427212 C71.5463515,20.6770408 71.2818079,20.3883034 71.1526281,20.0418184 C70.6592713,18.6723778 70.0332992,17.3091244 69.2905155,15.9939939 C66.4087073,10.884028 61.8379423,6.77020641 56.4185762,4.42180825 C52.9760729,2.92381071 49.3631621,2.16415615 45.6767289,2.16415615 C30.7386005,2.16415615 18.5867697,14.3220664 18.5867697,29.2697307 C18.5867697,29.4436607 18.5908925,29.6182781 18.5998251,29.7928955 L18.6080706,30.083008 C18.621126,30.4872404 18.4507187,30.8715363 18.1476959,31.1451494 C17.8824651,31.3651399 17.5705097,31.4771975 17.2516831,31.4771975 L17.0235571,31.4606982 C16.2787121,31.3280165 15.5318056,31.2599569 14.7979546,31.2599569 L14.7979546,31.2599569 Z" fill="#000000"></path>
                            </g>
                            <g transform="translate(160.100456, 72.184370)">
                                <path d="M78.2293431,18.1890862 C75.6828526,16.6120296 72.6966012,15.6908196 69.4870337,15.6908196 C67.0607903,15.6908196 64.7135664,16.2057347 62.515449,17.2176909 C62.4116929,17.2630639 62.2955685,17.2658138 62.1876897,17.2259405 C62.0798108,17.1785051 62.0014784,17.0953212 61.9595637,16.9853259 C61.271063,15.0748463 60.3379453,13.3032356 59.2261748,11.6746187 C57.4430817,9.06016961 55.1700675,6.84857801 52.5569257,5.1354023 C48.73719,2.628886 44.2090269,1.18932343 39.4520506,1.18932343 C26.2516649,1.18932343 15.5139404,11.9296702 15.5139404,25.1332226 C15.5139404,25.3112774 15.5221859,25.4838324 15.5263086,25.6618872 L15.5304314,25.8571287 C15.5345541,25.9794984 15.485081,26.0956809 15.3936932,26.1788648 C15.2981827,26.2572364 15.1738128,26.28886 15.0494429,26.2675484 C14.3733105,26.151366 13.6848098,26.0888062 13.0210457,26.0888062 C6.68436583,26.0888062 1.52885629,31.2462075 1.52885629,37.5826202 C1.52885629,40.2548169 2.44960569,42.7090854 3.98395899,44.6656256 C6.0906886,47.3501967 9.35110347,49.084684 13.0210457,49.084684 L69.4856594,49.084684 C78.6883436,49.084684 86.1745859,41.5933213 86.1745859,32.3880955 C86.1752731,26.3878557 82.989755,21.1328336 78.2293431,18.1890862 L78.2293431,18.1890862 Z" fill="#FFFFFF"></path>
                                <path d="M69.4863465,49.9598335 L13.0217328,49.9598335 C9.21092968,49.9598335 5.66398309,48.2274086 3.29270981,45.2066646 C1.56733537,43.0012603 0.650708721,40.3641246 0.650708721,37.5819328 C0.650708721,30.2294391 7.04991709,24.3268201 14.6433512,25.3188396 L14.6351057,25.1325351 C14.6351057,11.4477536 25.7658666,0.309361585 39.4520506,0.309361585 C44.2626227,0.309361585 48.9611932,1.72417523 53.0379142,4.40324655 C55.7871071,6.2078558 58.1144042,8.486132 59.9517803,11.1768903 C61.0388143,12.7766334 61.93414,14.469185 62.6061497,16.2160468 C67.7238673,14.0237044 73.8578448,14.4506234 78.6890307,17.444556 C83.9269954,20.684603 87.0541078,26.2675484 87.0541078,32.3880955 C87.0541078,42.0766129 79.1748291,49.9598335 69.4863465,49.9598335 L69.4863465,49.9598335 Z M13.0224199,26.9667056 C7.16672858,26.9667056 2.4056296,31.7253742 2.4056296,37.5826202 C2.4056296,39.9667669 3.19307648,42.2299187 4.67795668,44.1238991 C6.71047664,46.7170366 9.75444668,48.2067845 13.0224199,48.2067845 L69.4870337,48.2067845 C78.2087293,48.2067845 85.299874,41.1114047 85.299874,32.3880955 C85.299874,26.8842092 82.4840299,21.8526149 77.7689684,18.9336164 C73.2895913,16.1637991 67.60843,15.8338134 62.8844359,18.0124064 C62.7016602,18.0955903 62.5236945,18.1327137 62.3450416,18.1327137 L62.1711986,18.1327137 L61.8558076,18.0371553 C61.5115573,17.8859119 61.2586948,17.6219233 61.1384476,17.2864379 C60.4911745,15.5107024 59.60753,13.7865272 58.5005693,12.1702847 C56.7964958,9.66583084 54.6313604,7.54567278 52.0807471,5.86755805 C48.286435,3.38235333 43.9231823,2.06722286 39.4527378,2.06722286 C26.7374633,2.06722286 16.3934622,12.4136492 16.3934622,25.1332226 L16.4099532,25.8303174 C16.4181987,26.2118633 16.2608468,26.5789724 15.9743151,26.8360863 C15.7255753,27.0457647 15.4307981,27.1516351 15.1284624,27.1516351 L14.8920909,27.131011 C14.261996,27.0203283 13.6319011,26.9667056 13.0224199,26.9667056 L13.0224199,26.9667056 Z" fill="#000000"></path>
                            </g>
                            <g>
                                <path d="M98.360773,22.3537806 C95.2419062,20.5553586 91.6338054,19.5117789 87.7852103,19.5117789 C84.6917671,19.5117789 81.6972702,20.165563 78.8937944,21.4593819 C78.7653017,21.5136921 78.6120725,21.5219417 78.4746473,21.4655692 C78.3420319,21.4071342 78.2382758,21.2950765 78.1846799,21.15827 C76.9485395,17.7394807 75.1152862,14.6499897 72.8553274,11.9619813 C71.1175847,9.89338348 69.1317893,8.06127542 66.928862,6.5261545 C61.9149005,3.03036859 55.8640652,1.02639299 49.4895934,1.02639299 C32.6687386,1.02639299 18.9825545,14.7187367 18.9825545,31.5486944 C18.9825545,31.7748721 18.9866773,32.0010498 18.9949228,32.2210402 L19.0031683,32.4671546 C19.0072911,32.6252727 18.9413269,32.7744537 18.8252026,32.8782617 C18.7049555,32.9800073 18.5469164,33.0212555 18.3895644,32.998569 C17.5224109,32.8432008 16.6518217,32.7641417 15.8011592,32.7641417 C7.72261385,32.7641417 1.14887538,39.3363567 1.14887538,47.4189437 C1.14887538,49.163743 1.47251192,50.8274209 2.03251996,52.381791 C4.0725983,58.0231713 9.46447933,62.078558 15.8011592,62.078558 L87.7845231,62.078558 C99.5123969,62.078558 109.059331,52.5289096 109.059331,40.7972308 C109.060706,32.9119478 104.74349,26.0324336 98.360773,22.3537806 L98.360773,22.3537806 Z" fill="#FFFFFF"></path>
                                <path d="M87.7852103,62.9571449 L15.8018463,62.9571449 C9.29475911,62.9571449 3.43082222,58.8261365 1.20796825,52.681528 C0.590241596,50.9656024 0.274850569,49.1960541 0.274850569,47.4203186 C0.274850569,38.0947855 8.59389016,30.6426087 18.1119654,32.0636096 C18.1078426,31.8793676 18.1030327,31.7157497 18.1030327,31.5493819 C18.1030327,14.2340702 32.1829402,0.151930912 49.4895934,0.151930912 C55.9176611,0.151930912 62.1217255,2.10640866 67.434587,5.80912309 C69.6698093,7.37105536 71.7188203,9.24647403 73.5225271,11.3982557 C75.8415788,14.1508864 77.6411629,17.213566 78.8766162,20.5037984 C85.1926823,17.7195441 92.7366433,18.0976527 98.8005339,21.5906887 C105.668363,25.5532669 109.936105,32.9126353 109.936105,40.7979183 C109.936105,53.0128886 99.9988824,62.9571449 87.7852103,62.9571449 L87.7852103,62.9571449 Z M15.8018463,33.6420411 C8.20841223,33.6420411 2.02908432,39.825148 2.02908432,47.4203186 C2.02908432,48.9891256 2.3066834,50.5613699 2.85844591,52.0861788 C4.82843737,57.5385049 10.0292973,61.202721 15.8018463,61.202721 L87.7852103,61.202721 C99.0320955,61.202721 108.181184,52.0449306 108.181184,40.7986058 C108.181184,33.5368582 104.250134,26.7632144 97.9251349,23.1141227 C92.2391637,19.8383272 85.1521418,19.5392777 79.2627813,22.2554724 C78.8690578,22.4273399 78.495261,22.4190903 78.1468879,22.2802213 C77.7779011,22.1248531 77.4920565,21.8285534 77.3594411,21.4607569 C76.1940747,18.228272 74.4522092,15.2247148 72.179195,12.5298316 C70.4744343,10.4983572 68.5381121,8.72055934 66.4265726,7.24731072 C61.4126111,3.75358723 55.5569197,1.90497989 49.4895934,1.90497989 C33.1497271,1.90497989 19.8572665,15.2034032 19.8572665,31.5500693 C19.8572665,31.7494357 19.865512,31.9419273 19.8703219,32.1371689 L19.8826901,32.4382808 C19.8909357,32.8700121 19.7170927,33.2659949 19.3975789,33.5437329 C19.1405936,33.7637233 18.8128343,33.8840306 18.4768295,33.8840306 L18.256949,33.8654689 C17.4193419,33.714913 16.5982258,33.6420411 15.8018463,33.6420411 L15.8018463,33.6420411 Z" fill="#000000"></path>
                            </g>
                        </g>
                        <g transform="translate(192.395398, 351.984736)" id="Shape">
                            <path d="M3.51740015,40.8123552 L346.368061,40.8123552 C320.742368,17.2314403 252.346491,1.48493561 174.943074,1.48493561 C97.5348471,1.48493561 29.1389702,17.2314403 3.51740015,40.8123552 L3.51740015,40.8123552 Z" fill="#C3D85D"></path>
                            <path d="M348.619087,41.0158464 C323.802829,16.5260959 254.005214,0.0742467803 174.942387,0.0742467803 C95.8754368,0.0742467803 26.0819447,16.5260959 1.26087698,41.0158464 L0.0371048268,42.2209816 L349.846982,42.2209816 L348.619087,41.0158464 L348.619087,41.0158464 Z M3.51740015,40.8123552 C29.1389702,17.2314403 97.5348471,1.48493561 174.943074,1.48493561 C252.346491,1.48493561 320.743055,17.2314403 346.368061,40.8123552 L3.51740015,40.8123552 L3.51740015,40.8123552 Z" fill="#000000"></path>
                        </g>
                        <g transform="translate(155.290571, 157.430673)" id="Shape">
                            <path d="M111.352959,103.460138 L111.352959,92.7548527 L106.467491,92.7548527 C101.142948,92.7548527 96.8085544,97.0866024 96.8085544,102.416559 L96.8085544,104.501656 C96.8085544,109.832987 101.142948,114.169549 106.467491,114.169549 L131.255576,114.169549 L111.829825,104.24248 C111.539171,104.090549 111.352959,103.790124 111.352959,103.460138 L111.352959,103.460138 Z" fill="#C3D85D"></path>
                            <path d="M111.352959,39.5233486 C111.352959,39.0379946 111.746683,38.648199 112.227671,38.648199 C112.712783,38.648199 113.107193,39.0379946 113.107193,39.5233486 L113.107193,58.2823476 C117.594129,57.4546335 121.007773,53.5147418 121.007773,48.7890718 L121.007773,47.319948 C121.007773,46.8366564 121.401496,46.442736 121.883172,46.442736 L153.791949,46.442736 L153.791949,39.5240361 C153.791949,39.0386821 154.185672,38.6488865 154.667348,38.6488865 C155.152459,38.6488865 155.546182,39.0386821 155.546182,39.5240361 L155.546182,46.442736 L158.751627,46.442736 C164.076857,46.442736 168.41125,42.1061741 168.41125,36.7748428 L168.41125,35.7333254 C168.41125,35.247284 168.800851,34.855426 169.285962,34.855426 L171.081424,34.855426 C176.406653,34.855426 180.736237,30.5195515 180.736237,25.1916576 L180.736237,24.1501402 C180.736237,23.6634113 181.12996,23.2729283 181.615072,23.2729283 L199.095568,23.2729283 C204.420798,23.2729283 208.754504,18.9343039 208.754504,13.605035 L208.754504,11.5199379 C208.754504,6.19066904 204.420798,1.8541071 199.095568,1.8541071 L152.61765,1.8541071 C147.29242,1.8541071 142.958713,6.19066904 142.958713,11.5199379 L142.958713,12.5676425 C142.958713,13.050934 142.564303,13.4434795 142.079192,13.4434795 L124.598695,13.4434795 C119.274153,13.4434795 114.939759,17.7772916 114.939759,23.1024357 L114.939759,24.1501402 C114.939759,24.6341192 114.546036,25.0259773 114.060925,25.0259773 L85.0215878,25.0259773 C79.6929224,25.0259773 75.3585289,29.3618517 75.3585289,34.6918081 L75.3585289,36.1588695 C75.3585289,36.6442234 74.9641184,37.034019 74.4790071,37.034019 L73.8111202,37.034019 C68.4824548,37.034019 64.1480614,41.370581 64.1480614,46.6998499 L64.1480614,48.7890718 C64.1480614,54.1183407 68.4824548,58.4549026 73.8111202,58.4549026 L111.34334,58.4549026 L111.351585,58.4549026 L111.351585,39.5233486 L111.352959,39.5233486 Z" fill="#C3D85D"></path>
                            <path d="M96.8085544,161.154012 L105.542618,161.154012 C110.871971,161.154012 115.205677,156.81745 115.205677,151.487493 L115.205677,150.445976 C115.205677,149.960622 115.595965,149.568764 116.081076,149.568764 L119.170397,149.568764 C124.495626,149.568764 128.829333,145.23289 128.829333,139.904996 L128.829333,137.815774 C128.829333,132.486505 124.494939,128.154068 119.170397,128.154068 L82.2394129,128.154068 C81.7543017,128.154068 81.364701,127.760147 81.364701,127.272731 L81.364701,125.187634 C81.364701,119.861802 77.0309946,115.525928 71.7057649,115.525928 L59.6453219,115.525928 C59.4007049,115.525928 59.1684562,115.424182 59.0028587,115.241315 C58.8365741,115.061198 58.7541189,114.820583 58.7740456,114.573094 C58.7946594,114.286419 58.8159603,113.998369 58.8159603,113.708257 L58.8159603,111.621097 C58.8159603,106.291141 54.482254,101.957329 49.1570242,101.957329 L11.620682,101.957329 C6.29132952,101.957329 1.95762318,106.291141 1.95762318,111.621097 L1.95762318,113.708257 C1.95762318,119.036151 6.29132952,123.372025 11.620682,123.372025 L14.7354261,123.372025 C14.9841659,123.372025 15.2164146,123.477208 15.3820121,123.65595 C15.5524194,123.840192 15.6307518,124.081494 15.610138,124.328296 C15.5854015,124.612909 15.5647877,124.898896 15.5647877,125.187634 L15.5647877,127.272731 C15.5647877,132.602 19.8991812,136.938562 25.2278466,136.938562 L34.9032737,136.938562 C35.388385,136.938562 35.7779857,137.332482 35.7779857,137.815774 L35.7779857,139.904996 C35.7779857,145.23289 40.111692,149.568764 45.4410445,149.568764 L48.5269293,149.568764 C49.0120405,149.568764 49.4064511,149.960622 49.4064511,150.445976 L49.4064511,151.487493 C49.4064511,156.81745 53.7360347,161.154012 59.0653872,161.154012 L95.0550078,161.154012 L95.0550078,143.2681 C95.0550078,142.780683 95.4446085,142.3902 95.9345296,142.3902 C96.4155181,142.3902 96.8092416,142.779996 96.8092416,143.2681 L96.8092416,161.154012 L96.8085544,161.154012 Z" fill="#C3D85D"></path>
                            <path d="M245.24504,91.9621996 L240.426909,91.9621996 C239.945921,91.9621996 239.55151,91.572404 239.55151,91.08705 L239.55151,90.8299362 C239.55151,85.84234 235.661687,81.6164607 230.697199,81.2094784 C230.240947,81.172355 229.888451,80.7901216 229.888451,80.3357038 L229.888451,79.246751 C229.888451,73.9167946 225.554058,69.5809201 220.229515,69.5809201 L182.693173,69.5809201 C177.364508,69.5809201 173.030114,73.9167946 173.030114,79.246751 L173.030114,80.2882683 C173.030114,80.7743097 172.636391,81.1682302 172.154715,81.1682302 L129.58792,81.1682302 C124.258568,81.1682302 119.928984,85.4999798 119.928984,90.8299362 L119.928984,91.8735159 C119.928984,92.3609323 119.535261,92.7555402 119.05015,92.7555402 L113.107193,92.7555402 L113.107193,102.923224 L135.112417,114.170237 L146.961225,114.170237 L146.961225,101.080804 C146.961225,100.593388 147.354948,100.202905 147.836624,100.202905 C148.321735,100.202905 148.715459,100.593388 148.715459,101.080804 L148.715459,114.170237 L152.945409,114.170237 C158.270639,114.170237 162.604345,109.833675 162.604345,104.502343 L162.604345,103.460826 C162.604345,102.975472 162.998068,102.581552 163.48318,102.581552 L186.376171,102.581552 L186.376171,91.8742034 C186.376171,91.3929743 186.769894,90.9990538 187.250883,90.9990538 C187.735994,90.9990538 188.130404,91.3929743 188.130404,91.8742034 L188.130404,102.581552 L197.171614,102.581552 C197.656725,102.581552 198.050449,102.975472 198.050449,103.460826 L198.050449,103.718627 C198.050449,109.047896 202.384155,113.384458 207.709385,113.384458 L245.24504,113.384458 C250.575079,113.384458 254.908099,109.047896 254.908099,103.718627 L254.908099,101.629405 C254.908786,96.2987615 250.575079,91.9621996 245.24504,91.9621996 L245.24504,91.9621996 Z" fill="#C3D85D"></path>
                            <path d="M245.24504,90.2091506 L241.288566,90.2091506 C240.994476,84.8606325 236.921877,80.3728272 231.642685,79.5533627 L231.642685,79.2460635 C231.642685,72.9515865 226.524967,67.8271837 220.230202,67.8271837 L182.693173,67.8271837 C176.401844,67.8271837 171.28069,72.9522739 171.28069,79.2460635 L171.28069,79.4103689 L129.588608,79.4103689 C123.293155,79.4103689 118.175438,84.5347717 118.175438,90.8292487 L118.175438,90.9976789 L113.10788,90.9976789 L113.10788,68.6597101 L154.857682,59.3383018 C155.259651,59.2448059 155.546182,58.8921337 155.546182,58.4775891 L155.546182,48.1992224 L158.751627,48.1992224 C165.042957,48.1992224 170.164797,43.0748196 170.164797,36.7741553 L170.164797,36.6098499 L171.080736,36.6098499 C177.372066,36.6098499 182.489784,31.4854471 182.489784,25.1909701 L182.489784,25.0252898 L199.095568,25.0252898 C205.39102,25.0252898 210.508738,19.9029494 210.508738,13.6043476 L210.508738,11.5192505 C210.508738,5.22271102 205.39102,0.100370647 199.095568,0.100370647 L152.61765,0.100370647 C146.32632,0.100370647 141.20448,5.22271102 141.20448,11.5192505 L141.20448,11.6856183 L124.598695,11.6856183 C118.303243,11.6856183 113.186213,16.810021 113.186213,23.1017482 L113.186213,23.2722408 L85.0222749,23.2722408 C78.7268226,23.2722408 73.6049823,28.3925188 73.6049823,34.6911206 L73.6049823,35.2802826 C67.4050406,35.3902778 62.3952019,40.4727449 62.3952019,46.6991624 L62.3952019,48.7883843 C62.3952019,55.0828613 67.5170422,60.2072641 73.8124945,60.2072641 L111.344714,60.2072641 L111.352959,60.2072641 L111.352959,90.9976789 L106.467491,90.9976789 C100.172038,90.9976789 95.0550078,96.1220817 95.0550078,102.415871 L95.0550078,104.500968 C95.0550078,110.79957 100.172725,115.923973 106.467491,115.923973 L134.689834,115.923973 L146.961225,122.193701 L146.961225,203.026446 L96.8085544,183.982834 L96.8085544,162.907061 L105.542618,162.907061 C111.833948,162.907061 116.955788,157.782658 116.955788,151.488181 L116.955788,151.324563 L119.170397,151.324563 C125.461726,151.324563 130.583567,146.20016 130.583567,139.905683 L130.583567,137.816461 C130.583567,131.521984 125.461726,126.397581 119.170397,126.397581 L83.1189347,126.397581 L83.1189347,125.188321 C83.1189347,118.893844 77.9970944,113.773566 71.7057649,113.773566 L60.5701941,113.773566 L60.5701941,113.709632 L60.5701941,111.622472 C60.5701941,105.327995 55.4483537,100.203592 49.1577113,100.203592 L11.6213692,100.203592 C5.3259169,100.203592 0.208199306,105.328682 0.208199306,111.622472 L0.208199306,113.709632 C0.208199306,120.006171 5.3259169,125.126449 11.6213692,125.126449 L13.8112411,125.126449 L13.8112411,125.188321 L13.8112411,127.273418 C13.8112411,133.57202 18.9330814,138.696423 25.2285337,138.696423 L34.0292489,138.696423 L34.0292489,139.905683 C34.0292489,146.20016 39.1462794,151.324563 45.4417317,151.324563 L47.6522173,151.324563 L47.6522173,151.488181 C47.6522173,157.782658 52.7740577,162.907061 59.0653872,162.907061 L95.0550078,162.907061 L95.0550078,184.58712 C95.0550078,184.952167 95.279011,185.278028 95.6191386,185.408647 L146.961912,204.905989 L146.961912,235.386355 C146.961912,235.869647 147.355635,236.263567 147.837311,236.263567 C148.322422,236.263567 148.716146,235.869647 148.716146,235.386355 L148.716146,168.916237 L187.467327,159.1136 C187.856928,159.013917 188.131092,158.66537 188.131092,158.261137 L188.131092,104.33735 L196.313393,104.33735 C196.637029,110.347902 201.625567,115.136132 207.709385,115.136132 L245.24504,115.136132 C251.541179,115.136132 256.658897,110.011729 256.658897,103.717252 L256.658897,101.62803 C256.658897,95.3335534 251.541179,90.2091506 245.24504,90.2091506 L245.24504,90.2091506 Z M95.9338425,142.390888 C95.4446085,142.390888 95.0543207,142.780683 95.0543207,143.268787 L95.0543207,161.154699 L59.0647001,161.154699 C53.7353476,161.154699 49.405764,156.818137 49.405764,151.488181 L49.405764,150.446663 C49.405764,149.961309 49.0113534,149.569451 48.5262422,149.569451 L45.4403574,149.569451 C40.1110049,149.569451 35.7772985,145.233577 35.7772985,139.905683 L35.7772985,137.816461 C35.7772985,137.33317 35.3876978,136.939249 34.9025866,136.939249 L25.2271594,136.939249 C19.898494,136.939249 15.5641006,132.603375 15.5641006,127.273418 L15.5641006,125.188321 C15.5641006,124.900271 15.5847144,124.613596 15.6094509,124.328984 C15.6300647,124.082182 15.5517323,123.841567 15.381325,123.656638 C15.2157275,123.477895 14.9834788,123.372712 14.734739,123.372712 L11.6199949,123.372712 C6.29064239,123.372712 1.95693605,119.036151 1.95693605,113.708944 L1.95693605,111.621785 C1.95693605,106.291828 6.29064239,101.958016 11.6199949,101.958016 L49.1563371,101.958016 C54.4815669,101.958016 58.8152732,106.291828 58.8152732,111.621785 L58.8152732,113.708944 C58.8152732,113.999056 58.7946594,114.287794 58.7733585,114.573782 C58.7527447,114.820583 58.835887,115.061198 59.0021716,115.242003 C59.1677691,115.42487 59.4000178,115.526615 59.6446348,115.526615 L71.7050777,115.526615 C77.0303075,115.526615 81.3640139,119.86249 81.3640139,125.188321 L81.3640139,127.273418 C81.3640139,127.760835 81.7536145,128.154755 82.2387258,128.154755 L119.16971,128.154755 C124.494939,128.154755 128.828646,132.486505 128.828646,137.816461 L128.828646,139.905683 C128.828646,145.233577 124.494252,149.569451 119.16971,149.569451 L116.080389,149.569451 C115.595278,149.569451 115.20499,149.961309 115.20499,150.446663 L115.20499,151.488181 C115.20499,156.818137 110.871284,161.154699 105.541931,161.154699 L96.8078673,161.154699 L96.8078673,143.268787 C96.8085544,142.780683 96.4141439,142.390888 95.9338425,142.390888 L95.9338425,142.390888 Z M153.791261,57.7763695 L113.107193,66.8585382 L113.107193,60.0601455 C118.565038,59.206995 122.762007,54.4833873 122.762007,48.7883843 L122.762007,48.1992224 L153.791261,48.1992224 L153.791261,57.7763695 L153.791261,57.7763695 Z M111.344027,58.4549026 L73.8118074,58.4549026 C68.483142,58.4549026 64.1487485,54.1183407 64.1487485,48.7890718 L64.1487485,46.6998499 C64.1487485,41.370581 68.483142,37.034019 73.8118074,37.034019 L74.4796942,37.034019 C74.9648055,37.034019 75.3592161,36.6442234 75.3592161,36.1588695 L75.3592161,34.6918081 C75.3592161,29.3618517 79.6929224,25.0259773 85.0222749,25.0259773 L114.061612,25.0259773 C114.546723,25.0259773 114.940446,24.6341192 114.940446,24.1501402 L114.940446,23.1024357 C114.940446,17.7772916 119.27484,13.4434795 124.599383,13.4434795 L142.079879,13.4434795 C142.56499,13.4434795 142.959401,13.050934 142.959401,12.5676425 L142.959401,11.5199379 C142.959401,6.19066904 147.293107,1.8541071 152.618337,1.8541071 L199.096255,1.8541071 C204.421485,1.8541071 208.755191,6.19066904 208.755191,11.5199379 L208.755191,13.605035 C208.755191,18.9343039 204.421485,23.2729283 199.096255,23.2729283 L181.615759,23.2729283 C181.130648,23.2729283 180.736924,23.6627239 180.736924,24.1501402 L180.736924,25.1916576 C180.736924,30.5195515 176.407341,34.855426 171.082111,34.855426 L169.286649,34.855426 C168.801538,34.855426 168.411937,35.247284 168.411937,35.7333254 L168.411937,36.7748428 C168.411937,42.1061741 164.077544,46.442736 158.752314,46.442736 L155.546869,46.442736 L155.546869,39.5240361 C155.546869,39.0386821 155.153146,38.6488865 154.668035,38.6488865 C154.186359,38.6488865 153.792636,39.0386821 153.792636,39.5240361 L153.792636,46.442736 L121.882485,46.442736 C121.400809,46.442736 121.007086,46.8366564 121.007086,47.319948 L121.007086,48.7890718 C121.007086,53.5154293 117.594129,57.4546335 113.106506,58.2823476 L113.106506,39.5233486 C113.106506,39.0379946 112.712095,38.648199 112.226984,38.648199 C111.745996,38.648199 111.352272,39.0379946 111.352272,39.5233486 L111.352272,58.4549026 C111.352959,58.4549026 111.348837,58.4549026 111.344027,58.4549026 L111.344027,58.4549026 Z M106.466803,114.169549 C101.142261,114.169549 96.8078673,109.832987 96.8078673,104.501656 L96.8078673,102.416559 C96.8078673,97.0872898 101.142261,92.7548527 106.466803,92.7548527 L111.352272,92.7548527 L111.352272,103.460138 C111.352272,103.790124 111.538484,104.090549 111.829138,104.24248 L131.254889,114.169549 L106.466803,114.169549 L106.466803,114.169549 Z M146.960538,120.224786 L138.5453,115.923973 L146.960538,115.923973 L146.960538,120.224786 L146.960538,120.224786 Z M186.376171,157.581229 L148.715459,167.106128 L148.715459,115.923973 L152.945409,115.923973 C159.240861,115.923973 164.362701,110.79957 164.362701,104.500968 L164.362701,104.33735 L186.376171,104.33735 L186.376171,157.581229 L186.376171,157.581229 Z M254.908786,103.717252 C254.908786,109.046521 250.575079,113.383083 245.245727,113.383083 L207.710072,113.383083 C202.384842,113.383083 198.051136,109.046521 198.051136,103.717252 L198.051136,103.459451 C198.051136,102.974097 197.657412,102.580177 197.172301,102.580177 L188.131092,102.580177 L188.131092,91.8728285 C188.131092,91.3915993 187.736681,90.9976789 187.25157,90.9976789 C186.770581,90.9976789 186.376858,91.3915993 186.376858,91.8728285 L186.376858,102.580177 L163.483867,102.580177 C162.998756,102.580177 162.605032,102.974097 162.605032,103.459451 L162.605032,104.500968 C162.605032,109.8323 158.271326,114.168862 152.946096,114.168862 L148.716146,114.168862 L148.716146,101.079429 C148.716146,100.592013 148.322422,100.20153 147.837311,100.20153 C147.355635,100.20153 146.961912,100.592013 146.961912,101.079429 L146.961912,114.168862 L135.113104,114.168862 L113.10788,102.921849 L113.10788,92.7541652 L119.050837,92.7541652 C119.535948,92.7541652 119.929671,92.3595574 119.929671,91.872141 L119.929671,90.8285612 C119.929671,85.4986049 124.259255,81.1668552 129.588608,81.1668552 L172.155402,81.1668552 C172.637078,81.1668552 173.030801,80.7729348 173.030801,80.2868934 L173.030801,79.245376 C173.030801,73.9154197 177.364508,69.5795452 182.69386,69.5795452 L220.230889,69.5795452 C225.555432,69.5795452 229.889826,73.9154197 229.889826,79.245376 L229.889826,80.3343288 C229.889826,80.7887466 230.242321,81.1702926 230.698573,81.2081034 C235.663062,81.6150858 239.552884,85.840965 239.552884,90.8285612 L239.552884,91.0856751 C239.552884,91.571029 239.947295,91.9608246 240.428283,91.9608246 L245.246414,91.9608246 C250.576454,91.9608246 254.909473,96.2973866 254.909473,101.626655 L254.909473,103.717252 L254.908786,103.717252 Z" fill="#000000"></path>
                        </g>
                        <g transform="translate(503.663667, 154.680792)" id="Shape">
                            <path d="M77.7243052,108.299241 L77.7243052,98.9262726 L45.4712781,98.9262726 C40.1968957,98.9262726 35.9044169,103.220899 35.9044169,108.502732 L35.9044169,110.57133 C35.9044169,115.755543 40.1219989,120.048107 45.3056806,120.133353 C45.7873562,120.13954 46.1687114,120.529336 46.1687114,121.00919 L46.1687114,121.722784 C46.1687114,125.144323 48.9515734,127.92789 52.3686531,127.92789 L107.69676,127.92789 L107.69676,121.334363 L78.2643866,109.111143 C77.94075,108.973649 77.7243052,108.651913 77.7243052,108.299241 L77.7243052,108.299241 Z" fill="#C3D85D"></path>
                            <path d="M109.450993,120.748639 L109.450993,127.927202 L112.905178,127.927202 C116.322945,127.927202 119.10512,125.142948 119.10512,121.722097 L119.10512,120.32172 C119.10512,116.898806 116.322258,114.118676 112.905178,114.118676 L94.9024657,114.118676 L108.911599,119.938111 L108.911599,119.939486 C109.019478,119.984859 109.114989,120.049482 109.198131,120.132665 C109.240046,120.174601 109.264095,120.228224 109.297764,120.279784 C109.327311,120.323095 109.364416,120.360906 109.380219,120.410403 C109.426257,120.516961 109.450993,120.628331 109.450993,120.748639 L109.450993,120.748639 L109.450993,120.748639 Z" fill="#C3D85D"></path>
                            <path d="M79.4792261,107.714204 L91.9498835,112.892229 C92.148463,112.107826 92.251532,111.328235 92.251532,110.57133 L92.251532,108.502732 C92.251532,103.220211 87.9590533,98.9262726 82.6839837,98.9262726 L79.478539,98.9262726 L79.478539,107.714204 L79.4792261,107.714204 Z" fill="#C3D85D"></path>
                            <path d="M77.7243052,58.5112752 C77.7243052,58.0259212 78.1187158,57.6320008 78.5997043,57.6320008 C79.0889383,57.6320008 79.478539,58.0259212 79.478539,58.5112752 L79.478539,69.2309978 L84.9975384,69.2309978 C91.778789,69.2309978 97.2943528,63.7167994 97.2943528,56.9321562 L97.2943528,55.6314626 C97.2943528,55.1440462 97.6887634,54.7494383 98.1690648,54.7494383 L166.734662,54.7494383 C173.515913,54.7494383 179.031476,49.2331775 179.031476,42.4492217 L179.031476,39.8395849 C179.031476,33.057004 173.5166,27.5407432 166.734662,27.5407432 L133.892767,27.5407432 C133.407656,27.5407432 133.018055,27.1461353 133.018055,26.658719 L133.018055,25.3580254 C133.018055,18.5733821 127.498369,13.0550589 120.721928,13.0550589 L116.088635,13.0550589 C115.607646,13.0550589 115.21461,12.6611385 115.21461,12.1799093 L115.21461,11.1693281 C115.21461,6.03873813 111.042378,1.86648156 105.912292,1.86648156 L69.6656865,1.86648156 C64.5397234,1.86648156 60.3674918,6.03873813 60.3674918,11.1693281 L60.3674918,12.1799093 C60.3674918,12.6618259 59.9737683,13.0550589 59.4886571,13.0550589 L46.8146102,13.0550589 C40.029924,13.0550589 34.5177958,18.5733821 34.5177958,25.3580254 L34.5177958,26.658719 C34.5177958,27.1461353 34.1240724,27.5407432 33.6389611,27.5407432 L14.6117434,27.5407432 C7.83186696,27.5407432 2.31492891,33.057004 2.31492891,39.8395849 L2.31492891,42.4492217 C2.31492891,49.2331775 7.83117983,54.7494383 14.6117434,54.7494383 L24.9014615,54.7494383 C25.3865728,54.7494383 25.7761735,55.1440462 25.7761735,55.6314626 L25.7761735,56.9321562 C25.7761735,63.716112 31.29586,69.2309978 38.0729879,69.2309978 L77.7243052,69.2309978 L77.7243052,58.5112752 L77.7243052,58.5112752 Z" fill="#C3D85D"></path>
                            <path d="M225.270275,94.3697202 L215.92673,94.3697202 C215.441618,94.3697202 215.047208,93.9757998 215.047208,93.4897583 L215.047208,91.4795955 C215.047208,86.3490055 210.875663,82.1767489 205.7497,82.1767489 L202.767571,82.1767489 C202.28246,82.1767489 201.892859,81.782141 201.892859,81.2967871 L201.892859,80.2930806 C201.892859,75.1624906 197.716505,70.9881716 192.590542,70.9881716 L147.705383,70.9881716 C142.57942,70.9881716 138.407188,75.1624906 138.407188,80.2930806 L138.407188,81.2967871 C138.407188,81.782141 138.018274,82.1767489 137.533163,82.1767489 L134.551035,82.1767489 C129.420949,82.1767489 125.248717,86.3490055 125.248717,91.4795955 L125.248717,93.4897583 C125.248717,98.6251606 129.420949,102.794667 134.551035,102.794667 L162.216806,102.794667 L162.216806,85.6024129 C162.216806,85.1184339 162.610529,84.7272633 163.09564,84.7272633 C163.577316,84.7272633 163.971039,85.1191213 163.971039,85.6024129 L163.971039,102.794667 L170.212209,102.794667 C170.69732,102.794667 171.087608,103.189275 171.087608,103.672567 L171.087608,105.686854 C171.087608,110.817444 175.259839,114.991763 180.385802,114.991763 L225.270275,114.991763 C230.401048,114.991763 234.567782,110.817444 234.567782,105.686854 L234.567782,103.672567 C234.567782,98.5419768 230.401048,94.3697202 225.270275,94.3697202 L225.270275,94.3697202 Z" fill="#C3D85D"></path>
                            <path d="M225.270275,92.6125464 L216.802129,92.6125464 L216.802129,91.4795955 C216.802129,85.3844848 211.845886,80.4195751 205.7497,80.4195751 L203.64297,80.4195751 L203.64297,80.2930806 C203.64297,74.1938451 198.687415,69.2309978 192.590542,69.2309978 L147.705383,69.2309978 C141.61332,69.2309978 136.657077,74.1938451 136.657077,80.2930806 L136.657077,80.4195751 L134.551035,80.4195751 C128.454849,80.4195751 123.498606,85.3844848 123.498606,91.4795955 L123.498606,93.4897583 C123.498606,99.5896813 128.454849,104.551841 134.551035,104.551841 L162.216806,104.551841 L162.216806,139.198276 L109.452368,161.167074 L109.452368,129.680251 L112.906552,129.680251 C117.290419,129.680251 120.860728,126.111594 120.860728,121.721409 L120.860728,120.321032 C120.860728,115.933598 117.290419,112.36494 112.906552,112.36494 L93.8580336,112.36494 C93.958354,111.759279 94.0078271,111.159805 94.0078271,110.570643 L94.0078271,108.502045 C94.0078271,102.255003 88.9313371,97.1725361 82.685358,97.1725361 L79.4799132,97.1725361 L79.4799132,70.9881716 L84.9989126,70.9881716 C92.746263,70.9881716 99.0499608,64.6833825 99.0499608,56.9328436 L99.0499608,56.5072996 L166.736723,56.5072996 C174.484074,56.5072996 180.787771,50.2025105 180.787771,42.4499092 L180.787771,39.8402723 C180.787771,32.0931708 174.484074,25.7842569 166.736723,25.7842569 L134.773663,25.7842569 L134.773663,25.3587128 C134.773663,17.605424 128.469966,11.2985725 120.72399,11.2985725 L116.970218,11.2985725 L116.970218,11.1693281 C116.970218,5.06803023 112.009852,0.10930776 105.913667,0.10930776 L69.6670608,0.10930776 C63.5743108,0.10930776 58.6139452,5.06803023 58.6139452,11.1693281 L58.6139452,11.2985725 L46.8152974,11.2985725 C39.0645113,11.2985725 32.7608135,17.605424 32.7608135,25.3587128 L32.7608135,25.7842569 L14.6124305,25.7842569 C6.86576721,25.7842569 0.561382287,32.0931708 0.561382287,39.8402723 L0.561382287,42.4499092 C0.561382287,50.2025105 6.86576721,56.5072996 14.6124305,56.5072996 L24.0267496,56.5072996 L24.0267496,56.9328436 C24.0267496,64.6833825 30.3263246,70.9881716 38.0729879,70.9881716 L77.7243052,70.9881716 L77.7243052,97.1725361 L45.4712781,97.1725361 C39.225986,97.1725361 34.149496,102.255691 34.149496,108.502045 L34.149496,110.570643 C34.149496,116.416889 38.682469,121.30274 44.4179133,121.838279 C44.4804418,126.174153 48.0218914,129.680251 52.367966,129.680251 L107.696073,129.680251 L107.696073,162.478079 L107.696073,162.478079 L107.696073,238.629839 C107.696073,239.113131 108.089796,239.507051 108.574907,239.507051 C109.055896,239.507051 109.450306,239.113131 109.450306,238.629839 L109.450306,163.069304 L163.430271,140.597278 C163.758717,140.460471 163.969665,140.140798 163.969665,139.784001 L163.969665,104.552529 L169.332,104.552529 L169.332,105.686854 C169.332,111.786777 174.293053,116.748937 180.385115,116.748937 L225.269587,116.748937 C231.362337,116.748937 236.322016,111.786777 236.322016,105.686854 L236.322016,103.672567 C236.322703,97.5753937 231.363025,92.6125464 225.270275,92.6125464 L225.270275,92.6125464 Z M82.6846708,98.9255851 C87.9597404,98.9255851 92.2522191,103.220211 92.2522191,108.502045 L92.2522191,110.570643 C92.2522191,111.327547 92.1491502,112.107826 91.9505706,112.891542 L79.4799132,107.713517 L79.4799132,98.9255851 L82.6846708,98.9255851 L82.6846708,98.9255851 Z M38.0729879,69.2316853 C31.2965471,69.2316853 25.7761735,63.7174869 25.7761735,56.9328436 L25.7761735,55.63215 C25.7761735,55.1447337 25.3865728,54.7501258 24.9014615,54.7501258 L14.6117434,54.7501258 C7.83186696,54.7501258 2.31492891,49.233865 2.31492891,42.4499092 L2.31492891,39.8402723 C2.31492891,33.0576915 7.83117983,27.5414307 14.6117434,27.5414307 L33.6389611,27.5414307 C34.1240724,27.5414307 34.5177958,27.1468228 34.5177958,26.6594064 L34.5177958,25.3587128 C34.5177958,18.5740695 40.0292368,13.0557463 46.8146102,13.0557463 L59.4886571,13.0557463 C59.9737683,13.0557463 60.3674918,12.6618259 60.3674918,12.1805968 L60.3674918,11.1700156 C60.3674918,6.0394256 64.5397234,1.86716903 69.6656865,1.86716903 L105.912292,1.86716903 C111.042378,1.86716903 115.21461,6.0394256 115.21461,11.1700156 L115.21461,12.1805968 C115.21461,12.6625134 115.607646,13.0557463 116.088635,13.0557463 L120.721928,13.0557463 C127.497682,13.0557463 133.018055,18.5740695 133.018055,25.3587128 L133.018055,26.6594064 C133.018055,27.1468228 133.407656,27.5414307 133.892767,27.5414307 L166.734662,27.5414307 C173.515913,27.5414307 179.031476,33.0576915 179.031476,39.8402723 L179.031476,42.4499092 C179.031476,49.233865 173.5166,54.7501258 166.734662,54.7501258 L98.1690648,54.7501258 C97.6887634,54.7501258 97.2943528,55.1447337 97.2943528,55.63215 L97.2943528,56.9328436 C97.2943528,63.7167994 91.778789,69.2316853 84.9975384,69.2316853 L79.478539,69.2316853 L79.478539,58.5119626 C79.478539,58.0266087 79.0889383,57.6326883 78.5997043,57.6326883 C78.1187158,57.6326883 77.7243052,58.0266087 77.7243052,58.5119626 L77.7243052,69.2316853 L38.0729879,69.2316853 L38.0729879,69.2316853 Z M107.696073,127.927202 L52.367966,127.927202 C48.9501992,127.927202 46.1680243,125.142948 46.1680243,121.722097 L46.1680243,121.008502 C46.1680243,120.528648 45.7866691,120.138853 45.3049935,120.132665 C40.1213118,120.047419 35.9037298,115.754855 35.9037298,110.570643 L35.9037298,108.502045 C35.9037298,103.219524 40.1962085,98.9255851 45.470591,98.9255851 L77.7236181,98.9255851 L77.7236181,108.298554 C77.7236181,108.651226 77.9393758,108.972962 78.2630123,109.109768 L107.695385,121.332988 L107.695385,127.927202 L107.696073,127.927202 Z M109.380219,120.410403 C109.364416,120.360906 109.327311,120.323095 109.297764,120.279784 C109.264095,120.227536 109.240046,120.173914 109.198131,120.132665 C109.114989,120.049482 109.019478,119.985547 108.911599,119.939486 L108.911599,119.938111 L94.9024657,114.118676 L112.905178,114.118676 C116.322945,114.118676 119.10512,116.898806 119.10512,120.32172 L119.10512,121.722097 C119.10512,125.143636 116.322258,127.927202 112.905178,127.927202 L109.450993,127.927202 L109.450993,120.748639 L109.450993,120.748639 C109.450993,120.628331 109.426257,120.516961 109.380219,120.410403 L109.380219,120.410403 Z M234.567782,105.686854 C234.567782,110.817444 230.401048,114.991763 225.270275,114.991763 L180.385802,114.991763 C175.259839,114.991763 171.087608,110.817444 171.087608,105.686854 L171.087608,103.672567 C171.087608,103.189275 170.69732,102.794667 170.212209,102.794667 L163.971039,102.794667 L163.971039,85.6024129 C163.971039,85.1184339 163.577316,84.7272633 163.09564,84.7272633 C162.610529,84.7272633 162.216806,85.1191213 162.216806,85.6024129 L162.216806,102.794667 L134.551035,102.794667 C129.420949,102.794667 125.248717,98.6251606 125.248717,93.4897583 L125.248717,91.4795955 C125.248717,86.3490055 129.420949,82.1767489 134.551035,82.1767489 L137.533163,82.1767489 C138.018274,82.1767489 138.407188,81.782141 138.407188,81.2967871 L138.407188,80.2930806 C138.407188,75.1624906 142.57942,70.9881716 147.705383,70.9881716 L192.590542,70.9881716 C197.716505,70.9881716 201.892859,75.1624906 201.892859,80.2930806 L201.892859,81.2967871 C201.892859,81.782141 202.28246,82.1767489 202.767571,82.1767489 L205.7497,82.1767489 C210.875663,82.1767489 215.047208,86.3490055 215.047208,91.4795955 L215.047208,93.4897583 C215.047208,93.9757998 215.441618,94.3697202 215.92673,94.3697202 L225.270275,94.3697202 C230.401048,94.3697202 234.567782,98.5419768 234.567782,103.672567 L234.567782,105.686854 L234.567782,105.686854 Z" fill="#000000"></path>
                        </g>
                        <g transform="translate(28.859310, 317.611227)" id="Shape">
                            <path d="M646.807218,2.13115758 C635.560332,2.13115758 626.403686,11.2841357 626.403686,22.5407725 C626.403686,33.5011097 635.087589,42.4430345 645.933193,42.9063894 L645.933193,31.7006253 C645.933193,31.2132089 646.322106,30.8213509 646.807218,30.8213509 C647.293016,30.8213509 647.686052,31.2132089 647.686052,31.7006253 L647.686052,42.9063894 C658.526846,42.4430345 667.208001,33.5011097 667.208001,22.5407725 C667.208688,11.2841357 658.058913,2.13115758 646.807218,2.13115758 L646.807218,2.13115758 Z" fill="#C3D85D"></path>
                            <path d="M99.7604495,62.0696209 C99.3914627,61.9534384 99.1427229,61.606266 99.1509684,61.2192202 L99.1592139,60.8273622 C99.1592139,50.9394785 91.1177734,42.8940149 81.2348341,42.8940149 C71.3567046,42.8940149 63.314577,50.9394785 63.314577,60.8273622 C63.314577,66.3271237 65.7738025,71.4226528 70.070404,74.8476293 L104.397179,74.8476293 C105.293191,73.4637518 105.765934,71.8750082 105.765934,70.2230173 C105.765934,66.459118 103.352059,63.1791978 99.7604495,62.0696209 L99.7604495,62.0696209 Z" fill="#C3D85D"></path>
                            <path d="M22.3274859,2.13115758 C11.0799136,2.13115758 1.92738961,11.2841357 1.92738961,22.5407725 C1.92738961,33.5011097 10.6119805,42.4430345 21.452774,42.9063894 L21.452774,31.7006253 C21.452774,31.2132089 21.8471846,30.8213509 22.3274859,30.8213509 C22.81672,30.8213509 23.2063206,31.2132089 23.2063206,31.7006253 L23.2063206,42.9063894 C34.0471142,42.4430345 42.731705,33.5011097 42.731705,22.5407725 C42.731705,11.2841357 33.5791811,2.13115758 22.3274859,2.13115758 L22.3274859,2.13115758 Z" fill="#C3D85D"></path>
                            <path d="M100.888711,60.6273084 C100.780832,49.8759621 92.0096635,41.162965 81.2348341,41.162965 C70.402286,41.162965 61.5857669,49.9818326 61.5857669,60.8266748 C61.5857669,66.9637211 64.3768745,72.6422249 69.2451652,76.3951246 C69.3990815,76.5154319 69.58117,76.5779917 69.771504,76.5779917 L104.849308,76.5779917 C105.126907,76.5779917 105.392825,76.4432476 105.5543,76.2170699 C106.823422,74.4578337 107.495432,72.3857985 107.495432,70.2230173 C107.494745,65.9160166 104.865799,62.1404303 100.888711,60.6273084 L100.888711,60.6273084 Z M104.397179,74.8469418 L70.070404,74.8469418 C65.7738025,71.4226528 63.314577,66.3264363 63.314577,60.8266748 C63.314577,50.9387911 71.3560175,42.8933274 81.2348341,42.8933274 C91.1177734,42.8933274 99.1592139,50.9387911 99.1592139,60.8266748 L99.1509684,61.2185328 C99.1427229,61.6055785 99.3914627,61.9527509 99.7604495,62.0689334 C103.352059,63.1785103 105.765934,66.4584305 105.765934,70.2216424 C105.765934,71.8743207 105.292504,73.4630643 104.397179,74.8469418 L104.397179,74.8469418 Z" fill="#000000"></path>
                            <path d="M22.3274859,0.373983782 C10.109691,0.373983782 0.173155858,10.319615 0.173155858,22.5407725 C0.173155858,34.4683803 9.64175795,44.1988333 21.452774,44.6628757 L21.452774,75.7000923 C21.452774,76.1833838 21.8471846,76.5773042 22.3274859,76.5773042 C22.81672,76.5773042 23.2063206,76.1833838 23.2063206,75.7000923 L23.2063206,44.6628757 C35.0139011,44.1988333 44.481816,34.4683803 44.481816,22.5407725 C44.481816,10.319615 34.5452809,0.373983782 22.3274859,0.373983782 L22.3274859,0.373983782 Z M23.2063206,42.9063894 L23.2063206,31.7006253 C23.2063206,31.2132089 22.81672,30.8213509 22.3274859,30.8213509 C21.8464975,30.8213509 21.452774,31.2132089 21.452774,31.7006253 L21.452774,42.9063894 C10.6119805,42.4430345 1.92738961,33.5011097 1.92738961,22.5407725 C1.92738961,11.2841357 11.0799136,2.13115758 22.3274859,2.13115758 C33.5791811,2.13115758 42.731705,11.2841357 42.731705,22.5407725 C42.731705,33.5011097 34.0478013,42.4430345 23.2063206,42.9063894 L23.2063206,42.9063894 Z" fill="#000000"></path>
                            <path d="M646.807218,0.373983782 C634.589423,0.373983782 624.652888,10.319615 624.652888,22.5407725 C624.652888,34.4683803 634.12149,44.1988333 645.933193,44.6628757 L645.933193,75.7000923 C645.933193,76.1833838 646.322106,76.5773042 646.807218,76.5773042 C647.293016,76.5773042 647.686052,76.1833838 647.686052,75.7000923 L647.686052,44.6628757 C659.493633,44.1988333 668.961548,34.4683803 668.961548,22.5407725 C668.961548,10.319615 659.0257,0.373983782 646.807218,0.373983782 L646.807218,0.373983782 Z M647.686739,42.9063894 L647.686739,31.7006253 C647.686739,31.2132089 647.293703,30.8213509 646.807905,30.8213509 C646.322793,30.8213509 645.93388,31.2132089 645.93388,31.7006253 L645.93388,42.9063894 C635.088276,42.4430345 626.404373,33.5011097 626.404373,22.5407725 C626.404373,11.2841357 635.561019,2.13115758 646.807905,2.13115758 C658.0596,2.13115758 667.208688,11.2841357 667.208688,22.5407725 C667.208688,33.5011097 658.527533,42.4430345 647.686739,42.9063894 L647.686739,42.9063894 Z" fill="#000000"></path>
                        </g>
                        <g transform="translate(176.591490, 209.678407)" id="Shape">
                            <path d="M194.910281,96.1633299 C193.097641,96.1633299 191.621007,97.6400159 191.621007,99.4563121 C191.621007,101.271921 193.097641,102.746544 194.910281,102.746544 C196.727043,102.746544 198.198868,101.271233 198.198868,99.4563121 C198.198868,97.6407033 196.727043,96.1633299 194.910281,96.1633299 L194.910281,96.1633299 Z" fill="#748037"></path>
                            <path d="M462.904015,109.433567 C461.091375,109.433567 459.619551,110.912315 459.619551,112.727924 C459.619551,114.543533 461.092063,116.016094 462.904015,116.016094 C464.720777,116.016094 466.196725,114.542845 466.196725,112.727924 C466.196725,110.913003 464.72009,109.433567 462.904015,109.433567 L462.904015,109.433567 Z" fill="#748037"></path>
                            <path d="M343.749422,34.7997409 C341.93266,34.7997409 340.460835,36.2764269 340.460835,38.0920356 C340.460835,39.9069569 341.933347,41.3802056 343.749422,41.3802056 C345.562062,41.3802056 347.038009,39.9069569 347.038009,38.0920356 C347.038696,36.2771144 345.562062,34.7997409 343.749422,34.7997409 L343.749422,34.7997409 Z" fill="#748037"></path>
                            <path d="M5.45303528,139.087594 C3.64039578,139.087594 2.16444823,140.564967 2.16444823,142.380576 C2.16444823,144.195497 3.64039578,145.670808 5.45303528,145.670808 C7.26567478,145.670808 8.74162234,144.195497 8.74162234,142.380576 C8.74162234,140.565654 7.26498766,139.087594 5.45303528,139.087594 L5.45303528,139.087594 Z" fill="#748037"></path>
                            <path d="M58.8152732,41.7535019 C57.0026337,41.7535019 55.5225634,43.2288129 55.5225634,45.0437342 C55.5225634,46.859343 57.0033208,48.3325916 58.8152732,48.3325916 C60.6272256,48.3325916 62.1038603,46.859343 62.1038603,45.0437342 C62.1038603,43.2288129 60.6272256,41.7535019 58.8152732,41.7535019 L58.8152732,41.7535019 Z" fill="#748037"></path>
                            <path d="M383.380126,113.603074 C381.567486,113.603074 380.092226,115.07976 380.092226,116.895368 C380.092226,118.710977 381.567486,120.186288 383.380126,120.186288 C385.196888,120.186288 386.6694,118.710977 386.6694,116.895368 C386.6694,115.07976 385.196888,113.603074 383.380126,113.603074 L383.380126,113.603074 Z" fill="#748037"></path>
                            <path d="M515.237625,95.147249 C513.424985,95.147249 511.944915,96.6246224 511.944915,98.4395437 C511.944915,100.255152 513.424985,101.729776 515.237625,101.729776 C517.050264,101.729776 518.526212,100.254465 518.526212,98.4395437 C518.526212,96.6246224 517.049577,95.147249 515.237625,95.147249 L515.237625,95.147249 Z" fill="#748037"></path>
                            <path d="M541.551131,121.905651 C539.739179,121.905651 538.263231,123.383025 538.263231,125.198633 C538.263231,127.013555 539.739179,128.488178 541.551131,128.488178 C543.367893,128.488178 544.844528,127.012867 544.844528,125.198633 C544.844528,123.383712 543.367206,121.905651 541.551131,121.905651 L541.551131,121.905651 Z" fill="#748037"></path>
                            <path d="M542.43134,120.241286 L542.43134,60.8741102 L540.676419,60.8741102 L540.676419,120.241286 C538.312704,120.65858 536.50831,122.714804 536.50831,125.198633 C536.50831,127.978075 538.768956,130.241915 541.551131,130.241915 C544.333993,130.241915 546.595326,127.978075 546.595326,125.198633 C546.594639,122.714804 544.790932,120.659268 542.43134,120.241286 L542.43134,120.241286 Z M541.551131,128.488178 C539.739179,128.488178 538.263231,127.012867 538.263231,125.198633 C538.263231,123.383025 539.739179,121.905651 541.551131,121.905651 C543.367893,121.905651 544.844528,123.383025 544.844528,125.198633 C544.844528,127.013555 543.367206,128.488178 541.551131,128.488178 L541.551131,128.488178 Z" fill="#A4B54E"></path>
                            <path d="M516.112337,93.4787588 L516.112337,60.8741102 L514.358103,60.8741102 L514.358103,93.4787588 C511.997136,93.900178 510.19343,95.9564014 510.19343,98.4395437 C510.19343,101.218986 512.453388,103.48695 515.236937,103.48695 C518.020487,103.48695 520.280445,101.218986 520.280445,98.4395437 C520.281133,95.9564014 518.476051,93.900178 516.112337,93.4787588 L516.112337,93.4787588 Z M515.237625,101.729776 C513.424985,101.729776 511.944915,100.254465 511.944915,98.4395437 C511.944915,96.6246224 513.424985,95.147249 515.237625,95.147249 C517.050264,95.147249 518.526212,96.6246224 518.526212,98.4395437 C518.526212,100.255152 517.049577,101.729776 515.237625,101.729776 L515.237625,101.729776 Z" fill="#A4B54E"></path>
                            <path d="M344.628944,33.1312508 L344.628944,0.523852283 L342.8699,0.523852283 L342.8699,33.1312508 C340.510308,33.5506076 338.705914,35.6088933 338.705914,38.0920356 C338.705914,40.8721651 340.96656,43.1373794 343.749422,43.1373794 C346.532284,43.1373794 348.79293,40.8721651 348.79293,38.0920356 C348.79293,35.6088933 346.988536,33.5506076 344.628944,33.1312508 L344.628944,33.1312508 Z M343.749422,41.3802056 C341.93266,41.3802056 340.460835,39.9069569 340.460835,38.0920356 C340.460835,36.2764269 341.933347,34.7997409 343.749422,34.7997409 C345.562062,34.7997409 347.038009,36.2764269 347.038009,38.0920356 C347.038696,39.9069569 345.562062,41.3802056 343.749422,41.3802056 L343.749422,41.3802056 Z" fill="#A4B54E"></path>
                            <path d="M195.789115,94.499652 L195.789115,61.8874413 L194.034882,61.8874413 L194.034882,94.499652 C191.671167,94.9183214 189.866773,96.9724823 189.866773,99.4556246 C189.866773,102.235067 192.131542,104.500968 194.910281,104.500968 C197.693143,104.500968 199.953102,102.235754 199.953102,99.4556246 C199.953102,96.9724823 198.148708,94.9190089 195.789115,94.499652 L195.789115,94.499652 Z M194.910281,102.746544 C193.097641,102.746544 191.621007,101.271233 191.621007,99.4563121 C191.621007,97.6407033 193.097641,96.1633299 194.910281,96.1633299 C196.727043,96.1633299 198.198868,97.6400159 198.198868,99.4563121 C198.198868,101.271921 196.727043,102.746544 194.910281,102.746544 L194.910281,102.746544 Z" fill="#A4B54E"></path>
                            <path d="M59.6899851,40.0863867 L59.6899851,7.47692577 L57.9357514,7.47692577 L57.9357514,40.0863867 C55.5720365,40.5029936 53.7676425,42.5612793 53.7676425,45.0444217 C53.7676425,47.8266135 56.0317241,50.0904528 58.8145861,50.0904528 C61.5933253,50.0904528 63.8574069,47.827301 63.8574069,45.0444217 C63.858094,42.5605919 62.0543872,40.5029936 59.6899851,40.0863867 L59.6899851,40.0863867 Z M58.8152732,48.3325916 C57.0026337,48.3325916 55.5225634,46.859343 55.5225634,45.0437342 C55.5225634,43.2288129 57.0033208,41.7535019 58.8152732,41.7535019 C60.6272256,41.7535019 62.1038603,43.2288129 62.1038603,45.0437342 C62.1038603,46.8600304 60.6272256,48.3325916 58.8152732,48.3325916 L58.8152732,48.3325916 Z" fill="#A4B54E"></path>
                            <path d="M6.32774722,137.423916 L6.32774722,85.6092876 L4.57351346,85.6092876 L4.57351346,137.423916 C2.2132342,137.840523 0.409527347,139.900871 0.409527347,142.380576 C0.409527347,145.160018 2.67017328,147.427982 5.45234816,147.427982 C8.23452304,147.427982 10.495169,145.160018 10.495169,142.380576 C10.4958561,139.900871 8.69146211,137.84121 6.32774722,137.423916 L6.32774722,137.423916 Z M5.45303528,145.671495 C3.64039578,145.671495 2.16444823,144.196184 2.16444823,142.381263 C2.16444823,140.565654 3.64039578,139.088281 5.45303528,139.088281 C7.26567478,139.088281 8.74162234,140.565654 8.74162234,142.381263 C8.74162234,144.195497 7.26498766,145.671495 5.45303528,145.671495 L5.45303528,145.671495 Z" fill="#A4B54E"></path>
                            <path d="M463.78285,107.767139 L463.78285,48.4013386 L462.028616,48.4013386 L462.028616,107.767139 C459.668337,108.185809 457.86463,110.244782 457.86463,112.727924 C457.86463,115.508054 460.124589,117.773268 462.903328,117.773268 C465.690313,117.773268 467.950271,115.508054 467.950271,112.727924 C467.950271,110.244094 466.146565,108.185809 463.78285,107.767139 L463.78285,107.767139 Z M462.904015,116.016094 C461.091375,116.016094 459.619551,114.542845 459.619551,112.727924 C459.619551,110.913003 461.092063,109.433567 462.904015,109.433567 C464.720777,109.433567 466.196725,110.912315 466.196725,112.727924 C466.196725,114.543533 464.72009,116.016094 462.904015,116.016094 L462.904015,116.016094 Z" fill="#A4B54E"></path>
                            <path d="M384.259647,111.936646 L384.259647,73.8067994 L382.505414,73.8067994 L382.505414,111.936646 C380.141699,112.358065 378.337992,114.412226 378.337992,116.895368 C378.337992,119.675498 380.597951,121.940712 383.380813,121.940712 C386.160239,121.940712 388.424321,119.675498 388.424321,116.895368 C388.423634,114.412226 386.61924,112.358753 384.259647,111.936646 L384.259647,111.936646 Z M383.380126,120.186288 C381.567486,120.186288 380.092226,118.710977 380.092226,116.895368 C380.092226,115.07976 381.567486,113.603074 383.380126,113.603074 C385.196888,113.603074 386.6694,115.07976 386.6694,116.895368 C386.6694,118.710977 385.196888,120.186288 383.380126,120.186288 L383.380126,120.186288 Z" fill="#A4B54E"></path>
                        </g>
                        <path d="M157.248194,50.201823 L198.122597,50.201823" id="Shape" stroke="#000000"></path>
                        <path d="M209.104251,50.201823 L219.43932,50.201823" id="Shape" stroke="#000000"></path>
                        <path d="M316.779023,112.472873 L337.655985,112.472873" id="Shape" stroke="#000000"></path>
                        <path d="M527.611397,109.420505 L541.413019,109.420505" id="Shape" stroke="#000000"></path>
                        <path d="M551.233429,116.590132 L577.510518,116.590132" id="Shape" stroke="#000000"></path>
                        <path d="M60.6959382,185.186594 C83.5848065,185.186594 102.20181,166.556152 102.20181,143.658583 C102.20181,120.758263 83.5848065,102.130571 60.6959382,102.130571 C37.8118799,102.130571 19.1907538,120.758263 19.1907538,143.658583 C19.191441,166.556152 37.812567,185.186594 60.6959382,185.186594 L60.6959382,185.186594 Z" id="Shape" fill="#FFF063"></path>
                        <path d="M60.6959382,187.082637 C84.6299257,187.082637 104.101027,167.601794 104.101027,143.657895 C104.101027,119.711934 84.6299257,100.231778 60.6959382,100.231778 C36.7626378,100.231778 17.2956592,119.712621 17.2956592,143.657895 C17.2956592,167.601794 36.7626378,187.082637 60.6959382,187.082637 L60.6959382,187.082637 Z M60.6959382,102.130571 C83.5848065,102.130571 102.20181,120.758263 102.20181,143.658583 C102.20181,166.556152 83.5848065,185.186594 60.6959382,185.186594 C37.8118799,185.186594 19.1907538,166.556152 19.1907538,143.658583 C19.191441,120.758263 37.812567,102.130571 60.6959382,102.130571 L60.6959382,102.130571 Z" id="Shape" fill="#000000"></path>
                        <path d="M26.5979767,96.748367 C27.0233079,96.436943 27.1167571,95.8457187 26.8096116,95.4201746 C26.4983433,94.996693 25.9053532,94.9080093 25.4827705,95.2132461 C21.7496126,97.9349406 18.3325329,101.088366 15.321545,104.584152 C14.9814174,104.980823 15.0247063,105.580297 15.4211783,105.922657 C15.6018925,106.075963 15.821773,106.152959 16.0416534,106.152959 C16.3068842,106.152959 16.5707408,106.042964 16.7610748,105.822974 C19.6765522,102.437183 22.9857531,99.3834403 26.5979767,96.748367 L26.5979767,96.748367 Z" id="Shape" fill="#000000"></path>
                        <path d="M4.9411261,124.532475 C5.04900495,124.569598 5.15619667,124.590222 5.26476264,124.590222 C5.65230195,124.590222 6.01991458,124.347545 6.15665274,123.961187 C7.43402076,120.417966 9.07419153,116.97374 11.0297533,113.733693 C11.2991069,113.2834 11.1561846,112.702488 10.7061168,112.432312 C10.2581104,112.154574 9.67748852,112.303755 9.40538646,112.751986 C7.38592191,116.102715 5.69146815,119.656249 4.37287255,123.31634 C4.1949068,123.809944 4.45189209,124.355795 4.9411261,124.532475 L4.9411261,124.532475 Z" id="Shape" fill="#000000"></path>
                        <path d="M4.97204679,159.69795 C3.48098245,154.508925 2.72857902,149.110909 2.72857902,143.658583 C2.72857902,143.134043 2.30324777,142.710561 1.78103169,142.710561 C1.2588156,142.710561 0.83142297,143.134043 0.83142297,143.658583 C0.83142297,149.288964 1.61131146,154.859535 3.14978752,160.220427 C5.06961874,166.900575 8.11771155,173.149679 12.2116108,178.796559 C12.3985092,179.052298 12.6843537,179.187042 12.979131,179.187042 C13.1722135,179.187042 13.3687317,179.126545 13.5350163,179.004175 C13.957599,178.696876 14.0531096,178.103589 13.7466512,177.680107 C9.78124461,172.214032 6.82866238,166.164294 4.97204679,159.69795 L4.97204679,159.69795 Z" id="Shape" fill="#000000"></path>
                        <path d="M41.8267595,198.511829 C41.32928,198.335837 40.7898858,198.605325 40.6201655,199.098929 C40.4497582,199.597345 40.7136147,200.136321 41.2090329,200.306126 C47.4584477,202.462033 54.0156951,203.553048 60.6966253,203.553048 C61.2195285,203.553048 61.6462341,203.127504 61.6462341,202.602964 C61.6462341,202.079799 61.2195285,201.654943 60.6966253,201.654943 C54.226643,201.65563 47.8775948,200.597614 41.8267595,198.511829 L41.8267595,198.511829 Z" id="Shape" fill="#000000"></path>
                        <path d="M99.730216,186.539536 C97.0284349,188.999992 94.077914,191.219833 90.96317,193.132375 C90.5192863,193.404613 90.3784254,193.991713 90.6519017,194.437193 C90.8305546,194.727306 91.1411357,194.889549 91.4606495,194.889549 C91.6310568,194.889549 91.8007771,194.844176 91.9540063,194.746555 C95.1725064,192.775578 98.2164765,190.482865 101.007584,187.939913 C101.395123,187.58724 101.421921,186.987766 101.069425,186.599346 C100.71693,186.211612 100.115694,186.184801 99.730216,186.539536 L99.730216,186.539536 Z" id="Shape" fill="#000000"></path>
                        <path d="M108.003905,178.810996 C108.169503,178.933366 108.364647,178.991801 108.554981,178.991801 C108.851819,178.991801 109.139725,178.852932 109.326624,178.595818 C112.797986,173.770464 115.519007,168.479694 117.418224,162.865812 C117.584509,162.369459 117.318591,161.830482 116.820424,161.66274 C116.327068,161.501184 115.78836,161.76036 115.622076,162.258089 C113.780577,167.691166 111.146821,172.818318 107.78746,177.488303 C107.481689,177.91316 107.578574,178.504384 108.003905,178.810996 L108.003905,178.810996 Z" id="Shape" fill="#000000"></path>
                        <path d="M119.168335,151.004889 C119.201317,151.009014 119.239109,151.011076 119.272091,151.011076 C119.748957,151.011076 120.159859,150.648092 120.214142,150.164801 C120.445703,148.015769 120.561828,145.828239 120.561828,143.658583 C120.561828,143.134043 120.138558,142.710561 119.612219,142.710561 C119.090003,142.710561 118.666733,143.134043 118.666733,143.658583 C118.666733,145.760179 118.550609,147.880337 118.326605,149.959247 C118.272322,150.479662 118.647494,150.948517 119.168335,151.004889 L119.168335,151.004889 Z" id="Shape" fill="#000000"></path>
                        <path d="M106.216689,107.744453 C108.166067,110.215908 109.928546,112.864731 111.452593,115.615986 C111.624374,115.930848 111.948011,116.105465 112.284016,116.105465 C112.437245,116.105465 112.595284,116.068342 112.740268,115.989283 C113.200642,115.734231 113.366927,115.155381 113.113377,114.698901 C111.537796,111.854837 109.718973,109.120081 107.705692,106.570254 C104.051554,101.940142 99.746707,97.8771931 94.9155211,94.5065267 C94.4846929,94.2074772 93.8937642,94.3133476 93.5928028,94.7409541 C93.2939028,95.1726854 93.3976589,95.7639097 93.8291743,96.0629593 C98.5085052,99.3291301 102.676614,103.259397 106.216689,107.744453 L106.216689,107.744453 Z" id="Shape" fill="#000000"></path>
                        <path d="M60.6959382,85.6615353 C64.1796692,85.6615353 67.6716456,85.9708969 71.0639888,86.5868702 C71.1223945,86.5951198 71.1801132,86.6013071 71.2343961,86.6013071 C71.6865253,86.6013071 72.0843715,86.279571 72.1675138,85.8217159 C72.2589016,85.3068007 71.9187741,84.8152595 71.4027421,84.7197012 C67.8956489,84.0851662 64.2964807,83.7634301 60.6959382,83.7634301 C60.1737221,83.7634301 59.7504523,84.1862243 59.7504523,84.7114515 C59.7504523,85.2366787 60.1737221,85.6615353 60.6959382,85.6615353 L60.6959382,85.6615353 Z" id="Shape" fill="#000000"></path>
                    </g>
                </g>
                <rect id="Rectangle-2" fill="#C3D85D" x="27" y="384" width="655" height="120.940155"></rect>
            </g>
        </g>
    </g>
</svg>