<?xml version="1.0" encoding="UTF-8" standalone="no"?>
<svg width="101px" height="64px" viewBox="0 0 101 64" version="1.1" xmlns="http://www.w3.org/2000/svg" xmlns:xlink="http://www.w3.org/1999/xlink">
    <!-- Generator: Sketch 39 (31667) - http://www.bohemiancoding.com/sketch -->
    <title>owl</title>
    <desc>Created with Sketch.</desc>
    <defs></defs>
    <g id="Page-1" stroke="none" stroke-width="1" fill="none" fill-rule="evenodd">
        <g id="Desktop-HD-Copy-3" transform="translate(-472.000000, -444.000000)">
            <g id="owl" transform="translate(472.068178, 444.500000)">
                <g id="Capa_1">
                    <g id="Group">
                        <ellipse id="Oval" fill="#FFEBCA" cx="50.0911158" cy="32.1374316" rx="38.5259789" ry="31.3687579"></ellipse>
                        <path d="M50.0911158,0.800336842 C22.0106105,0.800336842 7.71907368,5.31334737 7.71907368,5.31334737 C37.5545263,10.8833684 50.0911158,31.1801263 50.0911158,31.1801263 C50.0911158,31.1801263 62.6270316,10.8826947 92.4624842,5.31334737 C92.4624842,5.31267368 78.1716211,0.800336842 50.0911158,0.800336842 L50.0911158,0.800336842 Z" id="Shape" fill="#F0B43C"></path>
                        <path d="M96.2445474,11.4290526 C102.042947,2.69473684 99.7241263,0.297094737 99.7241263,0.297094737 C97.8640842,2.27435789 95.3128421,3.91477895 92.5898105,5.25338947 L77.0405053,6.11368421 L50.0911158,13.8469053 L23.0723368,4.13103158 L7.72378947,5.29448421 C4.95494737,3.96058947 2.35048421,2.31006316 0.458105263,0.297768421 C0.458105263,0.297768421 -1.86138947,2.69541053 3.93701053,11.4297263 C9.73541053,20.1640421 0.264757895,34.0365474 3.93701053,41.9146105 C3.93701053,41.9146105 5.09642105,39.3957053 7.18955789,39.1895579 C7.18955789,39.1895579 3.70189474,45.9890526 7.07368421,50.6246737 C7.07368421,50.6246737 7.18955789,48.3584 8.81717895,47.6375579 C8.81717895,47.6375579 9.39856842,51.7578105 13.0027789,51.8615579 C13.0027789,51.8615579 12.7703579,49.8007579 13.5841684,49.1829895 C13.5841684,49.1829895 16.4904421,52.2731789 23.1174737,48.1529263 C29.7445053,44.0326737 38.2322526,36.8215579 42.0682105,35.3785263 C42.0682105,35.3785263 43.1144421,40.9788632 50.0904421,44.9967158 L50.0904421,44.9967158 C57.0657684,40.9788632 58.1126737,35.3785263 58.1126737,35.3785263 C61.9493053,36.8215579 70.4370526,44.0326737 77.0634105,48.1529263 C83.6904421,52.2731789 86.5973895,49.1829895 86.5973895,49.1829895 C87.4112,49.8007579 87.1787789,51.8615579 87.1787789,51.8615579 C90.7829895,51.7584842 91.3643789,47.6375579 91.3643789,47.6375579 C92.992,48.3584 93.1085474,50.6246737 93.1085474,50.6246737 C96.4796632,45.9890526 92.992,39.1895579 92.992,39.1895579 C95.0844632,39.3957053 96.2445474,41.9146105 96.2445474,41.9146105 C99.9168,34.0358737 90.4461474,20.1640421 96.2445474,11.4290526 L96.2445474,11.4290526 Z" id="Shape" fill="#AB4734"></path>
                        <path d="M50.0911158,32.0619789 C48.2741895,32.0619789 44.1748211,35.5988211 44.1748211,35.5988211 C44.1748211,38.7631158 50.0911158,43.2848842 50.0911158,43.2848842 C50.0911158,43.2848842 56.0074105,38.7631158 56.0074105,35.5988211 C56.0074105,35.5988211 51.9080421,32.0619789 50.0911158,32.0619789 L50.0911158,32.0619789 Z" id="Shape" fill="#FFC54F"></path>
                        <g transform="translate(28.968421, 43.789474)" id="Shape" fill="#E6D4B6">
                            <g>
                                <path d="M12.7036632,1.08193684 L12.4483368,1.63974737 L12.1283368,2.1632 C12.0245895,2.33633684 11.8837895,2.49397895 11.7645474,2.65835789 C11.6486737,2.82543158 11.5125895,2.98105263 11.3778526,3.13734737 C11.2424421,3.29296842 11.1151158,3.45263158 10.9662316,3.59882105 C10.6839579,3.90063158 10.3989895,4.20042105 10.0958316,4.48538947 C9.95098947,4.63292632 9.79065263,4.76833684 9.63772632,4.90913684 C9.48547368,5.05128421 9.33658947,5.19545263 9.1776,5.33221053 C8.86905263,5.61178947 8.54837895,5.88126316 8.22703158,6.14871579 L7.25625263,6.94568421 C7.05010526,7.10736842 6.84058947,7.26905263 6.63174737,7.42669474 C6.42290526,7.26905263 6.21338947,7.10736842 6.00791579,6.94568421 L5.03646316,6.15006316 C4.71578947,5.88261053 4.39511579,5.61313684 4.08656842,5.33288421 C3.92757895,5.1968 3.77869474,5.05195789 3.62576842,4.91115789 C3.47351579,4.76968421 3.31250526,4.63427368 3.16766316,4.48673684 C2.86450526,4.20042105 2.58021053,3.90063158 2.29726316,3.60016842 C2.14770526,3.45330526 2.02037895,3.29498947 1.88564211,3.13869474 C1.75023158,2.98307368 1.61482105,2.82610526 1.49827368,2.65970526 C1.37970526,2.49465263 1.23890526,2.33701053 1.13515789,2.16387368 L0.815157895,1.64042105 L0.561178947,1.09069474 L0.396126316,0.481684211 L0.378610526,1.11023158 L0.4992,1.75427368 C0.559831579,1.96176842 0.64,2.16117895 0.713431579,2.36665263 C0.786863158,2.5728 0.896,2.75806316 0.986947368,2.95612632 C1.07856842,3.15553684 1.19646316,3.33608421 1.31031579,3.52067368 C1.42551579,3.70391579 1.53532632,3.89389474 1.664,4.06635789 C1.90787368,4.42610526 2.18138947,4.7616 2.45827368,5.0944 C3.01069474,5.76134737 3.62778947,6.37103158 4.25498947,6.96589474 C4.89633684,7.552 5.55654737,8.09633684 6.26189474,8.63393684 L6.62972632,8.91418947 L6.99890526,8.63393684 C7.7056,8.09768421 8.36446316,7.552 9.00783158,6.96656842 C9.63435789,6.37103158 10.2534737,5.76269474 10.8045474,5.09574737 C11.0814316,4.76294737 11.3549474,4.42677895 11.5994947,4.06770526 C11.7281684,3.89456842 11.8379789,3.70526316 11.9531789,3.52134737 C12.0677053,3.33743158 12.1849263,3.15621053 12.2765474,2.95747368 C12.3674947,2.75873684 12.4766316,2.57347368 12.5500632,2.36732632 C12.6228211,2.16117895 12.7036632,1.96109474 12.7636211,1.75494737 L12.8821895,1.11966316 L12.8673684,0.481684211 L12.7036632,1.08193684 L12.7036632,1.08193684 Z"></path>
                                <path d="M27.1946105,1.08193684 L26.9392842,1.63974737 L26.6192842,2.1632 C26.5155368,2.33633684 26.3747368,2.49397895 26.2554947,2.65835789 C26.1396211,2.82543158 26.0035368,2.98105263 25.8688,3.13734737 C25.7340632,3.29296842 25.6060632,3.45263158 25.4571789,3.59882105 C25.1749053,3.90063158 24.8899368,4.20042105 24.5874526,4.48538947 C24.4426105,4.63292632 24.2816,4.76833684 24.1293474,4.90913684 C23.9777684,5.05128421 23.8275368,5.19545263 23.6692211,5.33221053 C23.3606737,5.61178947 23.04,5.88126316 22.7186526,6.14871579 L21.7478737,6.94568421 C21.5424,7.10736842 21.3328842,7.26905263 21.1233684,7.42669474 C20.9138526,7.26905263 20.7050105,7.10736842 20.4995368,6.94568421 L19.5274105,6.15006316 C19.2067368,5.88261053 18.8860632,5.61313684 18.5775158,5.33288421 C18.4185263,5.1968 18.2696421,5.05195789 18.1167158,4.91115789 C17.9637895,4.76968421 17.8034526,4.63427368 17.6586105,4.48673684 C17.3554526,4.20042105 17.0718316,3.90063158 16.7882105,3.60016842 C16.6386526,3.45330526 16.5113263,3.29498947 16.3765895,3.13869474 C16.2418526,2.98307368 16.1057684,2.82610526 15.9898947,2.65970526 C15.8706526,2.49465263 15.7298526,2.33701053 15.6261053,2.16387368 L15.3067789,1.64042105 L15.0528,1.09069474 L14.8877474,0.481684211 L14.8702316,1.11023158 L14.9908211,1.75427368 C15.0514526,1.96176842 15.1322947,2.16117895 15.2050526,2.36665263 C15.2791579,2.5728 15.3876211,2.75806316 15.4792421,2.95612632 C15.5708632,3.15553684 15.6887579,3.33608421 15.8026105,3.52067368 C15.9171368,3.70391579 16.0269474,3.89389474 16.1562947,4.06635789 C16.4001684,4.42610526 16.6736842,4.7616 16.9505684,5.0944 C17.5029895,5.76134737 18.1200842,6.37103158 18.7472842,6.96589474 C19.3886316,7.552 20.0488421,8.09633684 20.7548632,8.63393684 L21.1226947,8.91418947 L21.4918737,8.63393684 C22.1985684,8.09768421 22.8574316,7.552 23.5001263,6.96656842 C24.1273263,6.37103158 24.7457684,5.76269474 25.2975158,5.09574737 C25.5744,4.76294737 25.8479158,4.42677895 26.0917895,4.06770526 C26.2211368,3.89456842 26.3302737,3.70526316 26.4454737,3.52134737 C26.5593263,3.33743158 26.6772211,3.15621053 26.7688421,2.95747368 C26.8597895,2.75873684 26.9682526,2.57347368 27.0423579,2.36732632 C27.1151158,2.16117895 27.1959579,1.96109474 27.2559158,1.75494737 L27.3751579,1.11966316 L27.3583158,0.482357895 L27.1946105,1.08193684 L27.1946105,1.08193684 Z"></path>
                                <path d="M41.8492632,0.481684211 L41.6855579,1.08261053 L41.4302316,1.64042105 L41.1102316,2.16387368 C41.0064842,2.33701053 40.8656842,2.49465263 40.7464421,2.65903158 C40.6305684,2.82610526 40.4944842,2.98172632 40.3590737,3.13802105 C40.2243368,3.29364211 40.0970105,3.45330526 39.9474526,3.59949474 C39.6645053,3.90130526 39.3802105,4.20109474 39.0770526,4.48606316 C38.9322105,4.6336 38.7712,4.76901053 38.6189474,4.90981053 C38.4666947,5.05195789 38.3178105,5.19612632 38.1588211,5.33288421 C37.8502737,5.61246316 37.5296,5.88193684 37.2082526,6.14938947 L36.2374737,6.94635789 C36.0313263,7.10804211 35.8218105,7.26972632 35.6129684,7.42736842 C35.4041263,7.26972632 35.1946105,7.10804211 34.9891368,6.94635789 L34.0176842,6.15073684 C33.6970105,5.88328421 33.3763368,5.61381053 33.0671158,5.33355789 C32.9088,5.19747368 32.7599158,5.05263158 32.6063158,4.91183158 C32.4533895,4.77035789 32.2930526,4.63494737 32.1482105,4.48741053 C31.8450526,4.20109474 31.5607579,3.90130526 31.2778105,3.60084211 C31.1282526,3.45397895 31.0009263,3.29566316 30.8661895,3.13936842 C30.7314526,2.98374737 30.5960421,2.82677895 30.4794947,2.66037895 C30.3609263,2.49532632 30.2201263,2.33768421 30.1157053,2.16454737 L29.7963789,1.64109474 L29.5424,1.09136842 L29.3780211,0.482357895 L29.3605053,1.11090526 L29.4810947,1.75494737 C29.5417263,1.96244211 29.6218947,2.16185263 29.6953263,2.36732632 C29.7687579,2.57347368 29.8778947,2.75873684 29.9688421,2.9568 C30.0604632,3.15621053 30.1783579,3.33675789 30.2922105,3.52134737 C30.4074105,3.70458947 30.5172211,3.89456842 30.6458947,4.06703158 C30.8890947,4.42677895 31.1632842,4.76227368 31.4401684,5.09507368 C31.9919158,5.76202105 32.6096842,6.37170526 33.2375579,6.96656842 C33.8789053,7.55267368 34.5391158,8.09701053 35.2444632,8.63461053 L35.6122947,8.91486316 L35.9814737,8.63461053 C36.6881684,8.09835789 37.3470316,7.55267368 37.9897263,6.96724211 C38.6169263,6.37170526 39.2353684,5.76336842 39.7871158,5.09642105 C40.064,4.76362105 40.3375158,4.42745263 40.5820632,4.06837895 C40.7107368,3.89524211 40.8205474,3.70593684 40.9357474,3.52202105 C41.0496,3.33810526 41.1674947,3.15688421 41.2591158,2.95814737 C41.3500632,2.75941053 41.4585263,2.57414737 41.5326316,2.368 C41.6053895,2.16185263 41.6862316,1.96176842 41.7461895,1.75562105 L41.8654316,1.12033684 L41.8492632,0.481684211 L41.8492632,0.481684211 Z"></path>
                            </g>
                            <g transform="translate(8.757895, 8.757895)">
                                <path d="M9.72934737,0.593515789 L9.53734737,1.08328421 L9.29684211,1.54273684 C9.21869474,1.69498947 9.11292632,1.83309474 9.02332632,1.97793684 C8.93642105,2.12412632 8.83402105,2.26155789 8.73229474,2.39764211 C8.63056842,2.5344 8.53490526,2.67385263 8.4224,2.80252632 C8.21018947,3.06728421 7.99595789,3.32934737 7.76825263,3.57995789 C7.65911579,3.70930526 7.53852632,3.82854737 7.424,3.95250526 C7.31014737,4.07713684 7.19764211,4.20311579 7.0784,4.32303158 C6.84597895,4.56825263 6.6048,4.80471579 6.36362105,5.03915789 L5.63334737,5.73776842 C5.47907368,5.87991579 5.32143158,6.02138947 5.16378947,6.15949474 C5.00682105,6.02138947 4.84917895,5.87991579 4.69490526,5.73776842 L3.96463158,5.04050526 C3.72345263,4.80471579 3.48227368,4.56892632 3.24985263,4.32303158 C3.13061053,4.20311579 3.01877895,4.07646316 2.90357895,3.95317895 C2.78905263,3.82854737 2.66778947,3.70997895 2.55932632,3.58063158 C2.33162105,3.33002105 2.11806316,3.06661053 1.90450526,2.8032 C1.792,2.6752 1.69633684,2.53507368 1.59528421,2.39831579 C1.49355789,2.26155789 1.39183158,2.12412632 1.30425263,1.97793684 C1.21465263,1.83309474 1.10955789,1.69498947 1.03141053,1.54341053 L0.790905263,1.08395789 L0.600252632,0.6016 L0.476294737,0.0666947368 L0.462821053,0.617768421 L0.553768421,1.18231579 C0.599578947,1.36488421 0.659536842,1.53936842 0.714778947,1.71991579 C0.770694737,1.90113684 0.852210526,2.06349474 0.920926316,2.23730526 C0.989642105,2.41246316 1.07856842,2.57077895 1.16412632,2.73178947 C1.25035789,2.8928 1.33322105,3.0592 1.43023158,3.21077895 C1.61347368,3.52606316 1.81962105,3.82046316 2.02778947,4.11284211 C2.44277895,4.6976 2.90694737,5.23250526 3.37852632,5.75393684 C3.86088421,6.26795789 4.35738947,6.7456 4.88757895,7.21717895 L5.16378947,7.46307368 L5.44134737,7.21717895 C5.97288421,6.74694737 6.46804211,6.26795789 6.95174737,5.75461053 C7.42265263,5.23250526 7.88816842,4.69894737 8.30315789,4.11284211 C8.51132632,3.82113684 8.7168,3.52606316 8.90071579,3.21145263 C8.99772632,3.0592 9.07991579,2.8928 9.16682105,2.73246316 C9.25237895,2.57077895 9.34063158,2.41178947 9.41002105,2.23730526 C9.47873684,2.06349474 9.56025263,1.90113684 9.61549474,1.71991579 C9.67006316,1.53936842 9.73069474,1.36421053 9.77650526,1.18231579 L9.86543158,0.625178947 L9.85263158,0.0660210526 L9.72934737,0.593515789 L9.72934737,0.593515789 Z"></path>
                                <path d="M24.1300211,0.593515789 L23.9380211,1.08328421 L23.6975158,1.54273684 C23.6193684,1.69498947 23.5136,1.83309474 23.424,1.97793684 C23.3370947,2.12412632 23.2346947,2.26155789 23.1329684,2.39764211 C23.0312421,2.5344 22.9355789,2.67385263 22.8230737,2.80252632 C22.6108632,3.06728421 22.3966316,3.32934737 22.1689263,3.57995789 C22.0597895,3.70930526 21.9392,3.82854737 21.8246737,3.95250526 C21.7101474,4.07713684 21.5983158,4.20311579 21.4784,4.32303158 C21.2459789,4.56825263 21.0054737,4.80471579 20.7636211,5.03915789 L20.0333474,5.73776842 C19.8784,5.87991579 19.7214316,6.02138947 19.5637895,6.15949474 C19.4068211,6.02138947 19.2498526,5.87991579 19.0949053,5.73776842 L18.3646316,5.04050526 C18.1234526,4.80471579 17.8822737,4.56892632 17.6505263,4.32303158 C17.5312842,4.20311579 17.4194526,4.07646316 17.3042526,3.95317895 C17.1897263,3.82854737 17.0684632,3.70997895 16.96,3.58063158 C16.7322947,3.33002105 16.5187368,3.06661053 16.3058526,2.8032 C16.1933474,2.6752 16.0976842,2.53507368 15.9966316,2.39831579 C15.8949053,2.26155789 15.7931789,2.12412632 15.7056,1.97793684 C15.6166737,1.83309474 15.5102316,1.69498947 15.4327579,1.54341053 L15.1929263,1.08395789 L15.0022737,0.6016 L14.8783158,0.0666947368 L14.8648421,0.617768421 L14.9551158,1.18231579 C15.0009263,1.36488421 15.0615579,1.53936842 15.1161263,1.71991579 C15.1713684,1.90113684 15.2535579,2.06349474 15.3222737,2.23730526 C15.3909895,2.41246316 15.4792421,2.57077895 15.5654737,2.73178947 C15.6517053,2.8928 15.7345684,3.0592 15.8315789,3.21077895 C16.0148211,3.52606316 16.2202947,3.82046316 16.4284632,4.11284211 C16.8434526,4.6976 17.3076211,5.23250526 17.7792,5.75393684 C18.2615579,6.26795789 18.7580632,6.7456 19.2882526,7.21717895 L19.5651368,7.46307368 L19.8426947,7.21717895 C20.3742316,6.74694737 20.8687158,6.26795789 21.3524211,5.75461053 C21.824,5.23250526 22.2888421,4.69894737 22.7038316,4.11284211 C22.912,3.82113684 23.1174737,3.52606316 23.3013895,3.21145263 C23.3984,3.0592 23.4812632,2.8928 23.5674947,2.73246316 C23.6537263,2.57077895 23.7413053,2.41178947 23.8106947,2.23730526 C23.8794105,2.06349474 23.9609263,1.90113684 24.0168421,1.71991579 C24.0714105,1.53936842 24.1320421,1.36421053 24.1771789,1.18231579 L24.2667789,0.625178947 L24.2539789,0.0660210526 L24.1300211,0.593515789 L24.1300211,0.593515789 Z"></path>
                            </g>
                        </g>
                        <g transform="translate(10.105263, 7.410526)">
                            <g>
                                <ellipse id="Oval" fill="#5C281E" cx="15.7743158" cy="15.9831579" rx="15.7022316" ry="15.8558316"></ellipse>
                                <ellipse id="Oval" fill="#8C3E2E" cx="15.7743158" cy="15.9831579" rx="13.9041684" ry="14.0395789"></ellipse>
                                <ellipse id="Oval" fill="#FFD580" cx="15.7743158" cy="15.9831579" rx="10.2170947" ry="10.3168"></ellipse>
                                <g opacity="0.2" transform="translate(2.021053, 2.021053)" id="Shape" fill="#FFFFFF">
                                    <path d="M14.8547368,26.496 C14.8547368,27.1097263 14.3622737,27.6075789 13.7539368,27.6075789 L13.7539368,27.6075789 C13.1456,27.6075789 12.6531368,27.1097263 12.6531368,26.496 L12.6531368,1.42888421 C12.6531368,0.814484211 13.1456,0.317305263 13.7539368,0.317305263 L13.7539368,0.317305263 C14.3622737,0.317305263 14.8547368,0.815157895 14.8547368,1.42888421 L14.8547368,26.496 L14.8547368,26.496 Z"></path>
                                    <path d="M26.1658947,12.8505263 C26.7735579,12.8505263 27.2666947,13.3483789 27.2666947,13.9621053 L27.2666947,13.9621053 C27.2666947,14.5765053 26.7735579,15.0736842 26.1658947,15.0736842 L1.34130526,15.0736842 C0.733642105,15.0736842 0.240505263,14.5758316 0.240505263,13.9621053 L0.240505263,13.9621053 C0.240505263,13.3477053 0.733642105,12.8505263 1.34130526,12.8505263 L26.1658947,12.8505263 L26.1658947,12.8505263 Z"></path>
                                    <path d="M23.3088,22.0389053 C23.7386105,22.4734316 23.7386105,23.1767579 23.3088,23.6112842 L23.3088,23.6112842 C22.8789895,24.0458105 22.1817263,24.0458105 21.7512421,23.6112842 L4.1984,5.88597895 C3.76858947,5.45145263 3.76858947,4.74812632 4.1984,4.3136 L4.1984,4.3136 C4.62821053,3.87974737 5.32547368,3.87974737 5.75528421,4.3136 L23.3088,22.0389053 L23.3088,22.0389053 Z"></path>
                                    <path d="M21.7512421,4.3136 C22.1810526,3.87974737 22.8783158,3.87974737 23.3088,4.3136 L23.3088,4.3136 C23.7386105,4.74812632 23.7386105,5.45145263 23.3088,5.88597895 L5.75528421,23.6112842 C5.32547368,24.0458105 4.62821053,24.0458105 4.1984,23.6112842 L4.1984,23.6112842 C3.76858947,23.1767579 3.76858947,22.4734316 4.1984,22.0389053 L21.7512421,4.3136 L21.7512421,4.3136 Z"></path>
                                </g>
                                <ellipse id="Oval" fill="#383838" cx="15.7743158" cy="15.9831579" rx="4.608" ry="4.65313684"></ellipse>
                                <ellipse id="Oval" fill="#FFFFFF" cx="11.6540632" cy="11.9700211" rx="2.88067368" ry="2.90829474"></ellipse>
                            </g>
                            <g transform="translate(47.831579, 0.000000)">
                                <ellipse id="Oval" fill="#5C281E" cx="16.3651368" cy="15.9831579" rx="15.7022316" ry="15.8558316"></ellipse>
                                <ellipse id="Oval" fill="#8C3E2E" cx="16.3651368" cy="15.9831579" rx="13.9041684" ry="14.0395789"></ellipse>
                                <ellipse id="Oval" fill="#FFD580" cx="16.3651368" cy="15.9831579" rx="10.2164211" ry="10.3168"></ellipse>
                                <g opacity="0.2" transform="translate(2.694737, 2.021053)" id="Shape" fill="#FFFFFF">
                                    <path d="M14.7718737,26.496 C14.7718737,27.1097263 14.2787368,27.6075789 13.6704,27.6075789 L13.6704,27.6075789 C13.0627368,27.6075789 12.5696,27.1097263 12.5696,26.496 L12.5696,1.42888421 C12.5696,0.814484211 13.0627368,0.317305263 13.6704,0.317305263 L13.6704,0.317305263 C14.2787368,0.317305263 14.7718737,0.815157895 14.7718737,1.42888421 L14.7718737,26.496 L14.7718737,26.496 Z"></path>
                                    <path d="M26.0823579,12.8505263 C26.6906947,12.8505263 27.1831579,13.3483789 27.1831579,13.9621053 L27.1831579,13.9621053 C27.1831579,14.5765053 26.6906947,15.0736842 26.0823579,15.0736842 L1.25844211,15.0736842 C0.650105263,15.0736842 0.156968421,14.5758316 0.156968421,13.9621053 L0.156968421,13.9621053 C0.156968421,13.3477053 0.650105263,12.8505263 1.25844211,12.8505263 L26.0823579,12.8505263 L26.0823579,12.8505263 Z"></path>
                                    <path d="M23.2252632,22.0389053 C23.6550737,22.4734316 23.6550737,23.1767579 23.2252632,23.6112842 L23.2252632,23.6112842 C22.7954526,24.0458105 22.0981895,24.0458105 21.6683789,23.6112842 L4.11553684,5.88597895 C3.68505263,5.45145263 3.68505263,4.74812632 4.11553684,4.3136 L4.11553684,4.3136 C4.54534737,3.87974737 5.24261053,3.87974737 5.67242105,4.3136 L23.2252632,22.0389053 L23.2252632,22.0389053 Z"></path>
                                    <path d="M21.6683789,4.3136 C22.0988632,3.87974737 22.7954526,3.87974737 23.2252632,4.3136 L23.2252632,4.3136 C23.6550737,4.74812632 23.6550737,5.45145263 23.2252632,5.88597895 L5.67242105,23.6112842 C5.24261053,24.0458105 4.54534737,24.0458105 4.11553684,23.6112842 L4.11553684,23.6112842 C3.68505263,23.1767579 3.68505263,22.4734316 4.11553684,22.0389053 L21.6683789,4.3136 L21.6683789,4.3136 Z"></path>
                                </g>
                                <ellipse id="Oval" fill="#383838" cx="16.3651368" cy="15.9831579" rx="4.608" ry="4.65313684"></ellipse>
                                <ellipse id="Oval" fill="#FFFFFF" cx="12.2448842" cy="11.9700211" rx="2.88067368" ry="2.90829474"></ellipse>
                            </g>
                        </g>
                        <path d="M50.0911158,0.800336842 C22.0106105,0.800336842 7.71907368,5.31334737 7.71907368,5.31334737 C37.5545263,10.8833684 50.0911158,28.2192842 50.0911158,28.2192842 C50.0911158,28.2192842 62.6270316,10.8833684 92.4624842,5.31334737 C92.4624842,5.31267368 78.1716211,0.800336842 50.0911158,0.800336842 L50.0911158,0.800336842 Z" id="Shape" fill="#F5B83D"></path>
                        <path d="M50.0911158,0.769347368 C49.4383158,0.769347368 48.7895579,0.783494737 48.1448421,0.809768421 C22.4821895,1.00311579 8.89802105,4.95562105 7.80058947,5.28842105 L7.72378947,5.29381053 C4.95494737,3.96058947 2.35048421,2.31006316 0.458105263,0.297768421 C0.458105263,0.297768421 -1.86138947,2.69541053 3.93701053,11.4297263 C9.73541053,20.1640421 0.264757895,34.0365474 3.93701053,41.9146105 C3.93701053,41.9146105 5.09642105,39.3957053 7.18955789,39.1895579 C7.18955789,39.1895579 3.70189474,45.9890526 7.07368421,50.6246737 C7.07368421,50.6246737 7.18955789,48.3584 8.81717895,47.6375579 C8.81717895,47.6375579 9.39856842,51.7578105 13.0027789,51.8615579 C13.0027789,51.8615579 12.7703579,49.8007579 13.5841684,49.1829895 C13.5841684,49.1829895 15.1289263,50.8207158 18.5296842,50.1173895 C25.4969263,58.2110316 37.0304,63.5068632 50.0911158,63.5068632 L50.0911158,0.769347368 L50.0911158,0.769347368 Z" id="Shape" fill="#FFFFFF" opacity="0.2"></path>
                    </g>
                </g>
            </g>
        </g>
    </g>
</svg>