<?xml version="1.0" encoding="UTF-8" standalone="no"?>
<svg width="85px" height="80px" viewBox="0 0 85 80" version="1.1" xmlns="http://www.w3.org/2000/svg" xmlns:xlink="http://www.w3.org/1999/xlink">
    <!-- Generator: Sketch 39 (31667) - http://www.bohemiancoding.com/sketch -->
    <title>treasure</title>
    <desc>Created with Sketch.</desc>
    <defs></defs>
    <g id="Page-1" stroke="none" stroke-width="1" fill="none" fill-rule="evenodd">
        <g id="Desktop-HD-Copy-4" transform="translate(-519.000000, -787.000000)">
            <g id="treasure" transform="translate(519.000000, 787.000000)">
                <g id="Layer_1">
                    <polygon id="Shape" fill="#D7835F" points="1.54859375 51.1428423 8.18921875 78.2022044 76.3671875 78.2022044 83.671875 52.6592194"></polygon>
                    <rect id="Rectangle-path" fill="#A9B1BC" x="33.203125" y="52.1886994" width="18.1504883" height="16.5326763"></rect>
                    <path d="M45.8203125,58.3087656 C45.8203125,59.982699 44.4584863,61.3388745 42.7749219,61.3388745 C41.0940137,61.3388745 39.7321875,59.982699 39.7321875,58.3087656 C39.7321875,56.6321869 41.0940137,55.2760114 42.7749219,55.2760114 C44.4584863,55.2760114 45.8203125,56.6321869 45.8203125,58.3087656 L45.8203125,58.3087656 Z" id="Shape" fill="#424953"></path>
                    <polygon id="Shape" fill="#D7835E" points="79.6875 7.00307637 72.3828125 2.59364627 23.35375 2.15189315 11.2890625 2.15189315 4.6484375 11.190638 1.54859375 25.0780861 12.3967188 25.0780861 57.3298438 25.0780861 82.2321875 23.9750259 83.2282812 19.1263226"></polygon>
                    <rect id="Rectangle-path" fill="#A9B1BC" x="34.2822266" y="17.8288382" width="16.5185547" height="5.95176349"></rect>
                    <g id="Group" transform="translate(2.822266, 24.633688)" fill="#955D45">
                        <polygon id="Shape" points="0.609609375 0.00264522822 4.92601562 8.59963693 56.8344531 8.59963693 75.0961719 8.59963693 79.4125781 0.44439834"></polygon>
                        <polygon id="Shape" points="0.163359375 28.0255316 4.47976563 6.75260633 56.3882031 6.75260633 74.6499219 6.75260633 78.9663281 26.9302418"></polygon>
                    </g>
                    <polygon id="Shape" fill="#FFDE00" points="62.9199219 45.1084155 61.8408203 41.55389 57.9394531 39.4873055 55.9472656 36.7594139 51.3818359 34.7754927 48.8916016 33.1222251 46.7333984 30.9729772 39.6777344 29.9810166 35.9423828 31.2209673 33.7011719 34.6928294 28.3886719 37.007404 27.7246094 39.84375 22.9101562 40.5619295 21.3330078 43.2071577 20.0048828 46.9270099 16.0205078 47.5883169 12.2851562 51.1428423 70.4736328 50.4815353 70.4736328 48.0842972"></polygon>
                    <path d="M78.7173047,34.2897627 L84.989541,24.8481166 C84.989541,24.8481166 85.785918,1.37948651 70.8237598,0.160201634 L42.5051465,0.160201634 L42.4946875,0.160201634 L14.1762402,0.160201634 C-0.783427734,1.37948651 0.0104589844,24.8481166 0.0104589844,24.8481166 L6.30859375,34.2019742 L0,51.2926284 L7.08421875,79.5170481 L77.9157812,79.5274637 L85,51.303044 L78.7173047,34.2897627 L78.7173047,34.2897627 Z M80.569541,49.5204908 L72.5929883,49.5204908 C72.398418,47.1103572 69.1325586,45.1495818 64.9355176,44.834469 C65.2780078,44.3049274 65.4672656,43.7340541 65.4672656,43.1347446 C65.4672656,40.7375065 62.4245312,38.7329195 58.3803906,38.2756256 C58.3830469,38.2420643 58.3855371,38.2109829 58.3855371,38.1774216 C58.3855371,37.15967 57.8355273,36.2141662 56.896543,35.4262189 L75.363125,35.4288641 L75.3943359,35.5088823 L80.569541,49.5204908 L80.569541,49.5204908 Z M35.3664746,53.0441001 L49.5322559,53.0441001 L49.5322559,67.1639977 L42.5,67.1639977 L35.3664746,67.1639977 L35.3664746,53.0441001 L35.3664746,53.0441001 Z M51.4155371,49.5180109 C51.3791797,49.5153657 51.340332,49.5128858 51.3013184,49.5128858 L44.7385547,49.5128858 C44.9565332,49.3655796 45.2470605,49.2002529 45.6308887,49.0349261 C46.7255957,48.5698619 48.131582,48.3167466 49.5842188,48.3167466 C51.0341992,48.3167466 52.4376953,48.5698619 53.5348926,49.0349261 C53.9240332,49.2002529 54.2170508,49.3707047 54.4350293,49.5206561 L51.4155371,49.5180109 L51.4155371,49.5180109 Z M49.5322559,39.6113006 C48.0796191,39.6113006 46.6762891,39.3528948 45.5789258,38.887996 C44.9719727,38.6295902 44.593125,38.3662247 44.3856055,38.1775869 C44.4322559,38.13361 44.4920215,38.0871531 44.5594238,38.0355712 C46.1080176,37.8237876 47.4959082,37.3820345 48.6033984,36.7800797 C48.9095312,36.7594139 49.2208105,36.7438732 49.5320898,36.7438732 C50.9847266,36.7438732 52.3880566,37.0022789 53.4854199,37.4671778 C54.0898828,37.7229383 54.4685645,37.988949 54.6787402,38.1775869 C54.4685645,38.3662247 54.0898828,38.6295902 53.4854199,38.887996 C52.3883887,39.3528948 50.9848926,39.6113006 49.5322559,39.6113006 L49.5322559,39.6113006 Z M47.4208691,42.9927289 C47.4882715,43.0444761 47.5480371,43.0934129 47.5973438,43.1347446 C47.3846777,43.3258623 47.0084863,43.5893932 46.4015332,43.8477989 C45.3043359,44.3128631 43.9034961,44.5684582 42.4508594,44.5684582 C40.9982227,44.5684582 39.5922363,44.3126977 38.4975293,43.8477989 C37.8905762,43.5893932 37.5117285,43.3260276 37.3017188,43.1347446 C37.3510254,43.0934129 37.4081348,43.0443108 37.4755371,42.9927289 C39.0267871,42.7809453 40.4120215,42.3391922 41.522168,41.7398827 C41.8283008,41.7165716 42.1369238,41.7036761 42.4508594,41.7036761 C42.7621387,41.7036761 43.073418,41.7165716 43.3768945,41.7398827 C44.4843848,42.3391922 45.8747656,42.7809453 47.4208691,42.9927289 L47.4208691,42.9927289 Z M39.3198047,38.887996 C38.2226074,39.3530602 36.8191113,39.6113006 35.3664746,39.6113006 C33.9138379,39.6113006 32.5105078,39.3528948 31.4158008,38.887996 C30.8088477,38.6295902 30.43,38.3662247 30.217334,38.1775869 C30.43,37.988949 30.8088477,37.7229383 31.4158008,37.4671778 C32.5105078,37.0021136 33.9164941,36.7438732 35.3664746,36.7438732 C35.6804102,36.7438732 35.9890332,36.7594139 36.2925098,36.7800797 C37.4028223,37.3820345 38.7905469,37.8237876 40.3391406,38.0355712 C40.406543,38.0873185 40.4663086,38.1337753 40.5156152,38.1775869 C40.3029492,38.3662247 39.9241016,38.6295902 39.3198047,38.887996 L39.3198047,38.887996 Z M35.4157812,48.3167466 C36.868418,48.3167466 38.2744043,48.5698619 39.3691113,49.0349261 C39.7531055,49.2002529 40.0436328,49.3655796 40.2614453,49.5128858 L33.5949219,49.5128858 C33.5715137,49.5128858 33.5482715,49.515531 33.522207,49.515531 L30.5702832,49.515531 C30.7856055,49.3657449 31.0787891,49.2004182 31.4652734,49.0350914 C32.5624707,48.5698619 33.9658008,48.3167466 35.4157812,48.3167466 L35.4157812,48.3167466 Z M58.894043,49.5204908 C59.1120215,49.3707047 59.4050391,49.2000875 59.7941797,49.0347608 C60.891377,48.5696966 62.294873,48.3165813 63.7475098,48.3165813 C65.2001465,48.3165813 66.6034766,48.5696966 67.7008398,49.0347608 C68.0899805,49.2000875 68.3856543,49.3705394 68.6036328,49.5204908 L58.894043,49.5204908 L58.894043,49.5204908 Z M60.5671484,43.8477989 C59.4699512,44.3128631 58.0664551,44.5684582 56.6138184,44.5684582 C55.1611816,44.5684582 53.7578516,44.3126977 52.6604883,43.8477989 C52.0560254,43.5893932 51.6773437,43.3260276 51.467168,43.1347446 C51.5138184,43.0934129 51.573584,43.0443108 51.6436426,42.9927289 C53.1897461,42.7809453 54.5774707,42.3391922 55.6876172,41.7398827 C55.9910937,41.7165716 56.302373,41.7036761 56.6136523,41.7036761 C58.0662891,41.7036761 59.4696191,41.9594366 60.5669824,42.4243355 C61.1739355,42.680096 61.5527832,42.9487519 61.762793,43.1347446 C61.5529492,43.3260276 61.1741016,43.5893932 60.5671484,43.8477989 L60.5671484,43.8477989 Z M46.4013672,33.9281931 C45.3041699,34.3932573 43.9033301,34.6514977 42.4506934,34.6514977 C40.9980566,34.6514977 39.5920703,34.3930919 38.4973633,33.9281931 C37.8904102,33.6724326 37.5115625,33.4064218 37.3015527,33.2204292 C37.5117285,33.0293115 37.8904102,32.7657806 38.4973633,32.5073749 C39.5920703,32.0423107 40.9980566,31.7867155 42.4506934,31.7867155 C43.9033301,31.7867155 45.3041699,32.042476 46.4013672,32.5073749 C47.0083203,32.7657806 47.3845117,33.0291461 47.5971777,33.2204292 C47.3845117,33.4064218 47.0083203,33.6724326 46.4013672,33.9281931 L46.4013672,33.9281931 Z M29.2109473,41.7398827 C30.3212598,42.3391922 31.7089844,42.7809453 33.2575781,42.9927289 C33.3249805,43.0444761 33.3820898,43.0934129 33.4340527,43.1347446 C33.2213867,43.3258623 32.8425391,43.5893932 32.2355859,43.8477989 C31.1408789,44.3128631 29.7348926,44.5684582 28.2849121,44.5684582 C26.8322754,44.5684582 25.4289453,44.3126977 24.331582,43.8477989 C23.7271191,43.5893932 23.3484375,43.3260276 23.1357715,43.1347446 C23.3484375,42.9487519 23.7272852,42.680096 24.331582,42.4243355 C25.4287793,41.9592713 26.8322754,41.7036761 28.2849121,41.7036761 C28.5961914,41.7036761 28.9048145,41.7165716 29.2109473,41.7398827 L29.2109473,41.7398827 Z M25.2058203,49.0349261 C25.5898145,49.2002529 25.8854883,49.3655796 26.1008105,49.5153657 L16.4069922,49.5153657 C16.6223145,49.3655796 16.915498,49.2002529 17.2993262,49.0349261 C18.3965234,48.5698619 19.8000195,48.3167466 21.2526563,48.3167466 C22.705293,48.3167466 24.108623,48.5698619 25.2058203,49.0349261 L25.2058203,49.0349261 Z M31.8256934,53.0441001 L31.8256934,68.925885 C31.8256934,69.9023048 32.6194141,70.6902522 33.5947559,70.6902522 L51.3013184,70.6902522 C52.2818066,70.6902522 53.0730371,69.9023048 53.0730371,68.925885 L53.0730371,53.0441001 L72.068877,53.0492252 L66.3049805,75.9987293 L18.6013867,75.9909589 L12.8481152,53.038975 L31.8256934,53.0441001 L31.8256934,53.0441001 Z M8.34494141,6.81972899 C9.95330078,4.93913706 11.9142773,3.91609505 14.3319629,3.68877075 L42.4950195,3.68877075 L42.5054785,3.68877075 L70.6685352,3.68877075 C73.0706152,3.91344982 75.0161523,4.92359634 76.616543,6.77575207 C78.0691797,8.45745591 79.2312891,10.8082372 80.0691699,13.7685782 C81.0938184,17.4006419 81.36625,21.0480809 81.4336523,23.0862293 L53.0735352,23.083584 L53.0735352,17.7931276 C53.0735352,16.8167077 52.2823047,16.0287604 51.3018164,16.0287604 L33.5947559,16.0287604 C32.6194141,16.0287604 31.8256934,16.8167077 31.8256934,17.7931276 L31.8256934,23.0809388 L3.56418945,23.0782936 C3.62910156,21.0710613 3.89356445,17.5087656 4.8949707,13.900013 C5.72753906,10.9064413 6.88699219,8.52474391 8.34494141,6.81972899 L8.34494141,6.81972899 Z M35.3664746,23.0811041 L35.3664746,19.5550149 L49.5322559,19.5550149 L49.5322559,23.0837494 L43.0576465,23.0837494 L35.3664746,23.0811041 L35.3664746,23.0811041 Z M5.45510742,26.6047134 L79.570791,26.6124838 L76.0585645,31.9029402 L50.9850586,31.8978151 C49.9526074,29.8001491 46.5233887,28.2606263 42.4508594,28.2606263 C38.3783301,28.2606263 34.9489453,29.8003144 33.9166602,31.8978151 L9.01946289,31.89269 L5.45510742,26.6047134 L5.45510742,26.6047134 Z M9.6315625,35.4212591 L28.0075,35.4212591 C27.0632031,36.2116863 26.5133594,37.1571901 26.5133594,38.1775869 C26.5133594,38.2111482 26.5185059,38.2422296 26.5185059,38.275791 C22.4745313,38.7330848 19.4316309,40.7376718 19.4316309,43.1349099 C19.4316309,43.7342194 19.6210547,44.3102178 19.9685254,44.8399248 C15.820791,45.1809939 12.6067285,47.1260633 12.4070117,49.515531 L4.43045898,49.5128858 L9.6315625,35.4212591 L9.6315625,35.4212591 Z M4.08813477,53.038975 L9.19826172,53.038975 L14.949209,75.9909589 L9.849375,75.9883137 L4.08813477,53.038975 L4.08813477,53.038975 Z M75.150625,75.9987293 L69.9521777,75.9987293 L75.7185645,53.0492252 L80.9116992,53.0492252 L75.150625,75.9987293 L75.150625,75.9987293 Z" id="Shape" fill="#000000"></path>
                    <path d="M44.2717188,65.4022757 C44.2717188,65.2576148 44.2509668,65.1207242 44.2197559,64.9889588 L44.2197559,63.3512318 C46.3105566,62.6408227 47.8125,60.6697971 47.8125,58.347452 C47.8125,55.4257975 45.4338281,53.0596408 42.5,53.0596408 C39.5661719,53.0596408 37.1875,55.4259628 37.1875,58.347452 C37.1875,60.6335905 38.642793,62.57618 40.6789746,63.3201504 L40.6789746,65.4022757 L40.7282813,65.4022757 C40.7282813,66.3735704 41.522002,67.1639977 42.5,67.1639977 C43.477998,67.1639977 44.2717188,66.3735704 44.2717188,65.4022757 L44.2717188,65.4022757 Z M42.5,56.5830848 C43.477998,56.5830848 44.2717188,57.3735121 44.2717188,58.347452 C44.2717188,59.321392 43.477998,60.1118192 42.5,60.1118192 C41.522002,60.1118192 40.7282813,59.321392 40.7282813,58.347452 C40.7282813,57.3735121 41.522002,56.5830848 42.5,56.5830848 L42.5,56.5830848 Z" id="Shape" fill="#000000"></path>
                </g>
            </g>
        </g>
    </g>
</svg>