<?xml version="1.0" encoding="UTF-8" standalone="no"?>
<svg width="101px" height="100px" viewBox="0 0 101 100" version="1.1" xmlns="http://www.w3.org/2000/svg" xmlns:xlink="http://www.w3.org/1999/xlink">
    <!-- Generator: Sketch 39 (31667) - http://www.bohemiancoding.com/sketch -->
    <title>wolf</title>
    <desc>Created with Sketch.</desc>
    <defs></defs>
    <g id="Page-1" stroke="none" stroke-width="1" fill="none" fill-rule="evenodd">
        <g id="Desktop-HD-Copy-3" transform="translate(-692.000000, -418.000000)">
            <g id="Group-3" transform="translate(650.757652, 375.000000)">
                <g id="wolf" transform="translate(41.445262, 43.431818)">
                    <g id="Capa_1">
                        <g id="Group">
                            <g>
                                <g transform="translate(8.761478, 71.955062)" id="Shape" fill="#676C70">
                                    <path d="M72.4587702,1.04704702 C72.4587702,1.04704702 83.2508891,8.46178076 82.8532528,27.2447418 C82.8532528,27.2447418 71.62306,6.78932993 48.648443,10.8564721 C48.648443,10.8571446 53.582503,-2.54196386 72.4587702,1.04704702 L72.4587702,1.04704702 Z"></path>
                                    <path d="M10.8352523,1.04704702 C10.8352523,1.04704702 0.0424594698,8.46178076 0.440769734,27.2447418 C0.440769734,27.2447418 11.6709625,6.78932993 34.6455795,10.8564721 C34.6455795,10.8571446 29.7108455,-2.54196386 10.8352523,1.04704702 L10.8352523,1.04704702 Z"></path>
                                </g>
                                <g transform="translate(2.695839, 64.557812)" id="Shape" fill="#62686B">
                                    <path d="M83.1491211,1.0416672 C83.1491211,1.0416672 95.5614395,8.45640094 95.1038208,27.2400344 C95.1038208,27.2400344 82.1873804,6.78395011 55.764785,10.8517648 C55.764785,10.8517648 61.4402008,-2.54734368 83.1491211,1.0416672 L83.1491211,1.0416672 Z"></path>
                                    <path d="M12.2761785,1.0416672 C12.2761785,1.0416672 -0.136813847,8.45640094 0.321478843,27.2400344 C0.321478843,27.2400344 13.2372452,6.78395011 39.6605146,10.8517648 C39.6605146,10.8517648 33.9850988,-2.54734368 12.2761785,1.0416672 L12.2761785,1.0416672 Z"></path>
                                </g>
                                <path d="M90.065971,57.425519 C96.7226723,59.137646 99.697531,63.9895691 99.697531,63.9895691 C98.7054621,46.2946762 84.259133,38.5887598 84.259133,38.5887598 L75.6196418,9.33465618 C70.2380725,13.1872781 56.3578696,18.8959372 50.4088261,18.8959372 C44.4604566,18.8959372 30.5802537,13.1879506 25.1980104,9.33465618 L16.5585193,38.5887598 C16.5585193,38.5887598 2.11151617,46.2946762 1.12012125,63.9895691 C1.12012125,63.9895691 4.09430602,59.137646 10.7510073,57.425519 C10.7510073,57.425519 -1.99559508,64.7030674 0.270257895,77.5467097 C6.360159,69.8407933 23.6398153,64.9888702 31.8547118,68.9847298 C40.0689343,72.9805894 39.2197449,80.4013754 40.2104659,86.2519272 C40.7738963,89.577327 41.4525738,93.2006342 43.6928163,95.0136328 C45.393891,96.3908661 48.4516468,96.3834689 50.4081522,96.3834689 C52.3646576,96.3834689 55.4224134,96.3908661 57.124162,95.0136328 C59.3644045,93.1999617 60.0424081,89.577327 60.6058385,86.2519272 C61.5979074,80.4013754 60.748044,72.9805894 68.9622665,68.9847298 C77.177163,64.9888702 94.4561454,69.8414658 100.54672,77.5467097 C102.813247,64.7037399 90.065971,57.425519 90.065971,57.425519 L90.065971,57.425519 Z" id="Shape" fill="#676C70"></path>
                                <g transform="translate(15.501076, 0.000000)" id="Shape">
                                    <g>
                                        <path d="M5.96589249,0.109613786 C7.17430248,-0.504357909 12.1784543,3.6710531 15.7106778,9.02867905 C18.6787969,13.530914 20.6979806,22.0666672 20.3785236,25.8338846 C19.8838371,31.6541748 9.34849692,40.2329666 2.18093404,41.5516944 C-2.20721847,29.6838166 1.12888273,2.56550056 5.96589249,0.109613786 L5.96589249,0.109613786 Z" fill="#B8B8B8"></path>
                                        <path d="M7.14127845,5.75573246 C8.02012208,5.30920759 11.6588312,8.3454422 14.2272922,12.2404302 C16.3853116,15.5147218 17.8538701,21.7210139 17.62068,24.4600136 C17.2614594,28.6919127 9.60123186,34.9298113 4.38882647,35.8887638 C1.19830059,27.2595363 3.62455601,7.54183193 7.14127845,5.75573246 L7.14127845,5.75573246 Z" fill="#787D82"></path>
                                    </g>
                                    <g transform="translate(49.199068, 0.000000)">
                                        <path d="M14.649865,0.109613786 C13.4407811,-0.504357909 8.43730322,3.6710531 4.90507971,9.02867905 C1.93628662,13.530914 -0.0828970602,22.0666672 0.237233863,25.8338846 C0.731246425,31.6541748 11.2672606,40.2329666 18.4348235,41.5516944 C22.822976,29.6838166 19.4868748,2.56550056 14.649865,0.109613786 L14.649865,0.109613786 Z" fill="#B8B8B8"></path>
                                        <path d="M13.4744791,5.75573246 C12.5949615,5.30920759 8.95692626,8.3454422 6.38846531,12.2404302 C4.22977195,15.5147218 2.76121346,21.7210139 2.99440356,24.4600136 C3.35429812,28.6919127 11.0145256,34.9298113 16.2262571,35.8887638 C19.4174569,27.2595363 16.9912015,7.54183193 13.4744791,5.75573246 L13.4744791,5.75573246 Z" fill="#787D82"></path>
                                    </g>
                                </g>
                                <path d="M68.098924,59.2822286 L68.098924,65.9390805 L50.4142178,65.9390805 L50.4020865,65.9390805 L32.7173804,65.9390805 L32.7173804,59.2822286 C27.1922576,56.2103527 17.8356732,58.5135871 17.8356732,62.6103183 C17.8356732,66.7070495 30.2095758,73.3248977 37.170233,89.4939398 C40.6364085,97.546182 48.3532486,97.9503408 50.3185155,97.9678252 L50.3185155,97.9684976 L50.4088261,97.9684976 L50.4998107,97.9684976 L50.4998107,97.9678252 C52.4644036,97.9503408 60.1805698,97.546182 63.6474192,89.4939398 C70.6080765,73.3248977 82.9819791,66.7070495 82.9819791,62.6103183 C82.9813051,58.5135871 73.6247207,56.2103527 68.098924,59.2822286 L68.098924,59.2822286 Z" id="Shape" fill="#B8B8B8"></path>
                                <path d="M50.4081522,89.4240022 L43.4522127,94.8932594 C43.4522127,94.8932594 44.5797475,98.460751 50.4081522,98.460751 C56.2365569,98.460751 57.3647656,94.8932594 57.3647656,94.8932594 L50.4081522,89.4240022 L50.4081522,89.4240022 Z" id="Shape" fill="#525759"></path>
                                <path d="M31.8547118,64.8597546 C40.0689343,69.4568088 39.2197449,77.9945795 40.2104659,84.7260764 C40.7738963,88.5524717 41.4525738,92.7204855 43.6928163,94.8071823 C45.393891,96.3915386 48.4516468,96.3834689 50.4081522,96.3834689 C52.3646576,96.3834689 55.4224134,96.3915386 57.124162,94.8071823 C59.3644045,92.721158 60.0424081,88.5524717 60.6058385,84.7260764 C61.5979074,77.9945795 60.748044,69.4568088 68.9622665,64.8597546 C77.177163,60.2633729 23.6391413,60.2633729 31.8547118,64.8597546 L31.8547118,64.8597546 Z" id="Shape" fill="#676C70"></path>
                                <g transform="translate(25.610474, 47.073405)" id="Shape" fill="#838C8F">
                                    <path d="M49.3244248,22.5125196 C49.3244248,22.5125196 50.5382264,8.75094596 45.9856277,3.39869983 C41.432355,-1.95287382 34.60312,0.952227732 33.9958822,5.08123781 C33.3893183,9.20957542 34.351733,17.6720286 37.3346792,19.3014409 C40.3169515,20.9315257 49.3244248,22.5125196 49.3244248,22.5125196 L49.3244248,22.5125196 Z"></path>
                                    <path d="M0.271605815,22.5125196 C0.271605815,22.5125196 -0.942869814,8.75094596 3.61040286,3.39869983 C8.16367553,-1.95287382 14.9929106,0.952227732 15.5994744,5.08123781 C16.2067122,9.20957542 15.2436236,17.6720286 12.2606774,19.3014409 C9.2784051,20.9315257 0.271605815,22.5125196 0.271605815,22.5125196 L0.271605815,22.5125196 Z"></path>
                                </g>
                                <g transform="translate(30.328193, 50.435791)">
                                    <g transform="translate(27.632353, 0.000000)">
                                        <path d="M0.5000782,9.31380938 C0.5000782,9.31380938 8.34497072,7.95944028 12.2734826,2.35703263 C12.2734826,2.35703263 8.52559196,-1.75180314 3.85572424,1.71212698 C0.720463068,4.03822566 0.5000782,9.31380938 0.5000782,9.31380938 L0.5000782,9.31380938 Z" id="Shape" fill="#263138"></path>
                                        <g transform="translate(3.369799, 1.344954)" id="Oval">
                                            <ellipse fill="#08AFC9" cx="2.73492903" cy="2.43840237" rx="2.30696453" ry="2.32408124"></ellipse>
                                            <ellipse fill="#FFFFFF" cx="2.15127981" cy="2.08602431" rx="0.868060272" ry="0.874220375"></ellipse>
                                        </g>
                                    </g>
                                    <g>
                                        <path d="M12.0281612,9.31380938 C12.0281612,9.31380938 4.18326872,7.95944028 0.254756819,2.35703263 C0.254756819,2.35703263 4.00197352,-1.75180314 8.67184124,1.71212698 C11.8077764,4.03822566 12.0281612,9.31380938 12.0281612,9.31380938 L12.0281612,9.31380938 Z" id="Shape" fill="#263138"></path>
                                        <g transform="translate(4.043759, 1.344954)" id="Oval">
                                            <ellipse fill="#08AFC9" cx="2.37975219" cy="2.43840237" rx="2.30696453" ry="2.32408124"></ellipse>
                                            <ellipse fill="#FFFFFF" cx="1.79610297" cy="2.08602431" rx="0.868060272" ry="0.874220375"></ellipse>
                                        </g>
                                    </g>
                                </g>
                                <path d="M50.4081522,88.0070927 C47.4083569,88.0070927 45.0649986,88.6506534 43.9233106,90.1206886 C43.9233106,90.1206886 47.3928559,95.3418017 50.4081522,95.3418017 C53.4234485,95.3418017 56.8936677,90.1206886 56.8936677,90.1206886 C55.7519797,88.6506534 53.4079474,88.0070927 50.4081522,88.0070927 L50.4081522,88.0070927 Z" id="Shape" fill="#263138"></path>
                                <path d="M50.4081522,89.1079379 C53.1167968,89.1079379 55.3671487,89.4300545 56.8801885,90.1408629 C56.88895,90.1280858 56.8943417,90.1200161 56.8943417,90.1200161 C55.7526537,88.6499809 53.4086214,88.0064202 50.4088261,88.0064202 C47.4090309,88.0064202 45.0656725,88.6499809 43.9239846,90.1200161 C43.9239846,90.1200161 43.9293762,90.1280858 43.9381377,90.1408629 C45.4491557,89.4300545 47.7001815,89.1079379 50.4081522,89.1079379 L50.4081522,89.1079379 Z" id="Shape" fill="#3C454A" opacity="0.8"></path>
                            </g>
                            <path d="M50.4081522,18.8959372 C46.6029749,18.8959372 39.5560509,16.5604238 33.5611781,13.86917 C32.8845224,12.055499 32.0905977,10.3635463 31.2117541,9.02867905 C27.6788566,3.6710531 22.6753788,-0.503685432 21.4669688,0.109613786 C17.0545537,2.34963538 13.894356,25.1069367 16.7040946,38.0951616 L16.5578453,38.5887598 C16.5578453,38.5887598 2.11151617,46.2946762 1.12012125,63.9895691 C1.12012125,63.9895691 4.09430602,59.137646 10.7510073,57.425519 C10.7510073,57.425519 -1.99559508,64.7030674 0.270257895,77.5467097 C2.28876761,74.9926412 5.53994987,72.7553095 9.27975302,71.0465449 C6.08383546,75.2132137 2.7773885,81.9366409 3.0173182,91.7978467 C3.0173182,91.7978467 6.15662313,86.8376548 12.4918456,82.287674 C10.5703861,86.3796979 9.04925875,91.9363771 9.2029216,99.1998034 C9.2029216,99.1998034 17.2129343,84.6124277 33.5402853,82.5250585 C34.838332,84.6285672 36.0716785,86.9412163 37.170233,89.4925949 C39.1395437,94.0667849 42.4796886,96.1716385 45.3574971,97.1400057 C46.4129183,97.8521591 48.0075072,98.459406 50.4081522,98.459406 L50.4081522,18.8959372 L50.4081522,18.8959372 Z" id="Shape" fill="#FFFFFF" opacity="0.12"></path>
                        </g>
                    </g>
                </g>
            </g>
        </g>
    </g>
</svg>